<svg id="svg" xmlns="http://www.w3.org/2000/svg" xmlns:xlink="http://www.w3.org/1999/xlink" width="400" height="400" viewBox="0, 0, 400,400" version="1.1"><g id="svgg"><path id="path0" d="M136.119 50.953 C 135.415 51.214,134.710 51.557,134.553 51.714 C 134.395 51.871,134.019 52.000,133.717 52.000 C 133.414 52.000,132.780 52.360,132.308 52.800 C 131.836 53.240,131.213 53.600,130.925 53.600 C 130.636 53.600,130.400 53.881,130.400 54.224 C 130.400 54.567,130.220 54.736,130.000 54.600 C 129.780 54.464,129.600 54.543,129.600 54.776 C 129.600 55.009,128.880 55.941,128.000 56.848 C 127.120 57.755,126.400 58.745,126.400 59.048 C 126.400 59.352,126.220 59.600,126.000 59.600 C 125.780 59.600,125.600 59.882,125.600 60.227 C 125.600 60.571,125.129 61.471,124.553 62.227 C 123.976 62.982,123.626 63.600,123.773 63.600 C 123.920 63.600,123.582 64.202,123.020 64.938 C 122.459 65.674,122.000 66.484,122.000 66.738 C 122.000 66.992,121.820 67.200,121.600 67.200 C 121.380 67.200,121.200 67.560,121.200 68.000 C 121.200 68.440,121.020 68.800,120.800 68.800 C 120.580 68.800,120.400 69.160,120.400 69.600 C 120.400 70.040,120.220 70.400,120.000 70.400 C 119.780 70.400,119.600 70.760,119.600 71.200 C 119.600 71.640,119.420 72.000,119.200 72.000 C 118.980 72.000,118.800 72.270,118.800 72.600 C 118.800 72.930,118.620 73.200,118.400 73.200 C 118.180 73.200,118.000 73.560,118.000 74.000 C 118.000 74.440,117.820 74.800,117.600 74.800 C 117.380 74.800,117.200 75.160,117.200 75.600 C 117.200 76.040,117.020 76.400,116.800 76.400 C 116.580 76.400,116.400 76.760,116.400 77.200 C 116.400 77.640,116.220 78.000,116.000 78.000 C 115.780 78.000,115.600 78.261,115.600 78.579 C 115.600 78.898,115.195 79.596,114.700 80.130 C 113.627 81.288,112.000 84.246,112.000 85.038 C 112.000 85.347,111.820 85.600,111.600 85.600 C 111.380 85.600,111.200 85.960,111.200 86.400 C 111.200 86.840,111.042 87.200,110.849 87.200 C 110.655 87.200,110.273 87.740,110.000 88.400 C 109.727 89.060,109.345 89.600,109.151 89.600 C 108.958 89.600,108.800 89.960,108.800 90.400 C 108.800 90.840,108.658 91.200,108.485 91.200 C 108.312 91.200,108.141 91.589,108.105 92.064 C 108.069 92.539,107.896 93.034,107.720 93.164 C 107.418 93.387,106.806 94.371,105.829 96.206 C 105.593 96.649,104.995 97.577,104.500 98.267 C 104.005 98.958,103.600 99.777,103.600 100.086 C 103.600 100.396,103.240 101.036,102.800 101.508 C 102.360 101.980,102.000 102.644,102.000 102.983 C 102.000 103.322,101.820 103.600,101.600 103.600 C 101.380 103.600,101.200 103.926,101.200 104.325 C 101.200 104.723,100.840 105.436,100.400 105.908 C 99.960 106.380,99.600 107.044,99.600 107.383 C 99.600 107.722,99.420 108.000,99.200 108.000 C 98.980 108.000,98.800 108.360,98.800 108.800 C 98.800 109.240,98.620 109.600,98.400 109.600 C 98.180 109.600,98.000 109.945,98.000 110.367 C 98.000 110.788,97.859 111.193,97.687 111.267 C 97.227 111.463,95.600 114.357,95.600 114.980 C 95.600 115.274,95.330 115.618,95.000 115.745 C 94.670 115.871,94.400 116.251,94.400 116.587 C 94.400 116.924,94.209 117.200,93.976 117.200 C 93.743 117.200,93.655 117.365,93.780 117.568 C 93.905 117.770,93.749 118.194,93.433 118.510 C 93.117 118.826,92.465 119.920,91.985 120.942 C 91.505 121.964,90.952 122.800,90.756 122.800 C 90.560 122.800,90.400 123.149,90.400 123.576 C 90.400 124.003,90.220 124.464,90.000 124.600 C 89.780 124.736,89.600 125.114,89.600 125.440 C 89.600 125.767,89.240 126.420,88.800 126.892 C 88.360 127.364,88.000 127.987,88.000 128.275 C 88.000 128.564,87.820 128.800,87.600 128.800 C 87.380 128.800,87.200 129.160,87.200 129.600 C 87.200 130.040,87.020 130.400,86.800 130.400 C 86.580 130.400,86.400 130.760,86.400 131.200 C 86.400 131.640,86.220 132.000,86.000 132.000 C 85.780 132.000,85.600 132.341,85.600 132.757 C 85.600 133.174,85.319 133.622,84.975 133.754 C 84.631 133.886,84.461 134.176,84.598 134.397 C 84.735 134.619,84.669 134.800,84.451 134.800 C 84.041 134.800,83.373 136.346,83.531 136.930 C 83.580 137.111,83.435 137.145,83.210 137.006 C 82.984 136.867,82.800 137.033,82.800 137.376 C 82.800 137.719,82.609 138.000,82.376 138.000 C 82.143 138.000,82.055 138.165,82.180 138.368 C 82.305 138.570,82.136 139.007,81.804 139.339 C 81.472 139.671,81.196 140.181,81.191 140.471 C 81.186 140.762,80.830 141.450,80.400 142.000 C 79.970 142.550,79.614 143.225,79.609 143.500 C 79.604 143.775,79.420 144.000,79.200 144.000 C 78.980 144.000,78.800 144.360,78.800 144.800 C 78.800 145.240,78.620 145.600,78.400 145.600 C 78.180 145.600,78.000 145.960,78.000 146.400 C 78.000 146.840,77.820 147.200,77.600 147.200 C 77.380 147.200,77.200 147.560,77.200 148.000 C 77.200 148.440,77.020 148.800,76.800 148.800 C 76.580 148.800,76.400 149.036,76.400 149.325 C 76.400 149.613,76.085 150.205,75.700 150.640 C 75.315 151.075,74.940 151.694,74.868 152.016 C 74.795 152.337,74.480 152.744,74.168 152.920 C 73.855 153.096,73.600 153.503,73.600 153.825 C 73.600 154.396,72.833 155.999,72.368 156.400 C 72.240 156.510,71.881 157.185,71.570 157.900 C 71.259 158.615,70.869 159.200,70.702 159.200 C 70.536 159.200,70.400 159.470,70.400 159.800 C 70.400 160.130,70.220 160.400,70.000 160.400 C 69.780 160.400,69.600 160.850,69.600 161.400 C 69.600 161.950,69.420 162.400,69.200 162.400 C 68.980 162.400,68.800 162.771,68.800 163.224 C 68.800 163.677,68.620 163.936,68.400 163.800 C 68.177 163.662,68.000 163.966,68.000 164.488 C 68.000 165.003,67.640 165.683,67.200 166.000 C 66.760 166.317,66.400 166.809,66.400 167.094 C 66.400 167.682,65.643 169.105,64.900 169.913 C 64.625 170.212,64.400 170.714,64.400 171.029 C 64.400 171.343,64.220 171.600,64.000 171.600 C 63.780 171.600,63.600 171.870,63.600 172.200 C 63.600 172.530,63.454 172.800,63.275 172.800 C 63.096 172.800,62.702 173.430,62.400 174.200 C 62.098 174.970,61.704 175.600,61.525 175.600 C 61.346 175.600,61.200 175.960,61.200 176.400 C 61.200 176.840,61.020 177.200,60.800 177.200 C 60.580 177.200,60.400 177.560,60.400 178.000 C 60.400 178.440,60.220 178.800,60.000 178.800 C 59.780 178.800,59.600 179.160,59.600 179.600 C 59.600 180.040,59.420 180.400,59.200 180.400 C 58.980 180.400,58.800 180.670,58.800 181.000 C 58.800 181.330,58.649 181.600,58.464 181.600 C 58.279 181.600,57.890 182.320,57.600 183.200 C 57.310 184.080,56.921 184.800,56.736 184.800 C 56.551 184.800,56.400 185.160,56.400 185.600 C 56.400 186.040,56.220 186.400,56.000 186.400 C 55.780 186.400,55.600 186.760,55.600 187.200 C 55.600 187.640,55.438 188.000,55.240 188.000 C 54.679 188.000,52.000 192.503,52.000 193.446 C 52.000 193.751,51.820 194.000,51.600 194.000 C 51.380 194.000,51.200 194.360,51.200 194.800 C 51.200 195.240,51.042 195.600,50.849 195.600 C 50.655 195.600,50.273 196.140,50.000 196.800 C 49.727 197.460,49.345 198.000,49.151 198.000 C 48.958 198.000,48.800 198.461,48.800 199.024 C 48.800 199.604,48.627 199.940,48.400 199.800 C 48.180 199.664,48.000 199.828,48.000 200.164 C 48.000 200.782,46.632 203.478,45.962 204.180 C 45.763 204.389,45.597 204.839,45.593 205.180 C 45.589 205.521,45.140 206.223,44.595 206.741 C 44.049 207.258,43.704 207.844,43.827 208.043 C 43.950 208.243,43.770 208.513,43.428 208.645 C 43.085 208.776,42.895 209.030,43.006 209.210 C 43.117 209.389,42.936 209.807,42.604 210.139 C 42.272 210.471,42.000 211.026,42.000 211.371 C 42.000 211.717,41.820 212.000,41.600 212.000 C 41.380 212.000,41.196 212.315,41.191 212.700 C 41.186 213.085,40.830 213.850,40.400 214.400 C 39.970 214.950,39.614 215.625,39.609 215.900 C 39.604 216.175,39.420 216.400,39.200 216.400 C 38.980 216.400,38.800 216.760,38.800 217.200 C 38.800 217.640,38.620 218.000,38.400 218.000 C 38.180 218.000,38.000 218.278,38.000 218.617 C 38.000 218.956,37.640 219.620,37.200 220.092 C 36.760 220.564,36.400 221.187,36.400 221.475 C 36.400 221.764,36.220 222.000,36.000 222.000 C 35.780 222.000,35.621 222.135,35.647 222.300 C 35.788 223.193,35.550 224.017,35.212 223.807 C 34.998 223.675,34.709 224.025,34.568 224.584 C 34.428 225.143,34.142 225.600,33.933 225.600 C 33.724 225.600,33.650 225.757,33.768 225.948 C 33.887 226.140,33.632 226.701,33.204 227.196 C 32.775 227.690,32.316 228.434,32.185 228.848 C 32.054 229.261,31.768 229.600,31.549 229.600 C 31.331 229.600,31.255 229.765,31.380 229.968 C 31.505 230.170,31.336 230.607,31.004 230.939 C 30.672 231.271,30.400 231.926,30.400 232.395 C 30.400 232.864,30.220 233.136,30.000 233.000 C 29.780 232.864,29.600 233.051,29.600 233.415 C 29.600 233.779,29.277 234.554,28.882 235.138 C 28.487 235.722,27.722 237.100,27.182 238.200 C 26.642 239.300,26.065 240.260,25.900 240.333 C 25.735 240.407,25.600 240.735,25.600 241.062 C 25.600 241.389,25.322 241.935,24.982 242.275 C 24.642 242.615,24.432 243.095,24.514 243.343 C 24.597 243.590,24.425 244.032,24.132 244.325 C 23.819 244.639,23.600 245.759,23.600 247.052 C 23.600 248.259,23.441 249.149,23.247 249.029 C 22.827 248.769,22.881 251.015,23.306 251.439 C 23.468 251.601,23.600 252.372,23.600 253.153 C 23.600 254.732,24.716 258.000,25.254 258.000 C 25.444 258.000,25.600 258.320,25.600 258.712 C 25.600 259.103,25.960 259.683,26.400 260.000 C 26.840 260.317,27.200 260.885,27.200 261.261 C 27.200 261.638,27.560 262.060,28.000 262.200 C 28.440 262.340,28.800 262.722,28.800 263.051 C 28.800 263.379,28.973 263.541,29.184 263.410 C 29.395 263.280,30.070 263.688,30.684 264.318 C 31.694 265.354,32.446 265.820,33.304 265.941 C 33.471 265.965,34.138 266.257,34.784 266.592 C 35.811 267.123,40.531 267.200,71.980 267.200 L 108.000 267.200 108.000 302.976 C 108.000 326.396,108.138 338.838,108.400 339.000 C 108.620 339.136,108.800 339.687,108.800 340.224 C 108.800 340.761,108.980 341.200,109.200 341.200 C 109.420 341.200,109.600 341.520,109.600 341.912 C 109.600 342.303,109.960 342.883,110.400 343.200 C 110.840 343.517,111.200 343.969,111.200 344.205 C 111.200 344.593,112.903 346.272,115.149 348.100 C 115.622 348.485,116.277 348.800,116.605 348.800 C 116.932 348.800,117.200 348.991,117.200 349.224 C 117.200 349.457,117.348 349.556,117.529 349.444 C 117.709 349.332,118.360 349.502,118.974 349.820 C 120.679 350.705,162.264 350.668,164.600 349.780 C 165.480 349.445,166.515 349.067,166.900 348.939 C 167.285 348.811,167.600 348.548,167.600 348.353 C 167.600 348.159,167.793 348.000,168.029 348.000 C 168.264 348.000,168.683 347.775,168.958 347.500 C 169.234 347.225,170.029 346.550,170.726 346.000 C 171.423 345.450,171.994 344.685,171.996 344.300 C 171.998 343.915,172.147 343.600,172.326 343.600 C 172.682 343.600,174.400 340.564,174.400 339.934 C 174.400 339.719,174.666 339.277,174.992 338.951 C 175.505 338.438,175.585 333.593,175.596 302.380 L 175.608 266.400 166.828 266.400 C 161.406 266.400,157.953 266.247,157.800 266.000 C 157.664 265.780,156.543 265.600,155.308 265.600 C 154.000 265.600,152.799 265.374,152.431 265.059 C 152.084 264.762,150.990 264.090,150.000 263.565 C 148.199 262.611,145.709 260.800,146.198 260.800 C 146.340 260.800,146.187 260.530,145.857 260.200 C 145.527 259.870,145.109 259.599,144.929 259.597 C 144.547 259.593,143.600 257.685,143.600 256.920 C 143.600 256.634,143.420 256.400,143.200 256.400 C 142.980 256.400,142.800 256.040,142.800 255.600 C 142.800 255.160,142.620 254.800,142.400 254.800 C 142.180 254.800,142.000 253.911,142.000 252.824 C 142.000 251.737,141.820 250.736,141.600 250.600 C 141.380 250.464,141.200 250.003,141.200 249.576 C 141.200 249.149,141.380 248.800,141.600 248.800 C 141.820 248.800,142.000 247.990,142.000 247.000 C 142.000 246.010,142.180 245.200,142.400 245.200 C 142.620 245.200,142.800 244.935,142.800 244.612 C 142.800 244.289,143.160 243.383,143.600 242.600 C 144.040 241.817,144.400 240.920,144.400 240.608 C 144.400 240.295,144.673 239.887,145.008 239.700 C 145.342 239.513,145.698 238.932,145.798 238.409 C 145.899 237.887,146.177 237.338,146.417 237.190 C 146.974 236.845,148.000 234.878,148.000 234.154 C 148.000 233.849,148.180 233.600,148.400 233.600 C 148.620 233.600,148.800 233.240,148.800 232.800 C 148.800 232.360,148.980 232.000,149.200 232.000 C 149.420 232.000,149.600 231.640,149.600 231.200 C 149.600 230.760,149.759 230.400,149.953 230.400 C 150.148 230.400,150.410 230.085,150.536 229.700 C 150.662 229.315,151.223 228.230,151.782 227.289 C 152.342 226.348,152.800 225.313,152.800 224.989 C 152.800 224.665,152.980 224.400,153.200 224.400 C 153.420 224.400,153.600 224.040,153.600 223.600 C 153.600 223.160,153.780 222.800,154.000 222.800 C 154.220 222.800,154.400 222.522,154.400 222.183 C 154.400 221.602,154.662 221.191,155.926 219.789 C 156.215 219.469,156.338 219.023,156.200 218.800 C 156.062 218.577,156.231 218.286,156.575 218.154 C 156.919 218.022,157.200 217.589,157.200 217.191 C 157.200 216.792,157.335 216.407,157.500 216.333 C 157.932 216.141,159.600 212.828,159.600 212.162 C 159.600 211.853,159.780 211.600,160.000 211.600 C 160.220 211.600,160.400 211.330,160.400 211.000 C 160.400 210.670,160.580 210.400,160.800 210.400 C 161.020 210.400,161.200 210.040,161.200 209.600 C 161.200 209.160,161.380 208.800,161.600 208.800 C 161.820 208.800,162.000 208.440,162.000 208.000 C 162.000 207.560,162.180 207.200,162.400 207.200 C 162.620 207.200,162.800 206.840,162.800 206.400 C 162.800 205.960,162.980 205.600,163.200 205.600 C 163.420 205.600,163.600 205.285,163.600 204.900 C 163.601 204.515,164.047 203.682,164.592 203.048 C 165.137 202.414,165.486 201.739,165.368 201.548 C 165.250 201.357,165.354 201.200,165.600 201.200 C 165.846 201.200,165.936 201.020,165.800 200.800 C 165.664 200.580,165.713 200.400,165.910 200.400 C 166.330 200.400,168.800 195.737,168.800 194.944 C 168.800 194.645,168.980 194.400,169.200 194.400 C 169.420 194.400,169.600 194.040,169.600 193.600 C 169.600 193.160,169.780 192.800,170.000 192.800 C 170.220 192.800,170.404 192.575,170.409 192.300 C 170.414 192.025,170.770 191.350,171.200 190.800 C 171.630 190.250,171.986 189.435,171.991 188.988 C 171.996 188.542,172.360 187.917,172.800 187.600 C 173.240 187.283,173.600 186.714,173.600 186.335 C 173.600 185.957,173.780 185.536,174.000 185.400 C 174.220 185.264,174.400 184.823,174.400 184.419 C 174.400 184.016,174.670 183.582,175.000 183.455 C 175.330 183.329,175.600 182.949,175.600 182.613 C 175.600 182.276,175.780 182.000,176.000 182.000 C 176.220 182.000,176.400 181.640,176.400 181.200 C 176.400 180.760,176.580 180.400,176.800 180.400 C 177.020 180.400,177.200 180.040,177.200 179.600 C 177.200 179.160,177.336 178.800,177.502 178.800 C 177.669 178.800,178.041 178.215,178.329 177.500 C 178.617 176.785,179.117 175.750,179.439 175.200 C 179.761 174.650,180.331 173.525,180.706 172.700 C 181.082 171.875,181.526 171.200,181.694 171.200 C 181.862 171.200,182.000 170.840,182.000 170.400 C 182.000 169.960,182.180 169.600,182.400 169.600 C 182.620 169.600,182.800 169.240,182.800 168.800 C 182.800 168.360,182.980 168.000,183.200 168.000 C 183.420 168.000,183.600 167.640,183.600 167.200 C 183.600 166.760,183.780 166.400,184.000 166.400 C 184.220 166.400,184.400 166.189,184.400 165.931 C 184.400 165.674,184.684 165.150,185.030 164.767 C 185.377 164.384,185.704 163.777,185.756 163.418 C 185.809 163.059,186.110 162.458,186.426 162.082 C 186.742 161.706,187.450 160.498,188.000 159.399 C 188.550 158.300,189.135 157.340,189.300 157.267 C 189.465 157.193,189.600 156.788,189.600 156.367 C 189.600 155.945,189.780 155.600,190.000 155.600 C 190.220 155.600,190.400 155.232,190.400 154.783 C 190.400 154.334,190.760 153.580,191.200 153.108 C 191.640 152.636,192.000 152.013,192.000 151.725 C 192.000 151.436,192.180 151.200,192.400 151.200 C 192.620 151.200,192.800 150.966,192.800 150.680 C 192.800 149.944,193.741 148.007,194.100 148.003 C 194.265 148.001,194.400 147.539,194.400 146.976 C 194.400 146.413,194.575 146.061,194.788 146.193 C 195.002 146.325,195.291 145.975,195.432 145.416 C 195.572 144.857,195.847 144.400,196.043 144.400 C 196.240 144.400,196.400 144.051,196.400 143.624 C 196.400 143.197,196.580 142.736,196.800 142.600 C 197.020 142.464,197.200 141.654,197.200 140.800 C 197.200 139.946,197.020 139.136,196.800 139.000 C 196.580 138.864,196.400 138.403,196.400 137.976 C 196.400 137.549,196.220 137.200,196.000 137.200 C 195.780 137.200,195.600 136.840,195.600 136.400 C 195.600 135.956,195.333 135.600,195.000 135.600 C 194.623 135.600,194.400 135.220,194.400 134.576 C 194.400 133.996,194.227 133.660,194.000 133.800 C 193.773 133.940,193.600 133.604,193.600 133.024 C 193.600 132.461,193.420 132.000,193.200 132.000 C 192.980 132.000,192.800 131.640,192.800 131.200 C 192.800 130.760,192.620 130.400,192.400 130.400 C 192.180 130.400,192.000 130.040,192.000 129.600 C 192.000 129.160,191.820 128.800,191.600 128.800 C 191.380 128.800,191.200 128.440,191.200 128.000 C 191.200 127.560,191.020 127.200,190.800 127.200 C 190.580 127.200,190.400 126.851,190.400 126.424 C 190.400 125.997,190.220 125.536,190.000 125.400 C 189.780 125.264,189.600 124.793,189.600 124.353 C 189.600 123.913,189.420 123.664,189.200 123.800 C 188.973 123.940,188.800 123.604,188.800 123.024 C 188.800 122.461,188.620 122.000,188.400 122.000 C 188.180 122.000,188.000 121.640,188.000 121.200 C 188.000 120.760,187.820 120.400,187.600 120.400 C 187.380 120.400,187.200 120.040,187.200 119.600 C 187.200 119.160,187.020 118.800,186.800 118.800 C 186.580 118.800,186.400 118.440,186.400 118.000 C 186.400 117.560,186.220 117.200,186.000 117.200 C 185.780 117.200,185.600 116.859,185.600 116.443 C 185.600 116.026,185.354 115.591,185.054 115.476 C 184.754 115.361,184.264 114.442,183.967 113.433 C 183.669 112.425,183.285 111.600,183.113 111.600 C 182.941 111.600,182.800 111.240,182.800 110.800 C 182.800 110.360,182.620 110.000,182.400 110.000 C 182.180 110.000,182.000 109.799,182.000 109.554 C 182.000 108.899,175.142 95.023,174.741 94.867 C 174.554 94.793,174.400 94.388,174.400 93.967 C 174.400 93.545,174.220 93.200,174.000 93.200 C 173.780 93.200,173.600 92.948,173.600 92.641 C 173.600 92.333,173.060 91.055,172.400 89.800 C 171.740 88.545,171.200 87.350,171.200 87.143 C 171.200 86.936,170.840 86.380,170.400 85.908 C 169.682 85.138,169.414 84.376,169.553 83.500 C 169.579 83.335,169.420 83.200,169.200 83.200 C 168.980 83.200,168.800 82.897,168.800 82.526 C 168.800 82.155,168.395 81.406,167.900 80.861 C 167.405 80.317,167.238 80.009,167.530 80.177 C 167.968 80.431,167.969 80.339,167.533 79.642 C 167.244 79.179,166.892 78.800,166.750 78.800 C 166.609 78.800,166.398 78.436,166.282 77.991 C 166.165 77.546,166.035 77.051,165.991 76.891 C 165.948 76.731,165.572 76.122,165.156 75.538 C 164.740 74.954,164.400 74.273,164.400 74.024 C 164.400 73.775,164.109 73.128,163.754 72.586 C 163.399 72.044,163.264 71.597,163.454 71.594 C 163.644 71.591,163.589 71.454,163.332 71.290 C 163.075 71.126,162.805 70.731,162.732 70.412 C 162.659 70.093,162.285 69.475,161.900 69.040 C 161.515 68.605,161.200 67.934,161.200 67.548 C 161.200 67.163,161.020 66.736,160.800 66.600 C 160.580 66.464,160.400 66.003,160.400 65.576 C 160.400 65.149,160.220 64.800,160.000 64.800 C 159.780 64.800,159.600 64.558,159.600 64.261 C 159.600 63.498,158.493 61.376,157.792 60.793 C 157.466 60.523,157.200 59.977,157.200 59.580 C 157.200 59.182,156.939 58.596,156.619 58.276 C 156.300 57.957,156.150 57.584,156.286 57.448 C 156.422 57.311,156.315 57.200,156.048 57.200 C 155.560 57.200,153.600 55.439,153.600 55.000 C 153.600 54.499,151.606 52.800,151.018 52.800 C 150.678 52.800,150.400 52.620,150.400 52.400 C 150.400 52.180,150.040 52.000,149.600 52.000 C 149.160 52.000,148.800 51.820,148.800 51.600 C 148.800 51.380,148.361 51.200,147.824 51.200 C 147.287 51.200,146.749 51.040,146.628 50.845 C 146.300 50.314,137.601 50.403,136.119 50.953 " stroke="none" fill="#ffffff" fillRule="evenodd"></path><path id="path1" d="M253.600 50.800 C 253.270 51.013,252.595 51.191,252.100 51.194 C 251.605 51.197,251.200 51.380,251.200 51.600 C 251.200 51.820,250.840 52.000,250.400 52.000 C 249.960 52.000,249.600 52.180,249.600 52.400 C 249.600 52.620,249.364 52.800,249.075 52.800 C 248.472 52.800,247.351 53.788,246.205 55.330 C 245.768 55.919,245.221 56.400,244.990 56.400 C 244.542 56.400,242.457 59.734,241.549 61.900 C 241.250 62.615,240.869 63.200,240.702 63.200 C 240.536 63.200,240.400 63.560,240.400 64.000 C 240.400 64.440,240.220 64.800,240.000 64.800 C 239.780 64.800,239.600 65.053,239.600 65.362 C 239.600 66.028,237.932 69.341,237.500 69.533 C 237.335 69.607,237.200 70.012,237.200 70.433 C 237.200 70.855,237.020 71.200,236.800 71.200 C 236.580 71.200,236.387 71.515,236.371 71.900 C 236.355 72.285,236.005 73.140,235.594 73.800 C 235.182 74.460,234.347 75.990,233.738 77.200 C 233.128 78.410,232.488 79.460,232.315 79.533 C 232.142 79.607,232.000 79.903,232.000 80.193 C 232.000 80.482,231.460 81.745,230.800 83.000 C 230.140 84.255,229.600 85.533,229.600 85.841 C 229.600 86.148,229.420 86.400,229.200 86.400 C 228.980 86.400,228.800 86.760,228.800 87.200 C 228.800 87.640,228.620 88.000,228.400 88.000 C 228.180 88.000,228.000 88.360,228.000 88.800 C 228.000 89.240,227.820 89.600,227.600 89.600 C 227.380 89.600,227.200 89.960,227.200 90.400 C 227.200 90.840,227.020 91.200,226.800 91.200 C 226.580 91.200,226.400 91.560,226.400 92.000 C 226.400 92.440,226.220 92.800,226.000 92.800 C 225.780 92.800,225.600 93.250,225.600 93.800 C 225.600 94.350,225.399 94.755,225.153 94.700 C 224.907 94.645,224.647 94.957,224.575 95.393 C 224.503 95.829,224.254 96.249,224.022 96.326 C 223.790 96.403,223.600 96.797,223.600 97.200 C 223.600 97.603,223.464 97.993,223.298 98.067 C 223.132 98.140,222.368 99.460,221.600 101.000 C 220.832 102.540,220.068 103.860,219.902 103.933 C 219.736 104.007,219.600 104.293,219.600 104.569 C 219.600 104.846,218.700 106.839,217.600 109.000 C 216.500 111.161,215.600 113.169,215.600 113.464 C 215.600 113.759,215.420 114.000,215.200 114.000 C 214.980 114.000,214.800 114.278,214.800 114.617 C 214.800 115.194,214.544 115.598,213.300 116.985 C 213.025 117.292,212.800 117.719,212.800 117.934 C 212.800 118.473,211.069 121.769,210.700 121.933 C 210.535 122.007,210.400 122.502,210.400 123.033 C 210.400 123.565,210.220 124.000,210.000 124.000 C 209.780 124.000,209.600 124.360,209.600 124.800 C 209.600 125.240,209.420 125.600,209.200 125.600 C 208.980 125.600,208.800 125.960,208.800 126.400 C 208.800 126.840,208.620 127.200,208.400 127.200 C 208.180 127.200,208.000 127.560,208.000 128.000 C 208.000 128.440,207.820 128.800,207.600 128.800 C 207.380 128.800,207.200 129.160,207.200 129.600 C 207.200 130.040,207.020 130.400,206.800 130.400 C 206.580 130.400,206.400 130.760,206.400 131.200 C 206.400 131.640,206.220 132.000,206.000 132.000 C 205.780 132.000,205.600 132.351,205.600 132.780 C 205.600 133.209,205.314 133.720,204.964 133.916 C 204.614 134.112,204.357 134.396,204.392 134.548 C 204.497 135.003,203.429 137.200,203.102 137.200 C 202.936 137.200,202.800 137.549,202.800 137.976 C 202.800 138.403,202.620 138.864,202.400 139.000 C 202.180 139.136,202.000 140.047,202.000 141.024 C 202.000 142.001,202.180 142.800,202.400 142.800 C 202.620 142.800,202.800 143.083,202.800 143.429 C 202.800 143.774,203.072 144.329,203.404 144.661 C 203.736 144.993,203.904 145.431,203.778 145.635 C 203.652 145.839,203.831 146.114,204.175 146.246 C 204.519 146.378,204.800 146.837,204.800 147.266 C 204.800 147.696,204.947 147.956,205.127 147.845 C 205.307 147.734,205.679 148.263,205.953 149.021 C 206.227 149.780,206.620 150.400,206.826 150.400 C 207.032 150.400,207.200 150.760,207.200 151.200 C 207.200 151.640,207.380 152.000,207.600 152.000 C 207.820 152.000,208.000 152.360,208.000 152.800 C 208.000 153.240,208.180 153.600,208.400 153.600 C 208.620 153.600,208.800 153.852,208.800 154.159 C 208.800 154.467,209.366 155.772,210.059 157.059 C 210.751 158.347,211.516 159.804,211.759 160.297 C 212.001 160.790,212.335 161.195,212.500 161.197 C 212.665 161.199,212.800 161.560,212.800 162.000 C 212.800 162.440,212.935 162.802,213.100 162.805 C 213.265 162.807,213.757 163.572,214.194 164.505 C 214.631 165.437,215.083 166.290,215.199 166.400 C 215.316 166.510,215.842 167.455,216.368 168.500 C 216.895 169.545,217.477 170.400,217.663 170.400 C 217.848 170.400,218.000 170.760,218.000 171.200 C 218.000 171.640,218.180 172.000,218.400 172.000 C 218.620 172.000,218.800 172.360,218.800 172.800 C 218.800 173.240,218.980 173.600,219.200 173.600 C 219.420 173.600,219.600 173.865,219.600 174.188 C 219.600 174.511,219.978 175.456,220.440 176.288 C 220.902 177.120,221.667 178.520,222.140 179.400 C 222.613 180.280,223.099 181.090,223.221 181.200 C 223.342 181.310,223.756 182.075,224.140 182.900 C 224.523 183.725,225.009 184.400,225.219 184.400 C 225.428 184.400,225.600 184.850,225.600 185.400 C 225.600 185.950,225.780 186.400,226.000 186.400 C 226.220 186.400,226.400 186.760,226.400 187.200 C 226.400 187.640,226.546 188.000,226.725 188.000 C 226.904 188.000,227.298 188.630,227.600 189.400 C 227.902 190.170,228.296 190.800,228.475 190.800 C 228.654 190.800,228.800 191.070,228.800 191.400 C 228.800 191.730,228.980 192.000,229.200 192.000 C 229.420 192.000,229.600 192.360,229.600 192.800 C 229.600 193.240,229.780 193.600,230.000 193.600 C 230.220 193.600,230.400 193.872,230.400 194.205 C 230.400 194.765,231.128 196.334,231.604 196.800 C 231.717 196.910,232.238 197.936,232.763 199.080 C 233.288 200.224,233.961 201.253,234.259 201.367 C 234.557 201.481,234.800 201.851,234.800 202.187 C 234.800 202.524,234.980 202.800,235.200 202.800 C 235.420 202.800,235.600 203.160,235.600 203.600 C 235.600 204.040,235.780 204.400,236.000 204.400 C 236.220 204.400,236.400 204.850,236.400 205.400 C 236.400 205.950,236.580 206.400,236.800 206.400 C 237.020 206.400,237.200 206.760,237.200 207.200 C 237.200 207.640,237.380 208.000,237.600 208.000 C 237.820 208.000,238.000 208.371,238.000 208.824 C 238.000 209.277,238.180 209.536,238.400 209.400 C 238.620 209.264,238.800 209.489,238.800 209.901 C 238.800 210.312,239.160 211.036,239.600 211.508 C 240.040 211.980,240.400 212.644,240.400 212.983 C 240.400 213.322,240.580 213.600,240.800 213.600 C 241.020 213.600,241.200 213.859,241.200 214.175 C 241.200 214.816,243.408 219.047,244.257 220.032 C 244.557 220.380,244.681 220.785,244.534 220.932 C 244.387 221.080,244.567 221.200,244.933 221.200 C 245.333 221.200,245.600 221.520,245.600 222.000 C 245.600 222.440,245.780 222.800,246.000 222.800 C 246.220 222.800,246.400 223.160,246.400 223.600 C 246.400 224.040,246.580 224.400,246.800 224.400 C 247.020 224.400,247.200 224.850,247.200 225.400 C 247.200 225.950,247.380 226.400,247.600 226.400 C 247.820 226.400,248.000 226.760,248.000 227.200 C 248.000 227.640,248.180 228.000,248.400 228.000 C 248.620 228.000,248.800 228.360,248.800 228.800 C 248.800 229.240,248.980 229.600,249.200 229.600 C 249.420 229.600,249.600 229.836,249.600 230.125 C 249.600 230.413,249.960 231.036,250.400 231.508 C 250.840 231.980,251.200 232.644,251.200 232.983 C 251.200 233.322,251.380 233.600,251.600 233.600 C 251.820 233.600,252.000 233.855,252.000 234.167 C 252.000 234.735,254.671 240.024,255.148 240.400 C 255.287 240.510,255.656 241.095,255.968 241.700 C 256.280 242.305,256.685 242.800,256.868 242.800 C 257.050 242.800,257.200 243.340,257.200 244.000 C 257.200 244.660,257.380 245.200,257.600 245.200 C 257.820 245.200,258.000 246.010,258.000 247.000 C 258.000 247.990,258.180 248.800,258.400 248.800 C 258.620 248.800,258.800 249.250,258.800 249.800 C 258.800 250.350,258.620 250.800,258.400 250.800 C 258.180 250.800,258.000 251.700,258.000 252.800 C 258.000 253.900,257.820 254.800,257.600 254.800 C 257.380 254.800,257.200 255.034,257.200 255.320 C 257.200 256.056,256.259 257.993,255.900 257.997 C 255.735 257.999,255.600 258.294,255.600 258.653 C 255.600 259.012,255.195 259.655,254.700 260.081 C 254.205 260.508,253.341 261.263,252.781 261.759 C 252.220 262.256,250.780 263.188,249.581 263.831 C 248.381 264.474,247.340 265.135,247.267 265.300 C 247.193 265.465,246.068 265.600,244.767 265.600 C 243.456 265.600,242.400 265.778,242.400 266.000 C 242.400 266.255,239.131 266.400,233.392 266.400 L 224.385 266.400 224.408 302.387 C 224.428 333.387,224.513 338.455,225.016 338.959 C 225.337 339.280,225.600 339.916,225.600 340.371 C 225.600 340.827,225.780 341.200,226.000 341.200 C 226.220 341.200,226.400 341.478,226.400 341.818 C 226.400 342.158,226.853 342.890,227.408 343.444 C 227.962 343.998,228.311 344.620,228.184 344.826 C 228.057 345.032,228.098 345.206,228.276 345.213 C 228.454 345.221,229.489 346.031,230.575 347.013 C 231.661 347.996,232.876 348.800,233.275 348.800 C 233.674 348.800,234.000 348.936,234.000 349.103 C 234.000 350.354,279.836 351.236,280.600 350.000 C 280.736 349.780,281.287 349.600,281.824 349.600 C 282.361 349.600,282.800 349.420,282.800 349.200 C 282.800 348.980,283.160 348.800,283.600 348.800 C 284.040 348.800,284.404 348.665,284.409 348.500 C 284.414 348.335,285.215 347.665,286.189 347.011 C 287.163 346.357,288.193 345.367,288.477 344.811 C 288.762 344.255,289.311 343.509,289.697 343.153 C 290.084 342.797,290.400 342.212,290.400 341.853 C 290.400 341.494,290.580 341.200,290.800 341.200 C 291.020 341.200,291.200 340.761,291.200 340.224 C 291.200 339.687,291.380 339.136,291.600 339.000 C 291.862 338.838,292.000 326.396,292.000 302.976 L 292.000 267.200 328.176 267.200 C 351.863 267.200,364.438 267.062,364.600 266.800 C 364.736 266.580,365.169 266.400,365.562 266.400 C 366.610 266.400,368.512 265.361,369.188 264.419 C 369.512 263.969,369.962 263.600,370.188 263.600 C 370.847 263.599,372.800 261.761,372.800 261.142 C 372.800 260.831,373.160 260.317,373.600 260.000 C 374.040 259.683,374.400 259.118,374.400 258.745 C 374.400 258.372,374.599 258.000,374.842 257.919 C 375.502 257.699,376.387 254.835,376.394 252.900 C 376.397 251.965,376.551 251.200,376.736 251.200 C 376.920 251.200,377.004 250.705,376.922 250.100 C 376.840 249.495,376.673 248.010,376.550 246.800 C 376.427 245.590,376.163 244.429,375.963 244.220 C 375.763 244.011,375.600 243.510,375.600 243.107 C 375.600 242.705,375.330 242.271,375.000 242.145 C 374.670 242.018,374.400 241.574,374.400 241.157 C 374.400 240.741,374.220 240.400,374.000 240.400 C 373.780 240.400,373.600 240.040,373.600 239.600 C 373.600 239.160,373.420 238.800,373.200 238.800 C 372.980 238.800,372.800 238.455,372.800 238.033 C 372.800 237.612,372.633 237.207,372.430 237.133 C 372.226 237.060,372.001 236.730,371.930 236.400 C 371.858 236.070,371.485 235.509,371.100 235.153 C 370.715 234.797,370.400 234.308,370.400 234.065 C 370.400 233.823,370.040 232.983,369.600 232.200 C 369.160 231.417,368.800 230.594,368.800 230.371 C 368.800 230.149,368.440 229.580,368.000 229.108 C 367.560 228.636,367.200 228.013,367.200 227.725 C 367.200 227.436,367.020 227.200,366.800 227.200 C 366.580 227.200,366.400 226.840,366.400 226.400 C 366.400 225.960,366.258 225.600,366.084 225.600 C 365.911 225.600,365.236 224.565,364.584 223.300 C 363.933 222.035,363.265 220.940,363.100 220.867 C 362.935 220.793,362.800 220.478,362.800 220.167 C 362.800 219.855,362.620 219.600,362.400 219.600 C 362.180 219.600,362.000 219.240,362.000 218.800 C 362.000 218.360,361.820 218.000,361.600 218.000 C 361.380 218.000,361.200 217.640,361.200 217.200 C 361.200 216.760,361.020 216.400,360.800 216.400 C 360.580 216.400,360.400 216.040,360.400 215.600 C 360.400 215.160,360.254 214.800,360.075 214.800 C 359.896 214.800,359.502 214.170,359.200 213.400 C 358.898 212.630,358.504 212.000,358.325 212.000 C 358.146 212.000,358.000 211.640,358.000 211.200 C 358.000 210.760,357.820 210.400,357.600 210.400 C 357.380 210.400,357.200 210.040,357.200 209.600 C 357.200 209.160,357.042 208.800,356.849 208.800 C 356.655 208.800,356.275 208.265,356.005 207.611 C 355.734 206.957,355.082 205.922,354.557 205.311 C 354.031 204.700,353.601 203.885,353.600 203.500 C 353.600 203.115,353.420 202.800,353.200 202.800 C 352.980 202.800,352.800 202.440,352.800 202.000 C 352.800 201.560,352.620 201.200,352.400 201.200 C 352.180 201.200,352.000 200.840,352.000 200.400 C 352.000 199.960,351.865 199.597,351.700 199.594 C 351.535 199.590,350.960 198.690,350.421 197.594 C 349.883 196.497,349.298 195.600,349.121 195.600 C 348.945 195.600,348.800 195.348,348.800 195.041 C 348.800 194.733,348.234 193.428,347.541 192.141 C 346.849 190.853,346.084 189.396,345.841 188.903 C 345.599 188.410,345.175 188.005,344.900 188.003 C 344.625 188.001,344.400 187.640,344.400 187.200 C 344.400 186.760,344.220 186.400,344.000 186.400 C 343.780 186.400,343.600 186.128,343.600 185.795 C 343.600 185.217,342.849 183.624,342.377 183.200 C 342.255 183.090,341.918 182.415,341.629 181.700 C 341.340 180.985,340.945 180.400,340.751 180.400 C 340.558 180.400,340.400 180.040,340.400 179.600 C 340.400 179.160,340.220 178.800,340.000 178.800 C 339.780 178.800,339.600 178.440,339.600 178.000 C 339.600 177.560,339.420 177.200,339.200 177.200 C 338.980 177.200,338.800 176.855,338.800 176.433 C 338.800 176.012,338.659 175.607,338.487 175.533 C 338.010 175.330,336.400 172.432,336.400 171.777 C 336.400 171.460,336.220 171.200,336.000 171.200 C 335.780 171.200,335.600 170.924,335.600 170.587 C 335.600 170.251,335.330 169.871,335.000 169.745 C 334.670 169.618,334.400 169.174,334.400 168.757 C 334.400 168.341,334.220 168.000,334.000 168.000 C 333.780 168.000,333.600 167.764,333.600 167.475 C 333.600 167.187,333.240 166.564,332.800 166.092 C 332.360 165.620,332.000 164.967,332.000 164.640 C 332.000 164.314,331.820 163.936,331.600 163.800 C 331.380 163.664,331.200 163.203,331.200 162.776 C 331.200 162.349,331.020 162.000,330.800 162.000 C 330.580 162.000,330.400 161.640,330.400 161.200 C 330.400 160.760,330.220 160.400,330.000 160.400 C 329.780 160.400,329.600 160.164,329.600 159.875 C 329.600 159.587,329.240 158.964,328.800 158.492 C 328.360 158.020,328.000 157.356,328.000 157.017 C 328.000 156.678,327.820 156.400,327.600 156.400 C 327.380 156.400,327.200 156.040,327.200 155.600 C 327.200 155.160,327.020 154.800,326.800 154.800 C 326.580 154.800,326.400 154.440,326.400 154.000 C 326.400 153.560,326.263 153.200,326.095 153.200 C 325.789 153.200,325.067 152.015,324.571 150.700 C 324.426 150.315,324.148 150.000,323.953 150.000 C 323.759 150.000,323.600 149.730,323.600 149.400 C 323.600 149.070,323.420 148.800,323.200 148.800 C 322.980 148.800,322.800 148.440,322.800 148.000 C 322.800 147.560,322.620 147.200,322.400 147.200 C 322.180 147.200,322.000 146.840,322.000 146.400 C 322.000 145.960,321.820 145.600,321.600 145.600 C 321.380 145.600,321.200 145.240,321.200 144.800 C 321.200 144.360,321.054 144.000,320.875 144.000 C 320.696 144.000,320.302 143.370,320.000 142.600 C 319.698 141.830,319.304 141.200,319.125 141.200 C 318.946 141.200,318.800 140.840,318.800 140.400 C 318.800 139.960,318.620 139.600,318.400 139.600 C 318.180 139.600,318.000 139.240,318.000 138.800 C 318.000 138.360,317.865 137.997,317.700 137.994 C 317.535 137.990,316.950 137.068,316.400 135.944 C 315.850 134.821,315.175 133.814,314.900 133.708 C 314.625 133.601,314.400 133.174,314.400 132.757 C 314.400 132.341,314.220 132.000,314.000 132.000 C 313.780 132.000,313.600 131.640,313.600 131.200 C 313.600 130.760,313.420 130.400,313.200 130.400 C 312.980 130.400,312.800 130.040,312.800 129.600 C 312.800 129.160,312.620 128.800,312.400 128.800 C 312.180 128.800,312.000 128.480,312.000 128.088 C 312.000 127.697,311.640 127.117,311.200 126.800 C 310.760 126.483,310.400 125.914,310.400 125.535 C 310.400 125.157,310.220 124.736,310.000 124.600 C 309.780 124.464,309.600 124.018,309.600 123.610 C 309.600 123.201,309.465 122.807,309.300 122.733 C 309.135 122.660,308.567 121.745,308.037 120.700 C 307.508 119.655,306.923 118.800,306.737 118.800 C 306.552 118.800,306.400 118.440,306.400 118.000 C 306.400 117.560,306.220 117.200,306.000 117.200 C 305.780 117.200,305.600 116.924,305.600 116.587 C 305.600 116.251,305.330 115.871,305.000 115.745 C 304.670 115.618,304.400 115.174,304.400 114.757 C 304.400 114.341,304.220 114.000,304.000 114.000 C 303.780 114.000,303.600 113.640,303.600 113.200 C 303.600 112.760,303.420 112.400,303.200 112.400 C 302.980 112.400,302.800 112.130,302.800 111.800 C 302.800 111.470,302.620 111.200,302.400 111.200 C 302.180 111.200,302.000 110.840,302.000 110.400 C 302.000 109.960,301.820 109.600,301.600 109.600 C 301.380 109.600,301.200 109.240,301.200 108.800 C 301.200 108.360,301.020 108.000,300.800 108.000 C 300.580 108.000,300.400 107.640,300.400 107.200 C 300.400 106.760,300.265 106.399,300.100 106.397 C 299.935 106.395,299.601 105.990,299.357 105.497 C 297.877 102.499,295.077 97.369,294.829 97.200 C 294.668 97.090,294.287 96.428,293.983 95.729 C 293.679 95.030,293.288 94.545,293.115 94.652 C 292.942 94.760,292.800 94.387,292.800 93.824 C 292.800 93.261,292.620 92.800,292.400 92.800 C 292.180 92.800,292.000 92.440,292.000 92.000 C 292.000 91.560,291.854 91.200,291.675 91.200 C 291.496 91.200,291.102 90.570,290.800 89.800 C 290.498 89.030,290.104 88.400,289.925 88.400 C 289.746 88.400,289.600 88.130,289.600 87.800 C 289.600 87.470,289.420 87.200,289.200 87.200 C 288.980 87.200,288.800 86.840,288.800 86.400 C 288.800 85.960,288.620 85.600,288.400 85.600 C 288.180 85.600,288.000 85.240,288.000 84.800 C 288.000 84.360,287.865 83.995,287.700 83.989 C 287.535 83.983,286.951 82.993,286.403 81.789 C 285.855 80.585,285.180 79.600,284.903 79.600 C 284.626 79.600,284.400 79.240,284.400 78.800 C 284.400 78.360,284.220 78.000,284.000 78.000 C 283.780 78.000,283.600 77.640,283.600 77.200 C 283.600 76.760,283.420 76.400,283.200 76.400 C 282.980 76.400,282.800 76.040,282.800 75.600 C 282.800 75.160,282.620 74.800,282.400 74.800 C 282.180 74.800,282.000 74.440,282.000 74.000 C 282.000 73.560,281.820 73.200,281.600 73.200 C 281.380 73.200,281.200 72.930,281.200 72.600 C 281.200 72.270,281.020 72.000,280.800 72.000 C 280.580 72.000,280.400 71.640,280.400 71.200 C 280.400 70.760,280.220 70.400,280.000 70.400 C 279.780 70.400,279.600 70.040,279.600 69.600 C 279.600 69.160,279.420 68.800,279.200 68.800 C 278.980 68.800,278.800 68.440,278.800 68.000 C 278.800 67.560,278.620 67.200,278.400 67.200 C 278.180 67.200,278.000 66.964,278.000 66.675 C 278.000 66.387,277.640 65.764,277.200 65.292 C 276.760 64.820,276.400 64.274,276.400 64.078 C 276.400 63.418,275.144 61.200,274.771 61.200 C 274.567 61.200,274.400 60.840,274.400 60.400 C 274.400 59.960,274.220 59.600,274.000 59.600 C 273.780 59.600,273.600 59.330,273.600 59.000 C 273.600 58.670,273.420 58.400,273.200 58.400 C 272.980 58.400,272.800 58.202,272.800 57.960 C 272.800 57.719,272.260 57.017,271.600 56.400 C 270.940 55.783,270.400 55.179,270.400 55.058 C 270.400 54.583,268.332 52.800,267.782 52.800 C 267.462 52.800,267.200 52.620,267.200 52.400 C 267.200 52.180,266.870 52.000,266.467 52.000 C 266.063 52.000,265.610 51.877,265.459 51.726 C 264.285 50.551,255.095 49.834,253.600 50.800 " stroke="none" fill="#ffffff" fillRule="evenodd"></path></g></svg>