<?xml version="1.0" standalone="no"?>
<!DOCTYPE svg PUBLIC "-//W3C//DTD SVG 20010904//EN"
 "http://www.w3.org/TR/2001/REC-SVG-20010904/DTD/svg10.dtd">
<svg version="1.0" xmlns="http://www.w3.org/2000/svg"
 width="637.000000pt" height="637.000000pt" viewBox="0 0 637.000000 637.000000"
 preserveAspectRatio="xMidYMid meet">
<metadata>
Created by potrace 1.14, written by Peter Selinger 2001-2017
</metadata>
<g transform="translate(0.000000,637.000000) scale(0.100000,-0.100000)"
fill="#000000" stroke="none">
<path d="M81 4084 c-20 -26 -21 -38 -21 -329 l0 -302 23 -21 c22 -21 32 -22
224 -22 188 0 202 -1 227 -21 l26 -20 0 -525 0 -525 25 -25 24 -24 332 2 332
3 17 30 c24 44 54 55 152 55 106 0 129 -8 156 -54 l21 -36 346 0 c345 0 385 4
385 35 0 7 12 23 26 34 23 18 41 21 130 21 94 0 154 -12 154 -30 0 -4 11 -19
25 -34 l24 -26 1781 0 1781 0 24 25 25 24 0 301 0 301 -25 24 -24 25 -359 0
c-328 0 -362 2 -381 18 -21 17 -21 22 -23 550 l-3 534 -24 19 c-23 18 -54 19
-1075 19 -1182 0 -1097 5 -1163 -76 -67 -81 -54 -78 -125 -30 -68 45 -164 80
-263 96 -36 6 -588 10 -1407 10 l-1347 0 -20 -26z m1529 -319 l0 -155 -257 -2
-258 -3 -3 -572 -2 -573 -165 0 -165 0 0 575 0 575 -255 0 -255 0 0 155 0 155
680 0 680 0 0 -155z m1215 140 c187 -49 309 -179 337 -360 29 -190 -52 -367
-209 -453 l-52 -28 139 -296 c77 -164 140 -299 140 -302 0 -4 -84 -6 -187 -6
l-188 1 -115 265 c-66 152 -123 272 -135 280 -15 11 -60 14 -192 14 -160 0
-175 -2 -193 -20 -19 -19 -20 -33 -20 -280 l0 -260 -181 0 -180 0 3 358 3 357
27 47 c15 25 45 57 65 70 38 23 40 23 438 28 377 5 402 6 434 25 68 40 91 132
48 196 -46 70 -39 69 -554 69 l-463 0 0 155 0 155 488 0 c406 0 498 -3 547
-15z m1855 -140 l0 -155 -434 0 c-522 0 -479 12 -484 -134 l-4 -96 376 0 376
0 0 -150 0 -150 -375 0 -375 0 0 -130 c0 -126 1 -132 25 -155 l24 -25 451 0
450 0 0 -155 0 -155 -599 0 -598 0 -34 23 c-18 12 -44 38 -56 56 l-23 34 0
617 0 617 23 34 c12 18 38 44 56 56 l34 23 583 0 584 0 0 -155z m630 -397 l0
-552 22 -23 21 -23 384 0 383 0 0 -155 0 -155 -533 0 -532 0 -38 25 c-20 14
-46 43 -57 65 -19 38 -20 59 -20 705 l0 665 185 0 185 0 0 -552z"/>
</g>
</svg>
