<svg viewBox="0 0 600 600">
  <path d="M240.403 190.979h119.198c-1.978 36.385-27.924 65.222-59.599 65.222-31.675 0-57.62-28.837-59.599-65.222Z" />
  <path d="M108.019 522.265s83.916-230.409 191.986-230.409c108.069 0 191.979 230.409 191.979 230.409" style="fill:none;stroke:#000;stroke-width:8.66px"/>
  <circle cx="300.002" cy="300.001" r="293.75" />
  <path d="M324.229 98.906c23.488 9.703 41.446 33.094 46.806 61.942a8.68 8.68 0 0 1 1.648-.152c5.015 0 9.085 4.07 9.085 9.085 0 5.015-4.07 9.085-9.085 9.085H227.261c-4.985-.03-9.024-4.088-9.024-9.085 0-5.015 4.07-9.085 9.085-9.085.563 0 1.114.049 1.647.152 5.36-28.848 23.318-52.239 46.806-61.942v-10.89h48.454v10.89ZM283.649 487.995s.285-35.105-8.443-40.95l-.212-.127-.097-.066c-13.337-8.371-22.204-23.204-22.204-40.09 0-26.11 21.199-47.309 47.309-47.309 26.111 0 47.309 21.199 47.309 47.309 0 16.886-8.867 31.719-22.204 40.09l-.097.066-.212.127c-8.727 5.845-8.443 40.95-8.443 40.95h-32.706ZM284.86 499.872h30.284M284.86 511.75h30.284" />
  <path d="M290.917 523.627h18.17" />
</svg>
