<svg width="47" height="736" viewBox="0 0 47 736" fill="none" xmlns="http://www.w3.org/2000/svg">
<path d="M37.7976 727.02L36.8376 726.06C36.7876 726.02 36.7376 726 36.6776 726H33.5976C33.5276 726 33.4876 726.02 33.4376 726.06L32.4776 727.02C32.4376 727.07 32.4176 727.12 32.4176 727.18V731.82C32.4176 731.88 32.4376 731.93 32.4776 731.98L33.4376 732.94C33.4876 732.98 33.5276 733 33.5976 733H36.6676C36.7376 733 36.7876 732.98 36.8276 732.94L37.7876 731.98C37.8376 731.93 37.8576 731.88 37.8576 731.82V727.18C37.8576 727.11 37.8376 727.07 37.7976 727.02ZM33.4676 726.61H36.8076C37.0576 726.61 37.2276 726.77 37.2476 727.02L33.0276 731.15V727.06C33.0276 726.79 33.2076 726.61 33.4676 726.61ZM36.8076 732.39H33.4676C33.2176 732.39 33.0476 732.23 33.0276 731.98L37.2476 727.85V731.94C37.2476 732.21 37.0676 732.39 36.8076 732.39ZM44.9363 727.02L43.9763 726.06C43.9263 726.02 43.8763 726 43.8163 726H40.7363C40.6663 726 40.6263 726.02 40.5763 726.06L39.6163 727.02C39.5763 727.07 39.5563 727.12 39.5563 727.18V731.82C39.5563 731.88 39.5763 731.93 39.6163 731.98L40.5763 732.94C40.6263 732.98 40.6663 733 40.7363 733H43.8063C43.8763 733 43.9263 732.98 43.9663 732.94L44.9263 731.98C44.9763 731.93 44.9963 731.88 44.9963 731.82V727.18C44.9963 727.11 44.9763 727.07 44.9363 727.02ZM40.6063 726.61H43.9463C44.1963 726.61 44.3663 726.77 44.3863 727.02L40.1663 731.15V727.06C40.1663 726.79 40.3463 726.61 40.6063 726.61ZM43.9463 732.39H40.6063C40.3563 732.39 40.1863 732.23 40.1663 731.98L44.3863 727.85V731.94C44.3863 732.21 44.2063 732.39 43.9463 732.39Z" fill="#AAAAAA"/>
<path d="M38.1145 611.514L37.1545 610.554C37.1045 610.514 37.0545 610.494 36.9945 610.494H33.9145C33.8445 610.494 33.8045 610.514 33.7545 610.554L32.7945 611.514C32.7545 611.564 32.7345 611.614 32.7345 611.674V616.314C32.7345 616.374 32.7545 616.424 32.7945 616.474L33.7545 617.434C33.8045 617.474 33.8445 617.494 33.9145 617.494H36.9845C37.0545 617.494 37.1045 617.474 37.1445 617.434L38.1045 616.474C38.1545 616.424 38.1745 616.374 38.1745 616.314V611.674C38.1745 611.604 38.1545 611.564 38.1145 611.514ZM33.7845 611.104H37.1245C37.3745 611.104 37.5445 611.264 37.5645 611.514L33.3445 615.644V611.554C33.3445 611.284 33.5245 611.104 33.7845 611.104ZM37.1245 616.884H33.7845C33.5345 616.884 33.3645 616.724 33.3445 616.474L37.5645 612.344V616.434C37.5645 616.704 37.3845 616.884 37.1245 616.884ZM44.9432 616.464C44.9932 616.414 45.0132 616.364 45.0132 616.304V614.834C45.0132 614.764 44.9932 614.724 44.9432 614.674L43.9832 613.714C43.9332 613.664 43.8932 613.644 43.7932 613.644H41.4732L40.1332 612.314V611.544C40.1332 611.274 40.3132 611.094 40.5832 611.094H44.9132C44.9732 611.094 45.0132 611.054 45.0132 610.994V610.584C45.0132 610.524 44.9732 610.484 44.9132 610.484H40.7032C40.6432 610.484 40.5932 610.504 40.5532 610.554L39.5932 611.514C39.5432 611.554 39.5232 611.604 39.5232 611.674V612.444C39.5232 612.504 39.5432 612.554 39.5932 612.604L41.1732 614.194C41.2132 614.244 41.2632 614.264 41.3332 614.264H43.9532C44.2232 614.264 44.3932 614.434 44.3932 614.704V616.424C44.3932 616.694 44.2232 616.874 43.9532 616.874H40.6332C40.3632 616.874 40.1932 616.694 40.1932 616.424V615.414C40.1932 615.354 40.1532 615.314 40.0932 615.314H39.6832C39.6232 615.314 39.5832 615.354 39.5832 615.414V616.304C39.5832 616.374 39.6032 616.414 39.6432 616.464L40.6032 617.424C40.6432 617.464 40.6932 617.484 40.7632 617.484H43.8232C43.8932 617.484 43.9432 617.464 43.9832 617.424L44.9432 616.464Z" fill="#AAAAAA"/>
<path d="M33.0365 486.826C32.9765 486.826 32.9365 486.866 32.9365 486.926V487.336C32.9365 487.396 32.9765 487.436 33.0365 487.436H34.4765C34.7465 487.436 34.9165 487.616 34.9165 487.886V492.656C34.9165 492.716 34.9365 492.766 34.9865 492.816L35.9465 493.776C35.9865 493.816 36.0365 493.836 36.1065 493.836H37.3765C37.4365 493.836 37.4765 493.796 37.4765 493.736V493.326C37.4765 493.266 37.4365 493.226 37.3765 493.226H35.9765C35.7065 493.226 35.5365 493.046 35.5365 492.776V488.006C35.5365 487.946 35.5165 487.896 35.4665 487.846L34.5065 486.886C34.4665 486.846 34.4165 486.826 34.3465 486.826H33.0365ZM33.0365 493.216C32.9765 493.216 32.9365 493.256 32.9365 493.316V493.736C32.9365 493.796 32.9765 493.826 33.0365 493.826H34.8165C34.8765 493.826 34.9165 493.796 34.9165 493.736V493.316C34.9165 493.256 34.8765 493.216 34.8165 493.216H33.0365ZM43.8665 487.856L42.9065 486.896C42.8565 486.856 42.8065 486.836 42.7465 486.836H39.6665C39.5965 486.836 39.5565 486.856 39.5065 486.896L38.5465 487.856C38.5065 487.906 38.4865 487.956 38.4865 488.016V492.656C38.4865 492.716 38.5065 492.766 38.5465 492.816L39.5065 493.776C39.5565 493.816 39.5965 493.836 39.6665 493.836H42.7365C42.8065 493.836 42.8565 493.816 42.8965 493.776L43.8565 492.816C43.9065 492.766 43.9265 492.716 43.9265 492.656V488.016C43.9265 487.946 43.9065 487.906 43.8665 487.856ZM39.5365 487.446H42.8765C43.1265 487.446 43.2965 487.606 43.3165 487.856L39.0965 491.986V487.896C39.0965 487.626 39.2765 487.446 39.5365 487.446ZM42.8765 493.226H39.5365C39.2865 493.226 39.1165 493.066 39.0965 492.816L43.3165 488.686V492.776C43.3165 493.046 43.1365 493.226 42.8765 493.226Z" fill="#AAAAAA"/>
<path d="M33.4027 365.828C33.3427 365.828 33.3027 365.868 33.3027 365.928V366.338C33.3027 366.398 33.3427 366.438 33.4027 366.438H34.8427C35.1127 366.438 35.2827 366.618 35.2827 366.888V371.658C35.2827 371.718 35.3027 371.768 35.3527 371.818L36.3127 372.778C36.3527 372.818 36.4027 372.838 36.4727 372.838H37.7427C37.8027 372.838 37.8427 372.798 37.8427 372.738V372.328C37.8427 372.268 37.8027 372.228 37.7427 372.228H36.3427C36.0727 372.228 35.9027 372.048 35.9027 371.778V367.008C35.9027 366.948 35.8827 366.898 35.8327 366.848L34.8727 365.888C34.8327 365.848 34.7827 365.828 34.7127 365.828H33.4027ZM33.4027 372.218C33.3427 372.218 33.3027 372.258 33.3027 372.318V372.738C33.3027 372.798 33.3427 372.828 33.4027 372.828H35.1827C35.2427 372.828 35.2827 372.798 35.2827 372.738V372.318C35.2827 372.258 35.2427 372.218 35.1827 372.218H33.4027ZM43.825 371.808C43.875 371.758 43.895 371.708 43.895 371.648V370.178C43.895 370.108 43.875 370.068 43.825 370.018L42.865 369.058C42.815 369.008 42.775 368.988 42.675 368.988H40.355L39.015 367.658V366.888C39.015 366.618 39.195 366.438 39.465 366.438H43.795C43.855 366.438 43.895 366.398 43.895 366.338V365.928C43.895 365.868 43.855 365.828 43.795 365.828H39.585C39.525 365.828 39.475 365.848 39.435 365.898L38.475 366.858C38.425 366.898 38.405 366.948 38.405 367.018V367.788C38.405 367.848 38.425 367.898 38.475 367.948L40.055 369.538C40.095 369.588 40.145 369.608 40.215 369.608H42.835C43.105 369.608 43.275 369.778 43.275 370.048V371.768C43.275 372.038 43.105 372.218 42.835 372.218H39.515C39.245 372.218 39.075 372.038 39.075 371.768V370.758C39.075 370.698 39.035 370.658 38.975 370.658H38.565C38.505 370.658 38.465 370.698 38.465 370.758V371.648C38.465 371.718 38.485 371.758 38.525 371.808L39.485 372.768C39.525 372.808 39.575 372.828 39.645 372.828H42.705C42.775 372.828 42.825 372.808 42.865 372.768L43.825 371.808Z" fill="#AAAAAA"/>
<path d="M37.8148 244.018L36.8548 243.058C36.8048 243.018 36.7548 242.998 36.6948 242.998H33.6248C33.5648 242.998 33.5148 243.018 33.4648 243.058L32.5148 244.018C32.4648 244.068 32.4448 244.108 32.4448 244.178V245.068C32.4448 245.128 32.4848 245.168 32.5448 245.168H32.9548C33.0148 245.168 33.0548 245.128 33.0548 245.068V244.058C33.0548 243.788 33.2348 243.608 33.5048 243.608H36.8148C37.0848 243.608 37.2648 243.788 37.2648 244.058V245.778C37.2648 246.048 37.0848 246.218 36.8148 246.218H34.1948C34.1248 246.218 34.0848 246.238 34.0348 246.288L32.4548 247.878C32.4148 247.928 32.3948 247.978 32.3948 248.038V248.808C32.3948 248.878 32.4148 248.928 32.4548 248.968L33.4148 249.928C33.4548 249.978 33.5048 249.998 33.5748 249.998H37.7748C37.8348 249.998 37.8748 249.958 37.8748 249.898V249.488C37.8748 249.428 37.8348 249.388 37.7748 249.388H33.4448C33.1748 249.388 33.0048 249.208 33.0048 248.938V248.168L34.3448 246.838H36.6648C36.7548 246.838 36.8048 246.818 36.8448 246.768L37.8048 245.808C37.8548 245.758 37.8748 245.718 37.8748 245.648V244.178C37.8748 244.118 37.8548 244.068 37.8148 244.018ZM44.6282 244.018L43.6682 243.058C43.6182 243.018 43.5682 242.998 43.5082 242.998H40.4282C40.3582 242.998 40.3182 243.018 40.2682 243.058L39.3082 244.018C39.2682 244.068 39.2482 244.118 39.2482 244.178V248.818C39.2482 248.878 39.2682 248.928 39.3082 248.978L40.2682 249.938C40.3182 249.978 40.3582 249.998 40.4282 249.998H43.4982C43.5682 249.998 43.6182 249.978 43.6582 249.938L44.6182 248.978C44.6682 248.928 44.6882 248.878 44.6882 248.818V244.178C44.6882 244.108 44.6682 244.068 44.6282 244.018ZM40.2982 243.608H43.6382C43.8882 243.608 44.0582 243.768 44.0782 244.018L39.8582 248.148V244.058C39.8582 243.788 40.0382 243.608 40.2982 243.608ZM43.6382 249.388H40.2982C40.0482 249.388 39.8782 249.228 39.8582 248.978L44.0782 244.848V248.938C44.0782 249.208 43.8982 249.388 43.6382 249.388Z" fill="#AAAAAA"/>
<path d="M38.1321 121.519L37.1721 120.559C37.1221 120.519 37.0721 120.499 37.0121 120.499H33.9421C33.8821 120.499 33.8321 120.519 33.7821 120.559L32.8321 121.519C32.7821 121.569 32.7621 121.609 32.7621 121.679V122.569C32.7621 122.629 32.8021 122.669 32.8621 122.669H33.2721C33.3321 122.669 33.3721 122.629 33.3721 122.569V121.559C33.3721 121.289 33.5521 121.109 33.8221 121.109H37.1321C37.4021 121.109 37.5821 121.289 37.5821 121.559V123.279C37.5821 123.549 37.4021 123.719 37.1321 123.719H34.5121C34.4421 123.719 34.4021 123.739 34.3521 123.789L32.7721 125.379C32.7321 125.429 32.7121 125.479 32.7121 125.539V126.309C32.7121 126.379 32.7321 126.429 32.7721 126.469L33.7321 127.429C33.7721 127.479 33.8221 127.499 33.8921 127.499H38.0921C38.1521 127.499 38.1921 127.459 38.1921 127.399V126.989C38.1921 126.929 38.1521 126.889 38.0921 126.889H33.7621C33.4921 126.889 33.3221 126.709 33.3221 126.439V125.669L34.6621 124.339H36.9821C37.0721 124.339 37.1221 124.319 37.1621 124.269L38.1221 123.309C38.1721 123.259 38.1921 123.219 38.1921 123.149V121.679C38.1921 121.619 38.1721 121.569 38.1321 121.519ZM44.6356 126.469C44.6856 126.419 44.7056 126.369 44.7056 126.309V124.839C44.7056 124.769 44.6856 124.729 44.6356 124.679L43.6756 123.719C43.6256 123.669 43.5856 123.649 43.4856 123.649H41.1656L39.8256 122.319V121.549C39.8256 121.279 40.0056 121.099 40.2756 121.099H44.6056C44.6656 121.099 44.7056 121.059 44.7056 120.999V120.589C44.7056 120.529 44.6656 120.489 44.6056 120.489H40.3956C40.3356 120.489 40.2856 120.509 40.2456 120.559L39.2856 121.519C39.2356 121.559 39.2156 121.609 39.2156 121.679V122.449C39.2156 122.509 39.2356 122.559 39.2856 122.609L40.8656 124.199C40.9056 124.249 40.9556 124.269 41.0256 124.269H43.6456C43.9156 124.269 44.0856 124.439 44.0856 124.709V126.429C44.0856 126.699 43.9156 126.879 43.6456 126.879H40.3256C40.0556 126.879 39.8856 126.699 39.8856 126.429V125.419C39.8856 125.359 39.8456 125.319 39.7856 125.319H39.3756C39.3156 125.319 39.2756 125.359 39.2756 125.419V126.309C39.2756 126.379 39.2956 126.419 39.3356 126.469L40.2956 127.429C40.3356 127.469 40.3856 127.489 40.4556 127.489H43.5156C43.5856 127.489 43.6356 127.469 43.6756 127.429L44.6356 126.469Z" fill="#AAAAAA"/>
<path d="M33.5562 2C33.4962 2 33.4462 2.02 33.3962 2.06L32.4462 3.02C32.3962 3.07 32.3762 3.12 32.3762 3.18V4.07C32.3762 4.13 32.4162 4.17 32.4762 4.17H32.8862C32.9462 4.17 32.9862 4.13 32.9862 4.07V3.06C32.9862 2.79 33.1662 2.61 33.4362 2.61H36.7662C37.0362 2.61 37.2062 2.79 37.2062 3.06V3.75L35.2762 5.68C35.2262 5.72 35.2262 5.78 35.2762 5.83L35.5462 6.11C35.5862 6.15 35.6562 6.14 35.6962 6.1L37.7562 4.04C37.8062 4 37.8262 3.95 37.8262 3.88V3.19C37.8262 3.12 37.8062 3.07 37.7562 3.03L36.7962 2.07C36.7562 2.02 36.7062 2 36.6362 2H33.5562ZM37.3062 5.72C37.2462 5.67 37.2062 5.69 37.2062 5.76V7.94C37.2062 8.22 37.0362 8.39 36.7662 8.39H33.4362C33.1662 8.39 32.9862 8.21 32.9862 7.94V6.93C32.9862 6.87 32.9462 6.83 32.8862 6.83H32.4762C32.4162 6.83 32.3762 6.87 32.3762 6.93V7.82C32.3762 7.88 32.3962 7.93 32.4462 7.98L33.4062 8.94C33.4462 8.98 33.4962 9 33.5662 9H36.6362C36.7062 9 36.7562 8.98 36.7962 8.94L37.7562 7.98C37.8062 7.94 37.8262 7.89 37.8262 7.82V6.34C37.8262 6.27 37.8062 6.22 37.7562 6.18L37.3062 5.72ZM44.6868 3.02L43.7268 2.06C43.6768 2.02 43.6268 2 43.5668 2H40.4868C40.4168 2 40.3768 2.02 40.3268 2.06L39.3668 3.02C39.3268 3.07 39.3068 3.12 39.3068 3.18V7.82C39.3068 7.88 39.3268 7.93 39.3668 7.98L40.3268 8.94C40.3768 8.98 40.4168 9 40.4868 9H43.5568C43.6268 9 43.6768 8.98 43.7168 8.94L44.6768 7.98C44.7268 7.93 44.7468 7.88 44.7468 7.82V3.18C44.7468 3.11 44.7268 3.07 44.6868 3.02ZM40.3568 2.61H43.6968C43.9468 2.61 44.1168 2.77 44.1368 3.02L39.9168 7.15V3.06C39.9168 2.79 40.0968 2.61 40.3568 2.61ZM43.6968 8.39H40.3568C40.1068 8.39 39.9368 8.23 39.9168 7.98L44.1368 3.85V7.94C44.1368 8.21 43.9568 8.39 43.6968 8.39Z" fill="#AAAAAA"/>
<path d="M0.971924 735.065L19.4126 735.065" stroke="#AAAAAA" stroke-width="0.5"/>
<path d="M0.971924 710.697L10.8509 710.697" stroke="#AAAAAA" stroke-width="0.5"/>
<path d="M0.971924 686.329L10.8509 686.329" stroke="#AAAAAA" stroke-width="0.5"/>
<path d="M0.971924 661.961L10.8509 661.961" stroke="#AAAAAA" stroke-width="0.5"/>
<path d="M0.971924 637.593L10.8509 637.593" stroke="#AAAAAA" stroke-width="0.5"/>
<path d="M0.971924 613.225L19.4126 613.225" stroke="#AAAAAA" stroke-width="0.5"/>
<path d="M0.971924 564.489L10.8509 564.489" stroke="#AAAAAA" stroke-width="0.5"/>
<path d="M0.971924 589L10.8509 589" stroke="#AAAAAA" stroke-width="0.5"/>
<path d="M0.971924 539.462L10.8509 539.462" stroke="#AAAAAA" stroke-width="0.5"/>
<path d="M0.971924 515.094L10.8509 515.094" stroke="#AAAAAA" stroke-width="0.5"/>
<path d="M0.971924 490.726L19.4126 490.726" stroke="#AAAAAA" stroke-width="0.5"/>
<path d="M0.971924 466.358L10.8509 466.358" stroke="#AAAAAA" stroke-width="0.5"/>
<path d="M0.971924 442L10.8509 442" stroke="#AAAAAA" stroke-width="0.5"/>
<path d="M0.971924 417.622L10.8509 417.622" stroke="#AAAAAA" stroke-width="0.5"/>
<path d="M0.971924 393.254L10.8509 393.254" stroke="#AAAAAA" stroke-width="0.5"/>
<path d="M0.971924 368.886L19.4126 368.886" stroke="#AAAAAA" stroke-width="0.5"/>
<path d="M0.971924 344.518L10.8509 344.518" stroke="#AAAAAA" stroke-width="0.5"/>
<path d="M0.971924 320.15L10.8509 320.15" stroke="#AAAAAA" stroke-width="0.5"/>
<path d="M0.971924 295.782L10.8509 295.782" stroke="#AAAAAA" stroke-width="0.5"/>
<path d="M0.971924 271.414L10.8509 271.414" stroke="#AAAAAA" stroke-width="0.5"/>
<path d="M0.971924 247.046L19.4126 247.046" stroke="#AAAAAA" stroke-width="0.5"/>
<path d="M0.971924 222.678L10.8509 222.678" stroke="#AAAAAA" stroke-width="0.5"/>
<path d="M0.971924 197.651L10.8509 197.651" stroke="#AAAAAA" stroke-width="0.5"/>
<path d="M0.971924 173.283L10.8509 173.283" stroke="#AAAAAA" stroke-width="0.5"/>
<path d="M0.971924 148.915L10.8509 148.915" stroke="#AAAAAA" stroke-width="0.5"/>
<path d="M0.971924 124.547L19.4126 124.547" stroke="#AAAAAA" stroke-width="0.5"/>
<path d="M0.971924 100.179L10.8509 100.179" stroke="#AAAAAA" stroke-width="0.5"/>
<path d="M0.971924 75.811L10.8509 75.811" stroke="#AAAAAA" stroke-width="0.5"/>
<path d="M0.971924 51.4399L10.8509 51.4399" stroke="#AAAAAA" stroke-width="0.5"/>
<path d="M0.971924 26.9998L10.8509 26.9998" stroke="#AAAAAA" stroke-width="0.5"/>
<path d="M0.971924 0.731201L19.4126 0.7312" stroke="#AAAAAA" stroke-width="0.5"/>
</svg>
