<svg width="388" height="81" viewBox="0 0 388 81" fill="none" xmlns="http://www.w3.org/2000/svg">
<g clip-path="url(#clip0)">
<path d="M51.8001 43.9999L51.6001 43.0999L53.8001 42.6999L60.8001 24.3999L62.5001 23.8999L69.9001 42.6999L72.1001 42.9999L72.0001 43.8999L68.0001 43.7999L64.2001 43.8999V42.9999L66.6001 42.5999L64.7001 37.2999H57.7001L55.8001 42.5999L58.3001 42.9999L58.2001 43.8999L54.8001 43.7999L51.8001 43.9999ZM58.2001 36.0999H64.2001L61.5001 28.6999L61.2001 27.0999L58.2001 36.0999Z" fill="white"/>
<path d="M84.0001 42.2C82.7001 43.1 80.9001 43.9 79.1001 44.4C75.7001 44.4 72.6001 41.9 72.6001 37.5C72.6001 33.4 75.1001 31.1 79.0001 30.2C82.8001 30.2 84.0001 32.6 84.0001 35.5V36.7H75.4001C75.5001 40.1 77.2001 42.2 80.1001 42.2C81.2001 42.2 82.6001 41.6 83.7001 41L84.0001 42.2ZM75.3001 35.5999L81.0001 35.4C81.0001 33.2 80.6001 31.7 78.4001 31.7C76.7001 31.8 75.6001 33.1999 75.3001 35.5999Z" fill="white"/>
<path d="M85.5999 44.0001L85.4999 43.1001L87.4999 42.8001V32.5001L85.4999 32.7001L85.3999 31.7001L88.7999 30.9001L89.8999 30.8001L89.9999 34.6001L93.1999 30.6001H95.4999V33.4001H93.2999C92.5999 33.5001 91.4999 34.4001 90.6999 35.4001L90.0999 36.0001V42.7001L92.9999 43.0001L92.8999 44.1001L88.8999 44.0001H85.5999Z" fill="white"/>
<path d="M96.3999 37.7001C96.3999 33.5001 98.8999 31.1 103.4 30.3C107.2 30.3 109.7 33.2 109.7 37.1C109.7 41.3 107.2 43.7 102.7 44.5C98.9999 44.5 96.3999 41.6 96.3999 37.7001ZM106.9 37.7001C106.9 34.1001 105.2 31.7001 102.8 31.7001C100.5 31.7001 99.3999 34.1 99.3999 37.1C99.3999 40.3 101.1 43 103.5 43C105.6 43.1 106.9 40.7001 106.9 37.7001Z" fill="white"/>
<path d="M112 43.1999L111.4 39.9999H113.2L114.1 42.3999C114.8 42.7999 115.6 43.1999 116.4 43.1999C117.7 43.1999 118.7 42.3999 118.7 40.9999C118.7 40.0999 118.3 39.6999 116.6 38.7999L114.3 37.6999C112.8 36.8999 111.9 35.7999 111.9 34.3999C111.9 32.4999 113.5 31.1999 117 30.3999C118.4 30.3999 120.1 31.0999 121.1 31.6999V34.4999H119.7L119 32.3999C118.3 31.9999 117.7 31.5999 116.9 31.5999C115.6 31.5999 114.7 32.3999 114.7 33.4999C114.7 34.2999 115.2 34.7999 116.7 35.5999L118.9 36.6999C120.8 37.5999 121.5 38.5999 121.5 40.1999C121.5 42.4999 120 43.5999 116.2 44.3999C115.1 44.4999 113.2 43.8999 112 43.1999Z" fill="white"/>
<path d="M123.4 50.5L123.3 49.6L125.3 49.3V32.4L123.3 32.6L123.2 31.7L126.6 30.9L127.8 30.8L127.9 33.2L131.5 30.5C135.2 30.5 137.2 33 137.2 37.1C137.2 41.9 134.3 44.1 130.1 44.6C129.3 44.6 128.5 44.4 127.8 44V49.5L130.7 49.8L130.6 50.7L126.5 50.6H123.4V50.5ZM134.4 37.8C134.4 34.5 133.2 32.4 131.5 32.4C130.7 32.4 129.8 32.9 128.8 33.7L128 34.4V41.5C128.7 42.4 129.8 43 131.1 43C133 43.1 134.4 41 134.4 37.8Z" fill="white"/>
<path d="M143.2 44.4999C140.7 44.4999 139.1 43.1999 139.1 40.8999C139.1 39.8999 139.5 39.0999 140 38.2999L146.4 36.1999V34.7999C146.4 33.0999 146.3 32.0999 144.7 32.0999C143.9 32.0999 143 32.3999 142.3 32.5999L141.8 34.7999H139.3V32.6999L144.4 30.3999C148 30.3999 148.8 31.2999 148.8 34.8999V40.4999C148.8 41.6999 149 42.1999 149.3 42.5999H150.7L150.8 43.4999L147.1 44.2999L146.3 42.0999L143.2 44.4999ZM145.1 41.7999L146.3 40.9999V37.2999L142.2 38.9999C141.8 39.4999 141.6 39.9999 141.6 40.5999C141.6 41.9999 142.4 42.5999 143.2 42.5999C144.1 42.4999 144.8 41.9999 145.1 41.7999Z" fill="white"/>
<path d="M151.9 37.7C151.9 33.3 155.1 31.1 158.6 30.2C159.9 30.2 161.6 30.9 162.6 31.6V34.4H160.5L159.8 32.0999C159.3 31.7999 158.9 31.6 158.2 31.6C156.3 31.6 154.8 33.7999 154.8 36.7999C154.8 39.7999 156.4 42.0999 159.1 42.0999C160.1 42.0999 161.4 41.5 162.3 40.9L162.7 41.9C161.4 42.8 160 43.5 158.1 44.2C154.6 44.5 151.9 42.1 151.9 37.7Z" fill="white"/>
<path d="M175.9 42.2C174.6 43.1 172.8 43.9 171 44.4C167.6 44.4 164.5 41.9 164.5 37.5C164.5 33.4 167 31.1 170.9 30.2C174.7 30.2 175.9 32.6 175.9 35.5V36.7H167.3C167.4 40.1 169.1 42.2 172 42.2C173.1 42.2 174.4 41.6 175.5 41L175.9 42.2ZM167.2 35.5999L172.9 35.4C172.9 33.2 172.5 31.7 170.3 31.7C168.6 31.8 167.5 33.1999 167.2 35.5999Z" fill="white"/>
<path d="M184.4 44L184.3 43.0999L186.8 42.7V25.6L184.3 25.2L184.4 24.2L188.3 24.2999L199.5 24.2L199.8 29.2999H198.9L197.3 25.6L189.8 25.5V33L193.8 32.9L194.9 30H195.8L195.5 33.5L195.8 37.2999H194.9L193.8 34.4L189.8 34.2999V42.7999L197.5 42.7L199.4 38.9H200.5L199.5 44.0999L188.3 44H184.4Z" fill="white"/>
<path d="M202 44L201.8 43.1L203.8 42.8V32.5L201.8 32.7L201.7 31.7L205.1 30.9L206.3 30.8L206.4 33.2L210.5 30.5C214.1 30.5 214.7 31.7 214.7 35.1V42.9L216.8 43.2L216.7 44.1L213.4 44L210.7 44.1L210.6 43.2L212 42.9V34.8C212 33.3 211.3 32.7 210.1 32.7C209.2 32.7 208.1 33.4 207.2 33.9L206.4 34.5V42.9L207.9 43.2L207.8 44.1L205.1 44H202Z" fill="white"/>
<path d="M217.5 47.0999V46.5999L220.6 44.2C218.6 43.4 218.5 42.5999 218.5 41.2999V41.0999L221.3 39.0999C219.5 38.3999 218.4 37.0999 218.4 35.2999C218.4 32.7999 220 31.2 223.9 30.2C225.8 30.2 227.3 30.9 228.2 31.9L229.7 30.2H231.4V32.5H229.7L228.8 33C229 33.5 229.1 33.7999 229.1 34.2999C229.1 36.6999 227.5 38.4 223.5 39.4C223.1 39.4 222.7 39.4 222.5 39.2999L221 41.0999C221 41.6999 221.4 42.0999 222.1 42.0999H227.3C229.8 42.0999 231 43.3 231 45C231 47.4 228.1 49.5999 223.8 50.7999C219.5 51 217.5 49.6999 217.5 47.0999ZM228.2 45.9C228.2 44.9 227.4 44.5 225.6 44.5H221.7C220.3 46.1 220.1 46.6 220.1 47C220.1 48.2999 221.6 49.4 224 49.4C226.4 49.4 228.2 47.8 228.2 45.9ZM226.3 35.5C226.3 34 225.7 31.6 223.4 31.6C221.9 31.6 221 32.7999 221 34.5999C221 35.8999 221.6 38.2 223.9 38.2C225.4 38.2 226.3 37.2 226.3 35.5Z" fill="white"/>
<path d="M232.6 43.9999L232.4 43.0999L234.4 42.7999V32.4999L232.4 32.5999L232.3 31.5999L235.7 30.7999L237.1 30.6999V42.8999L239.2 43.1999L239 43.9999L235.7 43.8999L232.6 43.9999ZM234.9 27.5999L234.1 27.3999L233.9 25.7999L234.2 24.4999L236.3 24.3999L237.1 24.4999L237.3 26.0999L237 27.3999L234.9 27.5999Z" fill="white"/>
<path d="M240.9 44L240.7 43.1L242.7 42.8V32.5L240.7 32.7L240.6 31.7L244 30.9L245.2 30.8L245.3 33.2L249.4 30.5C253 30.5 253.6 31.7 253.6 35.1V42.9L255.7 43.2L255.6 44.1L252.3 44L249.6 44.1L249.5 43.2L250.9 42.9V34.8C250.9 33.3 250.2 32.7 249 32.7C248.1 32.7 247 33.4 246.1 33.9L245.3 34.5V42.9L246.8 43.2L246.7 44.1L244 44H240.9Z" fill="white"/>
<path d="M268.5 42.2C267.2 43.1 265.4 43.9 263.6 44.4C260.2 44.4 257.1 41.9 257.1 37.5C257.1 33.4 259.6 31.1 263.5 30.2C267.3 30.2 268.5 32.6 268.5 35.5V36.7H259.9C260 40.1 261.7 42.2 264.6 42.2C265.7 42.2 267.1 41.6 268.2 41L268.5 42.2ZM259.8 35.5999L265.5 35.4C265.5 33.2 265 31.7 262.9 31.7C261.2 31.8 260.1 33.1999 259.8 35.5999Z" fill="white"/>
<path d="M281.8 42.2C280.5 43.1 278.7 43.9 276.9 44.4C273.5 44.4 270.4 41.9 270.4 37.5C270.4 33.4 272.9 31.1 276.8 30.2C280.6 30.2 281.8 32.6 281.8 35.5V36.7H273.2C273.3 40.1 275 42.2 277.9 42.2C279 42.2 280.3 41.6 281.5 41L281.8 42.2ZM273.1 35.5999L278.8 35.4C278.8 33.2 278.3 31.7 276.2 31.7C274.5 31.8 273.3 33.1999 273.1 35.5999Z" fill="white"/>
<path d="M283.4 44.0001L283.2 43.1001L285.2 42.8001V32.5001L283.2 32.7001L283.1 31.7001L286.5 30.9001L287.6 30.8001L287.7 34.6001L290.9 30.6001H293.2V33.4001H291.1C290.4 33.5001 289.3 34.4001 288.5 35.4001L287.9 36.1001V42.8001L290.8 43.1001L290.6 44.2001L286.5 44.1001H283.4V44.0001Z" fill="white"/>
<path d="M294.7 43.9999L294.5 43.0999L296.5 42.7999V32.4999L294.5 32.5999L294.4 31.5999L297.8 30.7999L299.2 30.6999V42.8999L301.3 43.1999L301.1 44.0999L297.8 43.9999H294.7ZM297.1 27.5999L296.3 27.3999L296.1 25.7999L296.4 24.4999L298.5 24.3999L299.3 24.4999L299.5 26.0999L299.2 27.3999L297.1 27.5999Z" fill="white"/>
<path d="M303 44L302.8 43.1L304.8 42.8V32.5L302.8 32.7L302.7 31.7L306.1 30.9L307.3 30.8L307.4 33.2L311.5 30.5C315.1 30.5 315.7 31.7 315.7 35.1V42.9L317.8 43.2L317.7 44.1L314.4 44L311.7 44.1L311.6 43.2L313 42.9V34.8C313 33.3 312.3 32.7 311.1 32.7C310.2 32.7 309.1 33.4 308.2 33.9L307.4 34.5V42.9L308.9 43.2L308.8 44.1L306.1 44H303Z" fill="white"/>
<path d="M318.4 47.0999V46.5999L321.5 44.2C319.5 43.4 319.4 42.5999 319.4 41.2999V41.0999L322.2 39.0999C320.4 38.3999 319.3 37.0999 319.3 35.2999C319.3 32.7999 320.9 31.2 324.8 30.2C326.7 30.2 328.2 30.9 329.1 31.9L330.6 30.2H332.3V32.5H330.6L329.7 33C329.9 33.5 330 33.7999 330 34.2999C330 36.6999 328.4 38.4 324.4 39.4C324 39.4 323.6 39.4 323.4 39.2999L321.9 41.0999C321.9 41.6999 322.3 42.0999 323 42.0999H328.2C330.7 42.0999 331.9 43.3 331.9 45C331.9 47.4 329 49.5999 324.7 50.7999C320.5 51 318.4 49.6999 318.4 47.0999ZM329.2 45.9C329.2 44.9 328.4 44.5 326.6 44.5H322.7C321.3 46.1 321.1 46.6 321.1 47C321.1 48.2999 322.6 49.4 325 49.4C327.3 49.3 329.2 47.8 329.2 45.9ZM327.3 35.5C327.3 34 326.7 31.6 324.4 31.6C322.9 31.6 322 32.7999 322 34.5999C322 35.8999 322.6 38.2 324.9 38.2C326.5 38.2 327.3 37.2 327.3 35.5Z" fill="white"/>
<path d="M56.3998 74.2C53.8998 74.2 52.2998 72.9 52.2998 70.6C52.2998 69.6 52.6998 68.8 53.1998 68L59.5998 65.9V64.5C59.5998 62.8 59.4998 61.8 57.8998 61.8C57.0998 61.8 56.1998 62.1 55.4998 62.3L54.9998 64.4H52.4998V62.3L57.5998 60C61.1998 60 61.9998 60.9 61.9998 64.5V70.1C61.9998 71.3 62.1998 71.8 62.4998 72.2H63.9998L64.0998 73.2L60.3998 74L59.6998 71.6L56.3998 74.2ZM58.2998 71.5L59.4998 70.7V67L55.3998 68.7C54.9998 69.1 54.7998 69.6 54.7998 70.3C54.7998 71.7 55.5998 72.3 56.3998 72.3C57.2998 72.2 58.0998 71.7 58.2998 71.5Z" fill="white"/>
<path d="M65.4998 73.6999L65.3998 72.8L67.3998 72.5V62.2L65.3998 62.4L65.2998 61.4L68.6998 60.5999L69.8998 60.5L70.0998 62.9L74.1998 60.2C77.7998 60.2 78.3998 61.4 78.3998 64.8V72.5999L80.4998 72.9L80.3998 73.8L77.0998 73.6999L74.3998 73.8L74.2998 72.9L75.6998 72.5999V64.5C75.6998 63 74.9998 62.4 73.7998 62.4C72.8998 62.4 71.7998 63.0999 70.8998 63.5999L69.9998 64.0999V72.5L71.5998 72.8L71.3998 73.6999L68.7998 73.5999L65.4998 73.6999Z" fill="white"/>
<path d="M87.6 74.1999C84 74.1999 81.8 71.4999 81.8 67.5999C81.8 62.9999 84.6 60.5999 88.7 60.0999C89.3 60.0999 90.5 60.6 91.2 60.9V55.5999H89.2L89 54.5999L92.4 53.7999L93.8 53.7V70.1999C93.8 71.2999 94 71.8 94.3 72.3H95.9L96 73.3L92.2 74L91.3 71.5999L87.6 74.1999ZM90.2 70.6999L91 70V62.5C90.3 61.7 89.4 61.4 88.2 61.4C85.9 61.4 84.5 63.5 84.5 66.8C84.5 69.9 85.7 71.8 87.4 71.8C88.2 71.9 89.2 71.5999 90.2 70.6999Z" fill="white"/>
<path d="M104 73.7L103.9 72.8L106.4 72.4V55.3L103.9 54.9L104 54L107.9 54.1L119.1 54L119.4 59.1H118.5L116.9 55.4L109.5 55.3V62.8L113.5 62.7L114.6 59.8H115.5L115.2 63.4L115.5 67.2H114.6L113.5 64.2L109.5 64.1V72.6L117.2 72.5L119.1 68.7H120.2L119.2 73.9L108 73.8H104V73.7Z" fill="white"/>
<path d="M121.6 73.6999L121.4 72.8L123.4 72.5V62.2L121.4 62.4L121.3 61.4L124.7 60.5999L125.9 60.5L126.1 62.9L130.2 60.2C133.8 60.2 134.4 61.4 134.4 64.8V72.5999L136.5 72.9L136.4 73.8L133.1 73.6999L130.4 73.8L130.3 72.9L131.7 72.5999V64.5C131.7 63 131 62.4 129.8 62.4C128.9 62.4 127.8 63.0999 126.9 63.5999L126.1 64.1999V72.5999L127.6 72.9L127.4 73.8L124.8 73.6999H121.6Z" fill="white"/>
<path d="M137 76.7999V76.2999L140.1 73.8999C138.1 73.0999 138 72.2999 138 70.9999V70.7999L140.8 68.7999C139 68.0999 137.9 66.7999 137.9 64.9999C137.9 62.5999 139.5 60.8999 143.4 59.8999C145.3 59.8999 146.8 60.5999 147.7 61.5999L149.2 59.8999H150.9V62.1999H149.2L148.3 62.6999C148.5 63.1999 148.6 63.4999 148.6 63.9999C148.6 66.3999 147 68.0999 143.1 69.0999C142.7 69.0999 142.3 69.0999 142.1 68.9999L140.6 70.7999C140.6 71.3999 141.1 71.6999 141.7 71.6999H146.9C149.4 71.6999 150.6 72.8999 150.6 74.5999C150.6 76.9999 147.7 79.1999 143.4 80.3999C139.1 80.6999 137 79.3999 137 76.7999ZM147.8 75.5999C147.8 74.5999 147 74.1999 145.2 74.1999H141.3C139.9 75.7999 139.8 76.2999 139.8 76.6999C139.8 77.9999 141.3 79.0999 143.7 79.0999C146.1 79.0999 147.8 77.4999 147.8 75.5999ZM145.9 65.2999C145.9 63.7999 145.3 61.3999 143 61.3999C141.5 61.3999 140.6 62.5999 140.6 64.3999C140.6 65.6999 141.2 67.8999 143.5 67.8999C145 67.8999 145.9 66.8999 145.9 65.2999Z" fill="white"/>
<path d="M152.2 73.7001L152.1 72.8001L154.1 72.5001V62.2001L152.1 62.3001L152 61.4001L155.4 60.6001L156.8 60.5001V72.7001L158.9 73.0001L158.8 73.9001L155.6 73.8001H152.2V73.7001ZM154.6 57.3001L153.8 57.1001L153.6 55.6001L153.9 54.3001L156 54.1001L156.8 54.3001L156.9 55.9001L156.6 57.2001L154.6 57.3001Z" fill="white"/>
<path d="M160.4 73.6999L160.3 72.8L162.3 72.5V62.2L160.3 62.4L160.2 61.4L163.6 60.5999L164.8 60.5L165 62.9L169.1 60.2C172.7 60.2 173.3 61.4 173.3 64.8V72.5999L175.4 72.9L175.3 73.8L172 73.6999L169.3 73.8L169.2 72.9L170.6 72.5999V64.5C170.6 63 169.9 62.4 168.7 62.4C167.8 62.4 166.7 63.0999 165.8 63.5999L164.9 64.1999V72.5999L166.5 72.9L166.3 73.8L163.7 73.6999H160.4Z" fill="white"/>
<path d="M188.1 72C186.8 72.9 185 73.7 183.2 74.2C179.8 74.2 176.7 71.7 176.7 67.3C176.7 63.2 179.2 60.9 183.1 60C186.9 60 188.1 62.4 188.1 65.3V66.5H179.5C179.6 69.9 181.3 72 184.2 72C185.3 72 186.6 71.4 187.7 70.8L188.1 72ZM179.4 65.4L185.1 65.2C185.1 63 184.7 61.5 182.5 61.5C180.9 61.5 179.6 62.9 179.4 65.4Z" fill="white"/>
<path d="M201.4 72C200.1 72.9 198.3 73.7 196.5 74.2C193.1 74.2 190 71.7 190 67.3C190 63.2 192.5 60.9 196.4 60C200.2 60 201.4 62.4 201.4 65.3V66.5H192.8C192.9 69.9 194.6 72 197.5 72C198.6 72 199.9 71.4 201.1 70.8L201.4 72ZM192.7 65.4L198.4 65.2C198.4 63 197.9 61.5 195.8 61.5C194.1 61.5 192.9 62.9 192.7 65.4Z" fill="white"/>
<path d="M203 73.7L202.8 72.8001L204.8 72.5V62.2001L202.8 62.4001L202.7 61.4001L206.1 60.6L207.2 60.5L207.3 64.3001L210.5 60.3H212.8V63.1H210.7C210 63.2 208.9 64.1 208.1 65.1L207.5 65.8001V72.5L210.4 72.8001L210.2 73.9001L206.1 73.8001H203V73.7Z" fill="white"/>
<path d="M214.3 73.7L214.1 72.8L216.1 72.5V62.2L214.1 62.3L214 61.4L217.4 60.6L218.8 60.5V72.7L220.9 73L220.7 73.9L217.4 73.8H214.3V73.7ZM216.7 57.3L215.9 57.1L215.7 55.5L216 54.2L218.1 54L218.9 54.2L219.1 55.8L218.8 57.1L216.7 57.3Z" fill="white"/>
<path d="M222.6 73.6999L222.4 72.8L224.4 72.5V62.2L222.4 62.4L222.3 61.4L225.7 60.5999L226.9 60.5L227 62.9L231.1 60.2C234.7 60.2 235.3 61.4 235.3 64.8V72.5999L237.4 72.9L237.3 73.8L234 73.6999L231.3 73.8L231.2 72.9L232.6 72.5999V64.5C232.6 63 231.9 62.4 230.7 62.4C229.8 62.4 228.7 63.0999 227.8 63.5999L227 64.1999V72.5999L228.5 72.9L228.4 73.8L225.7 73.6999H222.6Z" fill="white"/>
<path d="M238.1 76.7999V76.2999L241.2 73.8999C239.2 73.0999 239.1 72.2999 239.1 70.9999V70.7999L241.9 68.7999C240.1 68.0999 239 66.7999 239 64.9999C239 62.5999 240.6 60.8999 244.5 59.8999C246.4 59.8999 247.9 60.5999 248.8 61.5999L250.3 59.8999H252V62.1999H250.3L249.4 62.6999C249.6 63.1999 249.7 63.4999 249.7 63.9999C249.7 66.3999 248.1 68.0999 244.1 69.0999C243.7 69.0999 243.3 69.0999 243.1 68.9999L241.6 70.7999C241.6 71.3999 242 71.6999 242.7 71.6999H247.9C250.4 71.6999 251.6 72.8999 251.6 74.5999C251.6 76.9999 248.7 79.1999 244.4 80.3999C240.1 80.6999 238.1 79.3999 238.1 76.7999ZM248.7 75.5999C248.7 74.5999 247.9 74.1999 246.1 74.1999H242.2C240.8 75.7999 240.6 76.2999 240.6 76.6999C240.6 77.9999 242.1 79.0999 244.5 79.0999C246.9 79.0999 248.7 77.4999 248.7 75.5999ZM246.9 65.2999C246.9 63.7999 246.3 61.3999 244 61.3999C242.5 61.3999 241.6 62.5999 241.6 64.3999C241.6 65.6999 242.2 67.8999 244.5 67.8999C246.1 67.8999 246.9 66.8999 246.9 65.2999Z" fill="white"/>
<path d="M259.8 73.7L259.6 72.8L261.9 72.4V55.4L259.5 54.9L259.6 54L262.5 54.1L265.6 54L271.5 68.9L271.7 70.5L278.4 54L281.5 54.1L284.1 54L284.3 54.9L281.9 55.3V72.5L284.2 72.9L284.1 73.8L280.7 73.7L276.6 73.8L276.5 72.9L279 72.5V59.6L279.4 56.3L272.2 73.7H270.4L264.7 59.5L263.7 56.2V72.4L266.2 72.8L266 73.7L263 73.6L259.8 73.7Z" fill="white"/>
<path d="M297 72C295.7 72.9 293.9 73.7 292.1 74.2C288.7 74.2 285.6 71.7 285.6 67.3C285.6 63.2 288.1 60.9 292 60C295.8 60 297 62.4 297 65.3V66.5H288.4C288.5 69.9 290.2 72 293.1 72C294.2 72 295.6 71.4 296.7 70.8L297 72ZM288.3 65.4L294 65.2C294 63 293.5 61.5 291.4 61.5C289.7 61.5 288.6 62.9 288.3 65.4Z" fill="white"/>
<path d="M298.8 67.3999C298.8 62.9999 302.1 60.7999 305.5 59.8999C306.8 59.8999 308.5 60.5999 309.5 61.2999V64.0999H307.4L306.7 61.7999C306.2 61.4999 305.8 61.2999 305.1 61.2999C303.2 61.2999 301.7 63.4999 301.7 66.4999C301.7 69.4999 303.3 71.7999 306 71.7999C307 71.7999 308.3 71.1999 309.2 70.5999L309.7 71.5999C308.5 72.4999 307 73.1999 305.1 73.8999C301.5 74.1999 298.8 71.7999 298.8 67.3999Z" fill="white"/>
<path d="M311.2 73.7L311 72.8001L313 72.5V55.5L311 55.6L310.9 54.7001L314.3 53.9001L315.7 53.8V62.9001L319.8 60.2001C323.4 60.2001 324 61.5 324 65.1V72.6L326.1 72.9001L325.9 73.8001L322.6 73.7L320 73.8001L319.9 72.9001L321.3 72.6V64.5C321.3 63 320.6 62.4001 319.5 62.4001C318.7 62.4001 317.5 63.1 316.5 63.6L315.7 64.2V72.6L317.3 72.9001L317.1 73.8001L314.5 73.7H311.2Z" fill="white"/>
<path d="M331.8 74.2001C329.4 74.2001 327.7 72.9001 327.7 70.6001C327.7 69.6001 328.1 68.8001 328.6 68.0001L334.9 65.9001V64.5001C334.9 62.8001 334.8 61.8001 333.2 61.8001C332.4 61.8001 331.5 62.1001 330.8 62.3001L330.3 64.5001H328V62.4001L333.1 60.1001C336.7 60.1001 337.5 61.0001 337.5 64.6001V70.2001C337.5 71.4001 337.7 71.9001 338 72.3001H339.4L339.5 73.3001L335.8 74.1001L335 71.9001L331.8 74.2001ZM333.8 71.5001L335 70.7001V67.0001L330.9 68.7001C330.5 69.1001 330.3 69.6001 330.3 70.3001C330.3 71.7001 331.1 72.3001 331.9 72.3001C332.8 72.2001 333.4 71.7001 333.8 71.5001Z" fill="white"/>
<path d="M341 73.6999L340.8 72.8L342.8 72.5V62.2L340.8 62.4L340.7 61.4L344.1 60.5999L345.3 60.5L345.4 62.9L349.5 60.2C353.1 60.2 353.7 61.4 353.7 64.8V72.5999L355.8 72.9L355.7 73.8L352.4 73.6999L349.7 73.8L349.6 72.9L351 72.5999V64.5C351 63 350.3 62.4 349.1 62.4C348.2 62.4 347.1 63.0999 346.2 63.5999L345.4 64.1999V72.5999L346.9 72.9L346.8 73.8L344.1 73.6999H341Z" fill="white"/>
<path d="M357.7 73.7L357.5 72.8L359.5 72.5V62.2L357.5 62.3L357.4 61.4L360.8 60.6L362.2 60.5V72.7L364.3 73L364.1 73.9L360.8 73.8H357.7V73.7ZM360.1 57.3L359.3 57.1L359.1 55.5L359.4 54.2L361.5 54L362.3 54.2L362.5 55.8L362.2 57.1L360.1 57.3Z" fill="white"/>
<path d="M365.5 67.3999C365.5 62.9999 368.8 60.7999 372.2 59.8999C373.5 59.8999 375.2 60.5999 376.2 61.2999V64.0999H374.1L373.4 61.7999C372.9 61.4999 372.5 61.2999 371.8 61.2999C369.9 61.2999 368.4 63.4999 368.4 66.4999C368.4 69.4999 370 71.7999 372.7 71.7999C373.7 71.7999 375 71.1999 375.9 70.5999L376.4 71.5999C375.2 72.4999 373.7 73.1999 371.8 73.8999C368.2 74.1999 365.5 71.7999 365.5 67.3999Z" fill="white"/>
<path d="M378.4 72.9001L377.8 69.7001H379.6L380.5 72.1001C381.2 72.6001 382 72.9001 382.8 72.9001C384.1 72.9001 385.1 72.1001 385.1 70.7001C385.1 69.8001 384.7 69.4001 383 68.5001L380.7 67.4001C379.2 66.6001 378.3 65.5001 378.3 64.1001C378.3 62.2001 379.9 60.9001 383.4 60.1001C384.8 60.1001 386.5 60.8001 387.5 61.4001V64.2001H386L385.3 62.1001C384.6 61.6001 384 61.3001 383.2 61.3001C381.9 61.3001 381 62.1001 381 63.2001C381 64.0001 381.5 64.5001 383 65.3001L385.2 66.4001C387.1 67.3001 387.8 68.3001 387.8 69.9001C387.8 72.2001 386.3 73.3001 382.5 74.1001C381.5 74.2001 379.6 73.7001 378.4 72.9001Z" fill="white"/>
<path d="M24.9 12.7C23.9 12.5 22.9 12.4 21.9 12.4C21.4 12.4 21.1 12.4 20.6 12.5L20.4 6.59999V5.59999C20.9 5.39999 21.4 5.29999 22 5.29999C22.9 5.29999 23.9 5.39999 24.8 5.59999C25.6 5.69999 26.6 5.89999 27.5 5.89999L27.8 13.1C26.8 13 25.8 12.9 24.9 12.7ZM14.6 12.7C13.7 12.8 12.7 13 11.8 13.1L12.1 5.89999C13 5.79999 14 5.69999 14.8 5.59999C15.7 5.39999 16.7 5.29999 17.6 5.29999C18.2 5.29999 18.7 5.39999 19.2 5.59999V6.49999L18.9 12.4C18.4 12.3 18.1 12.2 17.6 12.3C16.6 12.4 15.6 12.5 14.6 12.7ZM29.9 8.49999V7.09999H29V4.79999H28.4C27.2 4.79999 26 4.59999 24.8 4.39999C23.9 4.19999 22.8 4.09999 21.8 4.09999C21 4.09999 20.4 4.19999 19.6 4.49999C18.9 4.19999 18.2 3.99999 17.4 4.09999C16.4 4.09999 15.4 4.19999 14.4 4.39999C13.3 4.59999 12 4.69999 10.8 4.79999H10.2V7.19999H9.5V8.49999H10.3V10.4H9.5V11.7H10.3V14.2H10.9C12.1 14.2 13.4 14 14.7 13.8C15.6 13.6 16.6 13.5 17.5 13.5C18.1 13.5 18.5 13.6 19.1 13.8H20.2C20.7 13.6 21.2 13.4 21.8 13.5C22.7 13.5 23.7 13.6 24.6 13.8C25.8 14 27.1 14.2 28.4 14.2H29V11.7H29.8V10.4H29V8.49999H29.9Z" fill="white"/>
<path d="M14.8 6.6001H14.6C14 6.7001 13.6 6.8001 13 6.8001V7.7001C13.7 7.6001 14.2 7.5001 14.8 7.4001V6.6001Z" fill="white"/>
<path d="M15.5 6.50005V7.40005C16.3 7.20005 17.3 7.20005 18.1 7.20005V6.30005C17.2 6.30005 16.3 6.30005 15.5 6.50005Z" fill="white"/>
<path d="M14.7998 10.8H14.5998C13.9998 10.9 13.3998 11 12.7998 11V11.9C13.4998 11.8 14.0998 11.7 14.7998 11.6V10.8Z" fill="white"/>
<path d="M15.5 10.7V11.6C16.3 11.5 17.1 11.4 18 11.4V10.6C17.1 10.5 16.2 10.6 15.5 10.7Z" fill="white"/>
<path d="M14.6001 8.6999V9.5999H14.7001C15.7001 9.3999 16.9001 9.2999 18.0001 9.2999V8.3999C16.9001 8.3999 15.7001 8.4999 14.6001 8.6999Z" fill="white"/>
<path d="M13.8999 8.80005L12.8999 8.90005V9.80005L13.9999 9.70005L13.8999 8.80005Z" fill="white"/>
<path d="M23.6999 6.40005C22.8999 6.30005 22.1999 6.30005 21.3999 6.30005V7.20005C22.1999 7.20005 22.8999 7.20005 23.5999 7.30005L23.6999 6.40005Z" fill="white"/>
<path d="M26.4998 6.9001C25.8998 6.8001 25.4998 6.7001 24.8998 6.6001H24.2998V7.5001L24.7998 7.6001C25.3998 7.7001 25.9998 7.8001 26.5998 7.9001L26.4998 6.9001Z" fill="white"/>
<path d="M23.5 8.50005C22.8 8.40005 22.2 8.40005 21.5 8.50005V9.40005C22.2 9.40005 22.8 9.40005 23.5 9.50005V8.50005Z" fill="white"/>
<path d="M26.6001 8.99995C26.0001 8.89995 25.5001 8.79995 24.9001 8.79995L24.1001 8.69995V9.59995L24.8001 9.69995C25.5001 9.79995 26.0001 9.89995 26.7001 9.99995L26.6001 8.99995Z" fill="white"/>
<path d="M24.7998 11.7C25.4998 11.8 25.9998 11.9 26.6998 12V11C26.0998 10.9 25.4998 10.8 24.8998 10.8H24.7998V11.7Z" fill="white"/>
<path d="M24.1001 10.7C23.3001 10.6 22.4001 10.5 21.6001 10.5V11.3C22.4001 11.3 23.3001 11.4 24.1001 11.5V10.7Z" fill="white"/>
<path d="M19.7998 22.4L20.9998 25.3L24.1998 25.5L21.6998 27.6L22.4998 30.7L19.7998 29L17.0998 30.7L17.8998 27.6L15.3998 25.5L18.4998 25.3L19.7998 22.4ZM19.7998 18L18.2998 21.8L17.4998 23.8L15.3998 24L11.2998 24.3L14.4998 26.9L16.0998 28.3L15.4998 30.4L14.4998 34.4L17.9998 32.2L19.7998 31.1L21.5998 32.2L25.0998 34.5L24.0998 30.4L23.6998 28.2L25.3998 26.8L28.5998 24.2L24.4998 23.9L22.2998 23.7L21.4998 21.7L19.7998 18Z" fill="white"/>
<path d="M32.5001 31.9C32.0001 32.5 31.5001 32.8 30.8001 32.9C30.9001 32.2 31.2001 31.6 31.6001 31.1C32.1001 30.6 32.6001 30.3 33.3001 30.1C33.3001 30.8 33.0001 31.4 32.5001 31.9ZM30.0001 27.9C29.9001 27.2 30.0001 26.5 30.4001 25.9C30.9001 26.4 31.2001 27 31.2001 27.7C31.3001 28.4 31.2001 29.1 30.8001 29.7C30.3001 29.2 30.1001 28.6 30.0001 27.9ZM31.4001 22.7C31.3001 22 31.3001 21.4 31.6001 20.7C32.1001 21.2 32.4001 21.8 32.5001 22.5C32.6001 23.2 32.6001 23.8 32.3001 24.5C31.9001 24 31.5001 23.4 31.4001 22.7ZM34.7001 24.2C34.8001 24.9 34.6001 25.5 34.2001 26.2C33.8001 26.8 33.4001 27.2 32.7001 27.5C32.6001 26.8 32.8001 26.1 33.2001 25.5C33.6001 25 34.0001 24.5 34.7001 24.2ZM29.6001 37.2C29.0001 37.6 28.4001 37.9 27.7001 37.9C27.9001 37.2 28.4001 36.7 28.9001 36.3C29.5001 35.9 30.1001 35.6 30.8001 35.6C30.6001 36.1 30.2001 36.7 29.6001 37.2ZM28.0001 32.7C28.1001 32 28.3001 31.4 28.8001 30.8C29.2001 31.4 29.3001 32.1 29.3001 32.8C29.2001 33.5 29.0001 34.1 28.5001 34.7C28.1001 34 28.0001 33.4 28.0001 32.7ZM26.2001 37.3C26.0001 38 25.6001 38.6 25.1001 39C24.9001 38.3 24.9001 37.7 25.1001 37C25.3001 36.3 25.7001 35.8 26.2001 35.3C26.4001 35.9 26.4001 36.7 26.2001 37.3ZM27.2001 40.3C26.8001 40.9 26.4001 41.3 25.7001 41.6C25.2001 41.8 24.8001 41.9 24.3001 41.9C24.1001 41.9 23.9001 41.9 23.6001 41.8C24.0001 41.2 24.4001 40.8 25.1001 40.5C25.9001 40.3 26.6001 40.2 27.2001 40.3ZM21.3001 40.6C21.6001 40 22.1001 39.5 22.7001 39.2C22.8001 39.9 22.6001 40.5 22.3001 41.2C22.0001 41.8 21.5001 42.3 20.9001 42.6C20.9001 41.9 21.0001 41.2 21.3001 40.6ZM13.7001 41.7C13.0001 41.4 12.6001 40.9 12.2001 40.4C12.9001 40.3 13.6001 40.4 14.2001 40.7C14.9001 41 15.3001 41.5 15.7001 42C15.0001 42 14.3001 41.9 13.7001 41.7ZM13.2001 37.3C13.0001 36.6 13.0001 36 13.2001 35.3C13.8001 35.8 14.1001 36.3 14.3001 37C14.5001 37.7 14.5001 38.3 14.3001 39C13.8001 38.6 13.4001 38 13.2001 37.3ZM16.7001 39.2C17.3001 39.5 17.8001 40 18.1001 40.6C18.4001 41.2 18.6001 41.9 18.5001 42.6C17.9001 42.3 17.4001 41.8 17.1001 41.2C16.7001 40.6 16.6001 39.9 16.7001 39.2ZM9.80013 37.2C9.20013 36.8 8.90013 36.3 8.60013 35.6C9.30013 35.6 9.90013 35.9 10.5001 36.3C11.1001 36.7 11.4001 37.2 11.7001 37.9C11.0001 37.7 10.4001 37.5 9.80013 37.2ZM10.6001 30.8C11.1001 31.4 11.3001 32 11.4001 32.7C11.5001 33.4 11.3001 34.1 10.9001 34.7C10.4001 34.1 10.2001 33.5 10.1001 32.8C10.2001 32.2 10.4001 31.5 10.6001 30.8ZM7.00013 31.9C6.50013 31.4 6.20013 30.8 6.20013 30.1C6.90013 30.2 7.40013 30.6 7.90013 31.1C8.40013 31.7 8.70013 32.3 8.70013 33C8.00013 32.8 7.40013 32.4 7.00013 31.9ZM6.70013 27.5C6.00013 27.2 5.60013 26.7 5.20013 26.2C4.80013 25.6 4.70013 24.9 4.70013 24.2C5.40013 24.5 5.80013 25 6.20013 25.5C6.60013 26.2 6.80013 26.9 6.70013 27.5ZM6.90013 22.4C7.00013 21.7 7.40013 21.1 7.80013 20.6C8.10013 21.3 8.20013 21.9 8.00013 22.6C7.90013 23.3 7.50013 23.9 7.10013 24.4C6.90013 23.9 6.80013 23.1 6.90013 22.4ZM8.30013 27.7C8.40013 27 8.70013 26.4 9.10013 25.9C9.40013 26.5 9.60013 27.2 9.50013 27.9C9.40013 28.6 9.10013 29.2 8.70013 29.7C8.30013 29.1 8.20013 28.4 8.30013 27.7ZM32.5001 28.6C33.5001 28.3 34.5001 27.6 35.0001 26.6C35.6001 25.7 35.7001 24.5 35.5001 23.5L35.4001 23L34.8001 23.2C34.2001 23.4 33.8001 23.6 33.3001 24C33.4001 23.4 33.4001 23 33.3001 22.4C33.1001 21.4 32.5001 20.3 31.6001 19.8L31.2001 19.5L31.0001 19.9C30.4001 20.8 30.2001 22 30.4001 23C30.6001 24 31.2001 25.1 32.1001 25.6C31.9001 26 31.8001 26.4 31.7001 26.7C31.4001 25.9 30.9001 25.3 30.4001 24.8L30.0001 24.5L29.7001 24.9C29.0001 25.7 28.8001 26.9 28.9001 28C29.1001 29.1 29.6001 30.1 30.4001 30.7C30.1001 31.1 29.9001 31.5 29.8001 31.8C29.7001 31 29.3001 30.3 28.9001 29.7L28.6001 29.3L28.2001 29.6C27.4001 30.4 26.9001 31.3 26.8001 32.4C26.7001 33.5 27.1001 34.6 27.7001 35.4C27.4001 35.7 27.1001 36 26.9001 36.3C27.0001 35.5 26.8001 34.8 26.4001 34L26.2001 33.5L26.1001 34C25.2001 34.6 24.5001 35.4 24.1001 36.5C23.8001 37.5 23.9001 38.7 24.4001 39.6C24.0001 39.8 23.7001 40.1 23.4001 40.4C23.6001 39.6 23.6001 38.9 23.4001 38.1L23.3001 37.6L22.8001 37.8C21.8001 38.2 20.9001 38.8 20.3001 39.8C19.7001 40.7 19.6001 41.9 19.9001 42.9L19.5001 43.4L19.0001 43.1C19.3001 42.1 19.1001 40.9 18.6001 40C18.0001 39.1 17.2001 38.3 16.1001 38H15.7001L15.6001 38.5C15.4001 39.3 15.4001 40 15.6001 40.8C15.3001 40.5 15.0001 40.2 14.7001 40C15.2001 39 15.3001 37.8 15.0001 36.8C14.7001 35.8 14.0001 34.8 13.0001 34.3L12.6001 34L12.4001 34.5C12.0001 35.2 11.9001 35.9 11.9001 36.8C11.7001 36.4 11.4001 36.1 11.1001 35.9C11.8001 35.1 12.1001 33.9 12.0001 32.9C11.9001 31.9 11.4001 30.8 10.6001 30.1L10.2001 29.8V30C9.70013 30.6 9.40013 31.3 9.30013 32.1C9.10013 31.7 8.90013 31.3 8.70013 31C9.50013 30.3 10.1001 29.3 10.2001 28.3C10.4001 27.2 10.1001 26.1 9.40013 25.2L9.10013 24.8L8.80013 25C8.20013 25.5 7.80013 26.1 7.50013 26.9C7.40013 26.5 7.30013 26.1 7.10013 25.8C7.90013 25.1 8.60013 24.2 8.80013 23.2C9.20013 22 9.00013 20.8 8.40013 19.9L8.10013 19.5L7.70013 19.8C6.90013 20.5 6.20013 21.4 6.00013 22.4C5.90013 23 5.90013 23.4 6.00013 24C5.50013 23.6 5.10013 23.4 4.60013 23.2L4.10013 23.1L4.00013 23.6C3.70013 24.6 3.90013 25.8 4.50013 26.7C5.10013 27.6 5.90013 28.3 7.00013 28.7L7.40013 28.8C7.40013 29.2 7.50013 29.5 7.70013 29.8C7.10013 29.4 6.50013 29.1 5.70013 29.1H5.20013V29.6C5.20013 30.7 5.60013 31.8 6.30013 32.6C7.10013 33.5 8.00013 33.9 9.10013 34H9.60013C9.70013 34.4 9.90013 34.7 10.1001 34.9C9.60013 34.7 9.10013 34.6 8.60013 34.6C8.40013 34.6 8.20013 34.6 8.00013 34.6L7.50013 34.7V35.1C7.70013 36.1 8.30013 37.2 9.20013 37.7C10.0001 38.3 10.8001 38.5 11.7001 38.5H12.3001L12.8001 38.4C13.0001 38.7 13.2001 39 13.5001 39.2C12.8001 39.1 12.1001 39.1 11.4001 39.4L10.9001 39.6L11.1001 40.1C11.4001 40.9 11.9001 41.6 12.7001 42.1C13.5001 42.6 14.3001 42.9 15.2001 42.9C15.7001 42.9 16.1001 42.8 16.6001 42.7L17.0001 42.6C17.7001 43.2 18.3001 43.6 19.1001 44.2C18.7001 44.5 18.3001 44.8 17.8001 45L18.6001 45.6C19.1001 45.3 19.5001 45 19.9001 44.8L21.2001 45.6L22.0001 45C21.5001 44.7 21.1001 44.4 20.7001 44.2C21.5001 43.7 22.1001 43.2 22.8001 42.6L23.2001 42.7C23.7001 42.9 24.1001 43 24.6001 42.9C25.2001 42.9 25.8001 42.8 26.4001 42.5C27.4001 42 28.2001 41.3 28.7001 40.2L28.9001 39.7L28.4001 39.5C27.7001 39.3 27.0001 39.2 26.3001 39.3C26.6001 39 26.8001 38.7 27.0001 38.5L27.5001 38.6C27.7001 38.6 27.9001 38.6 28.1001 38.6C29.1001 38.6 30.1001 38.2 30.8001 37.7C31.6001 37 32.1001 36.2 32.3001 35.2L32.4001 34.7L31.9001 34.6C31.7001 34.6 31.5001 34.6 31.3001 34.6C30.8001 34.6 30.3001 34.7 29.8001 34.9C30.0001 34.6 30.2001 34.3 30.3001 34H30.8001C31.9001 33.9 32.9001 33.4 33.6001 32.6C34.4001 31.8 34.7001 30.7 34.7001 29.6V29.1H34.2001C33.5001 29.2 32.8001 29.4 32.2001 29.8C32.3001 29.5 32.4001 29.1 32.5001 28.9V28.6Z" fill="white"/>
<path d="M32.6 38.2C31.7 39.6 30.5 40.8 29.3 42.1C26.5 44.6 23.2 46.7 19.7 48.2C16.2 46.7 12.9 44.6 10.1 42.1C8.9 41 7.7 39.6 6.8 38.2C2.3 31.7 1.7 24.1 1.7 18.2L19.6 17.3L37.5 18.2C37.6 24 37 31.7 32.6 38.2ZM2.7 2.9C6.1 2.5 13.5 1.9 19.8 1.9C26.1 1.9 33.5 2.7 36.8 3L37.7 16.1H1.9L2.7 2.9ZM39.5 1.4L38.7 1.3C32.4 0.6 26.1 0.1 19.8 0C13.5 0.1 7.1 0.6 0.8 1.3L0 1.4V16V18.1C0 24.2 0.7 32.2 5.4 39.2C6.4 40.7 7.6 42 8.8 43.3C12.1 46.2 15.8 48.8 19.7 50.8C23.7 48.7 27.3 46.3 30.6 43.3C31.9 42.1 33.1 40.8 34 39.2C38.8 32.2 39.4 24.3 39.4 18.1V17.8L39.5 1.4Z" fill="white"/>
<path d="M67.8998 16L66.0998 16.1L65.9998 15.5L66.8998 15.3V9.89995C66.8998 8.99995 66.3998 8.49995 65.6998 8.49995C64.8998 8.59995 64.2998 8.89995 63.6998 9.29995L63.0998 9.69995V15.3L64.0998 15.5L63.9998 16.2L62.1998 16L60.1998 16.1L60.0998 15.4L61.1998 15.2V3.79995L60.4998 3.89995L56.5998 3.79995V15.2L58.7998 15.5L58.6998 16.2L55.6998 16.1L52.4998 16.2L52.3998 15.5L54.6998 15.2V3.79995L51.8998 3.89995L51.0998 6.29995H50.2998V2.89995H55.6998H60.2998L62.2998 2.69995H62.9998V8.79995L65.6998 6.99995C68.1998 6.99995 68.4998 7.89995 68.4998 10.3V15.3L69.8998 15.5L69.7998 16.2L67.8998 16Z" fill="white"/>
<path d="M72.8 11.3001C72.8 13.5001 73.9 15.0001 75.9 15.0001C76.7 14.9001 77.6 14.7001 78.3 14.2001L78.6 15.0001C77.6 15.7001 76.4 16.1001 75.3 16.5001C74.7 16.5001 74.1 16.4001 73.6 16.1001C73 15.9001 72.6 15.5001 72.2 15.1001C71.8 14.6001 71.4 14.2001 71.3 13.6001C71.1 13.0001 71 12.5001 71 11.9001C71 9.1001 72.7 7.7001 75.2 7.1001C77.7 7.1001 78.5 8.7001 78.5 10.7001V11.4001H72.8V11.3001ZM76.5 10.4001C76.5 9.0001 76.2 7.9001 74.8 7.9001C73.7 7.9001 72.9 8.9001 72.7 10.5001L76.5 10.4001Z" fill="white"/>
<path d="M91.4999 3.60005L91.5999 2.90005L94.0999 3.00005L96.2999 2.90005L96.3999 3.60005L94.7999 3.80005V11.4C94.7999 13.9 93.7999 15.5 90.0999 16.4C86.3999 16.4 85.0999 14.4 85.0999 11.4V3.80005L83.3999 3.50005L83.4999 2.80005L85.9999 2.90005L88.4999 2.80005V3.60005L86.9999 3.80005V11.7C86.9999 14.1 87.9999 15.4 90.0999 15.4C92.0999 15.4 93.0999 14.1 93.0999 11.6V3.80005L91.4999 3.60005Z" fill="white"/>
<path d="M98.9 15.9999L96.7 16.0999L96.6 15.3999L97.9 15.1999V8.3999L96.6 8.4999L96.5 7.7999L98.8 7.1999L99.6 7.0999L99.7 8.6999L102.5 6.8999C104.9 6.8999 105.3 7.6999 105.3 9.9999V15.2999L106.7 15.4999L106.6 16.1999L104.4 16.0999L102.6 16.1999L102.5 15.4999L103.4 15.2999V9.9999C103.4 9.0999 102.9 8.5999 102.2 8.5999C101.4 8.6999 100.8 8.9999 100.2 9.3999L99.6 9.7999V15.3999L100.6 15.5999L100.5 16.2999L98.9 15.9999Z" fill="white"/>
<path d="M109.6 16L107.4 16.1L107.3 15.4L108.6 15.2V8.4L107.3 8.5L107.2 7.8L109.5 7.2L110.4 7.1V15.2L111.8 15.4L111.7 16.1L109.6 16ZM108.7 3.1L110 3L110.6 3.1L110.7 4.1L110.5 5L109.2 5.1L108.7 5L108.6 4L108.7 3.1Z" fill="white"/>
<path d="M117.2 14.9L119.5 8.09995L118.7 7.89995L118.8 7.19995L120.5 7.29995L122.1 7.19995L122.2 7.89995L121 8.09995L117.9 15.8L116.5 16.4L113.2 8.09995L112 7.89995L112.1 7.19995L114.3 7.29995L116.3 7.19995L116.4 7.89995L115.2 8.09995L117.3 13.7L117.2 14.9Z" fill="white"/>
<path d="M123.8 11.3001C123.8 13.5001 124.9 15.0001 126.9 15.0001C127.7 14.9001 128.6 14.7001 129.3 14.2001L129.6 15.0001C128.6 15.7001 127.4 16.1001 126.3 16.5001C125.7 16.5001 125.1 16.4001 124.6 16.1001C124 15.9001 123.6 15.5001 123.2 15.1001C122.8 14.6001 122.4 14.2001 122.3 13.6001C122.1 13.0001 122 12.5001 122 11.9001C122 9.1001 123.7 7.7001 126.2 7.1001C128.6 7.1001 129.5 8.7001 129.5 10.7001V11.4001H123.8V11.3001ZM127.6 10.4001C127.6 9.0001 127.3 7.9001 125.9 7.9001C124.8 7.9001 124 8.9001 123.8 10.5001L127.6 10.4001Z" fill="white"/>
<path d="M133.8 9.7001L136 7.1001H137.5V9.0001H136.1C135.4 9.3001 134.8 9.8001 134.3 10.3001L133.9 10.8001V15.3001L135.9 15.5001L135.8 16.3001L133.1 16.2001L131 16.3001L130.9 15.6001L132.2 15.4001V8.4001L130.9 8.5001L130.8 7.8001L133.1 7.2001L133.9 7.1001V9.7001H133.8Z" fill="white"/>
<path d="M143.4 8.3001C143 8.0001 142.5 7.9001 142 7.9001C141.2 7.9001 140.6 8.3001 140.6 9.0001C140.6 9.8001 141.1 9.9001 141.9 10.4001L143.3 11.2001C144.5 11.9001 145.1 12.5001 145.1 13.7001C145.1 15.4001 143.7 16.1001 141.5 16.5001C140.5 16.4001 139.5 16.1001 138.7 15.7001L138.3 13.5001H139.5L140.2 15.1001C140.7 15.4001 141.2 15.6001 141.7 15.6001C141.9 15.6001 142.1 15.6001 142.3 15.5001C142.5 15.4001 142.7 15.3001 142.8 15.2001C143 15.1001 143.1 14.9001 143.1 14.7001C143.2 14.5001 143.2 14.3001 143.2 14.1001C143.2 13.3001 142.8 13.1001 141.8 12.5001L140.3 11.7001C139.8 11.5001 139.5 11.2001 139.2 10.9001C138.9 10.5001 138.7 10.1001 138.7 9.6001C138.7 8.3001 139.9 7.5001 142.1 7.1001C143 7.1001 144 7.4001 144.7 7.9001V9.8001H143.7L143.4 8.3001Z" fill="white"/>
<path d="M148.6 16L146.4 16.1L146.3 15.4L147.6 15.2V8.4L146.3 8.5L146.2 7.8L148.5 7.2L149.4 7.1V15.2L150.8 15.4L150.7 16.1L148.6 16ZM147.7 3.1L149 3L149.6 3.1L149.7 4.1L149.5 5L148.2 5.1L147.7 5L147.6 4L147.7 3.1Z" fill="white"/>
<path d="M158 20.5999V18.6999H159.6L161.5 15.8999L160.7 16.0999L157.5 8.1999H154.7V13.9999C154.7 14.5999 154.9 15.0999 155.7 15.0999C156.3 14.9999 156.8 14.8999 157.4 14.4999L157.7 15.1999L155.3 16.4999C153.2 16.4999 152.9 15.6999 152.9 13.9999V8.2999H151V7.9999L151.7 7.2999H152.9V6.0999L154.1 4.8999H154.6V7.2999H160.5L160.6 7.9999L159.4 8.1999L161.5 13.7999L161.7 15.0999L164.1 8.2999L163.3 7.9999L163.4 7.2999L165.1 7.3999L166.7 7.2999L166.8 7.9999L165.6 8.1999L162.6 15.8999L160.5 20.5999H158Z" fill="white"/>
<path d="M179.1 11.5C179.1 14.3 177.4 15.9 174.5 16.4C173.9 16.4 173.4 16.3 172.8 16C172.2 15.8 171.8 15.4 171.4 15.1C171 14.8 170.7 14.2 170.6 13.6C170.4 13 170.3 12.5 170.4 11.9C170.4 9.1 172.1 7.5 175 7C175.6 7 176.1 7.1 176.7 7.4C177.3 7.6 177.7 8 178.1 8.4C178.5 8.8 178.8 9.3 178.9 9.9C179 10.4 179.1 10.9 179.1 11.5ZM174.9 15.5C176.4 15.5 177.2 14 177.2 11.9C177.2 9.5 176.1 7.9 174.4 7.9C172.7 7.9 172.1 9.4 172.1 11.5C172.1 13.6 173.2 15.5 174.9 15.5Z" fill="white"/>
<path d="M183.3 7.50005H185.7V8.30005H183.3V15.3L185.5 15.4L185.4 16.2L182.5 16.1L180.3 16.2L180.2 15.5L181.5 15.3V8.30005H179.8V8.00005L180.4 7.30005H181.5V7.20005C181.5 6.70005 181.6 6.30005 181.8 5.80005C182 5.30005 182.3 5.00005 182.6 4.60005L184.2 2.80005H186.6V4.30005H184.1L183.7 4.80005C183.3 5.50005 183.2 6.20005 183.3 7.00005V7.50005Z" fill="white"/>
<path d="M200.1 16.0999L197 15.9999L193.8 16.0999L193.7 15.3999L196 15.0999V3.7999H193.2L192.4 6.2999H191.6V2.8999L197 2.9999L202.5 2.8999V6.1999H201.7L200.8 3.7999H198V15.1999L200.2 15.4999V16.0999H200.1Z" fill="white"/>
<path d="M203.4 11.3001C203.4 13.5001 204.5 15.0001 206.5 15.0001C207.3 14.9001 208.2 14.7001 208.9 14.2001L209.2 15.0001C208.2 15.7001 207 16.1001 205.9 16.5001C205.3 16.5001 204.7 16.4001 204.2 16.1001C203.6 15.9001 203.2 15.5001 202.8 15.1001C202.4 14.6001 202 14.2001 201.9 13.6001C201.7 13.0001 201.6 12.5001 201.6 11.9001C201.6 9.1001 203.3 7.7001 205.8 7.1001C208.2 7.1001 209.1 8.7001 209.1 10.7001V11.4001H203.4V11.3001ZM207.1 10.4001C207.1 9.0001 206.8 7.9001 205.4 7.9001C204.3 7.9001 203.5 8.9001 203.3 10.5001L207.1 10.4001Z" fill="white"/>
<path d="M213.5 15.5L213.4 16.2L211.9 16.1L209.9 16.2L209.8 15.5L211.1 15.3L213.9 11.9L211.2 8.09995L210.1 7.89995L210.2 7.19995L212.4 7.29995L214.2 7.19995L214.3 7.89995L213.5 8.09995L214.9 10.2L215.1 10.7L216.8 8.19995L215.9 7.99995L216 7.29995L217.5 7.39995L219.5 7.29995L219.6 7.99995L218.3 8.19995L215.9 11.2L218.8 15.3L219.9 15.5L219.8 16.2L217.6 16.1L215.8 16.2L215.7 15.5L216.5 15.3L214.8 12.8L214.6 12.3L212.6 15.1L213.5 15.5Z" fill="white"/>
<path d="M224.2 7C226.6 7 227.2 7.6 227.2 10V13.7C227.1 14.2 227.3 14.6 227.5 15.1H228.4L228.5 15.8L226.1 16.3L225.5 14.9L223.2 16.5C221.6 16.5 220.5 15.6 220.5 14C220.5 13.3 220.8 12.8 221.2 12.3L225.4 10.9V9.9C225.4 8.8 225.3 8.1 224.3 8.1C223.7 8.1 223.3 8.2 222.7 8.5L222.4 10H220.8V8.5L224.2 7ZM225.3 11.6L222.6 12.7C222.5 12.8 222.4 13 222.3 13.2C222.2 13.4 222.2 13.6 222.2 13.8C222.2 14.7 222.8 15.1 223.3 15.1C223.8 15.1 224.1 14.9 224.5 14.6L225.3 14V11.6Z" fill="white"/>
<path d="M234.3 8.3001C233.8 8.0001 233.4 7.9001 232.9 7.9001C232.1 7.9001 231.5 8.3001 231.5 9.0001C231.5 9.8001 232 9.9001 232.8 10.4001L234.2 11.2001C235.4 11.9001 236 12.5001 236 13.7001C236 15.4001 234.6 16.1001 232.4 16.5001C231.4 16.4001 230.4 16.1001 229.6 15.7001L229.2 13.5001H230.4L231.1 15.1001C231.6 15.4001 232.1 15.6001 232.6 15.6001C232.8 15.6001 233 15.6001 233.2 15.5001C233.4 15.4001 233.6 15.3001 233.7 15.2001C233.9 15.1001 234 14.9001 234.1 14.7001C234.2 14.5001 234.2 14.3001 234.2 14.1001C234.2 13.3001 233.8 13.1001 232.8 12.5001L231.3 11.7001C230.8 11.5001 230.5 11.2001 230.2 10.9001C229.9 10.5001 229.7 10.1001 229.7 9.6001C229.7 8.3001 230.9 7.5001 233.1 7.1001C234 7.1001 235 7.4001 235.7 7.9001V9.8001H234.7L234.3 8.3001Z" fill="white"/>
<path d="M245.5 7C247.9 7 248.5 7.6 248.5 10V13.7C248.4 14.2 248.6 14.6 248.8 15.1H249.7L249.8 15.8L247.4 16.3L246.8 14.9L244.5 16.5C242.9 16.5 241.8 15.6 241.8 14C241.8 13.3 242.1 12.8 242.5 12.3L246.7 10.9V9.9C246.7 8.8 246.6 8.1 245.6 8.1C245 8.1 244.6 8.2 244 8.5L243.7 10H242.1V8.5L245.5 7ZM246.7 11.6L244 12.7C243.9 12.8 243.8 13 243.7 13.2C243.6 13.4 243.6 13.6 243.6 13.8C243.6 14.7 244.2 15.1 244.7 15.1C245.2 15.1 245.5 14.9 245.9 14.6L246.7 14V11.6Z" fill="white"/>
<path d="M249.7 8.2999V7.9999L250.4 7.2999H251.6V6.0999L252.8 4.8999H253.3V7.4999H256.1V8.2999H253.3V13.9999C253.3 14.5999 253.5 15.0999 254.3 15.0999C254.9 15.0999 255.3 14.8999 255.8 14.5999L256.1 15.2999L253.9 16.4999C251.7 16.4999 251.5 15.6999 251.5 13.9999V8.3999L249.7 8.2999Z" fill="white"/>
<path d="M264.2 11.7L263 15.2L264.6 15.5L264.5 16.2L262.2 16.1L260.2 16.2L260.1 15.5L261.6 15.3L266.3 2.99995L267.4 2.69995L272.3 15.2L273.8 15.4L273.7 16.1L271.1 16L268.6 16.1L268.5 15.4L270.1 15.1L268.8 11.6H264.2V11.7ZM266.6 5.79995L266.5 4.79995L264.4 10.8H268.5L266.6 5.79995Z" fill="white"/>
<path d="M281.8 13.7001C281.8 14.2001 281.8 14.6001 282 15.1001H282.9L283 15.8001L280.5 16.3001L279.9 14.8001L277.2 16.5001C274.7 16.5001 274.3 15.7001 274.3 13.4001V8.4001L273.1 8.5001L273 7.7001L275.3 7.2001L276.2 7.1001V13.4001C276.2 14.3001 276.6 14.8001 277.5 14.8001C278.3 14.7001 279 14.3001 279.6 13.9001L280 13.6001V8.4001L278.9 8.5001L278.8 7.7001L280.9 7.2001L281.8 7.1001V13.7001Z" fill="white"/>
<path d="M289 8.3001C288.5 8.0001 288.1 7.9001 287.6 7.9001C286.8 7.9001 286.2 8.3001 286.2 9.0001C286.2 9.8001 286.7 9.9001 287.5 10.4001L288.9 11.2001C290.2 11.9001 290.7 12.5001 290.7 13.7001C290.7 15.4001 289.3 16.1001 287.1 16.5001C286.1 16.4001 285.1 16.1001 284.3 15.7001L283.9 13.5001H285.1L285.8 15.1001C286.3 15.4001 286.8 15.6001 287.3 15.6001C287.5 15.6001 287.7 15.6001 287.9 15.5001C288.1 15.4001 288.3 15.3001 288.4 15.2001C288.6 15.1001 288.7 14.9001 288.7 14.7001C288.8 14.5001 288.8 14.3001 288.8 14.1001C288.8 13.3001 288.4 13.1001 287.4 12.5001L285.9 11.7001C285.4 11.5001 285.1 11.2001 284.8 10.9001C284.5 10.5001 284.3 10.1001 284.3 9.6001C284.3 8.3001 285.5 7.5001 287.7 7.1001C288.6 7.1001 289.6 7.4001 290.3 7.9001V9.8001H289.3L289 8.3001Z" fill="white"/>
<path d="M291.2 8.2999V7.9999L291.9 7.2999H293.1V6.0999L294.3 4.8999H294.8V7.4999H297.6V8.2999H294.8V13.9999C294.8 14.5999 295 15.0999 295.8 15.0999C296.4 15.0999 296.8 14.8999 297.3 14.5999L297.6 15.2999L295.3 16.4999C293.2 16.4999 292.9 15.6999 292.9 13.9999V8.3999L291.2 8.2999Z" fill="white"/>
<path d="M301 16L298.8 16.1L298.7 15.4L300 15.2V8.4L298.7 8.5L298.6 7.8L300.9 7.2L301.8 7.1V15.2L303.2 15.4L303.1 16.1L301 16ZM300.1 3.1L301.4 3L302 3.1L302.1 4.1L301.9 5L300.6 5.1L300.1 5L300 4L300.1 3.1Z" fill="white"/>
<path d="M306.4 15.9999L304.2 16.0999L304.1 15.3999L305.4 15.1999V8.3999L304.1 8.4999L304 7.7999L306.3 7.1999L307.1 7.0999L307.2 8.6999L310 6.8999C312.4 6.8999 312.8 7.6999 312.8 9.9999V15.2999L314.2 15.4999L314.1 16.1999L311.9 16.0999L310.1 16.1999L310 15.4999L310.9 15.2999V9.9999C310.9 9.0999 310.4 8.5999 309.7 8.5999C308.9 8.6999 308.3 8.9999 307.7 9.3999L307.1 9.7999V15.3999L308.1 15.5999L308 16.2999L306.4 15.9999Z" fill="white"/>
</g>
<defs>
<clipPath id="clip0">
<rect width="387.9" height="80.6" fill="white"/>
</clipPath>
</defs>
</svg>
