<svg id="svg" xmlns="http://www.w3.org/2000/svg" xmlns:xlink="http://www.w3.org/1999/xlink" width="400" height="143.33333333333334" viewBox="0, 0, 400,143.33333333333334"><g id="svgg"><path id="path0" d="M162.333 2.349 C 47.456 12.305,-18.723 49.608,7.763 89.476 C 39.084 136.622,219.447 158.757,321.333 127.959 C 335.949 123.541,361.333 112.882,361.333 111.162 C 361.333 110.811,360.808 110.740,360.167 111.004 C 316.897 128.806,276.919 134.962,212.333 133.768 C 36.325 130.512,-17.905 50.445,136.667 22.050 C 237.446 3.537,359.984 19.768,393.606 56.083 C 398.472 61.339,399.627 61.177,395.167 55.864 C 371.628 27.828,323.757 10.169,251.667 2.930 C 236.702 1.428,177.416 1.042,162.333 2.349 M124.543 41.167 C 123.994 41.808,117.485 54.772,110.077 69.975 C 96.189 98.479,94.195 102.000,91.945 102.000 C 90.353 102.000,89.568 103.676,90.586 104.903 C 92.044 106.659,110.951 106.009,111.210 104.194 C 111.373 103.047,110.892 102.500,109.043 101.728 C 106.089 100.493,105.829 97.144,108.095 89.500 L 109.528 84.667 118.597 84.678 L 127.667 84.689 130.598 92.366 C 133.666 100.403,133.599 101.891,130.167 101.979 C 129.075 102.007,129.092 104.303,130.191 105.215 C 131.589 106.375,159.784 105.397,160.817 104.153 C 161.657 103.140,161.476 102.930,157.122 99.871 C 156.004 99.085,151.714 90.470,143.012 71.538 C 127.402 37.573,127.490 37.719,124.543 41.167 M232.667 41.722 C 210.415 47.592,200.094 71.980,211.572 91.566 C 220.153 106.207,245.517 111.236,259.401 101.048 C 262.121 99.053,268.000 91.458,268.000 89.941 C 268.000 88.390,263.431 90.494,260.679 93.312 C 252.939 101.237,240.315 102.533,234.421 96.009 C 226.815 87.591,226.674 61.165,234.182 51.211 C 242.797 39.789,259.000 45.819,259.000 60.447 C 259.000 64.612,259.234 66.076,259.945 66.348 C 261.327 66.878,261.519 66.512,265.013 56.667 C 266.771 51.717,268.343 47.292,268.509 46.833 C 268.715 46.262,268.027 46.000,266.319 46.000 C 264.949 46.000,261.740 45.247,259.189 44.327 C 249.811 40.944,239.466 39.928,232.667 41.722 M299.667 41.651 C 278.954 46.197,268.280 64.300,274.493 84.342 C 284.039 115.135,334.219 114.047,342.339 82.871 C 348.861 57.832,326.102 35.848,299.667 41.651 M142.018 42.249 C 140.826 43.441,141.271 44.600,143.328 45.664 C 146.340 47.222,151.095 56.154,164.800 86.000 C 173.377 104.680,175.346 107.612,177.717 105.232 C 178.209 104.738,184.878 91.283,192.536 75.333 C 203.911 51.644,206.785 46.174,208.230 45.464 C 210.134 44.528,210.294 44.162,209.406 42.762 C 208.416 41.200,191.658 41.203,190.243 42.766 C 188.862 44.293,190.019 46.000,192.436 46.000 C 196.313 46.000,194.523 53.871,186.025 74.193 L 183.854 79.385 177.243 64.526 C 169.177 46.396,169.431 47.298,171.980 45.864 C 174.217 44.607,174.701 42.283,172.833 41.768 C 170.502 41.126,142.707 41.560,142.018 42.249 M311.571 46.251 C 325.082 51.896,326.283 93.583,313.132 100.448 C 306.327 104.000,299.908 100.585,297.092 91.913 C 295.375 86.627,295.169 85.084,294.958 76.000 C 294.418 52.757,300.609 41.670,311.571 46.251 M122.354 72.261 L 125.197 78.333 121.932 78.535 C 120.136 78.646,117.214 78.646,115.439 78.535 L 112.212 78.333 115.197 71.850 C 118.668 64.312,118.632 64.310,122.354 72.261 " stroke="none" fill="#ffffff" fillRule="evenodd"></path></g></svg>