<svg width="84" height="50" viewBox="0 0 84 50" fill="none" xmlns="http://www.w3.org/2000/svg">
<path d="M23.5627 18.159C23.5627 19.1879 23.6739 20.0222 23.8686 20.634C24.091 21.2458 24.3691 21.9132 24.7584 22.6362C24.8975 22.8587 24.9531 23.0812 24.9531 23.2758C24.9531 23.5539 24.7862 23.832 24.4247 24.1101L22.6728 25.278C22.4225 25.4449 22.1722 25.5283 21.9498 25.5283C21.6717 25.5283 21.3936 25.3893 21.1155 25.139C20.7262 24.7219 20.3925 24.2769 20.1144 23.832C19.8363 23.3592 19.5582 22.8309 19.2523 22.1913C17.0833 24.7497 14.358 26.0289 11.0766 26.0289C8.74067 26.0289 6.87749 25.3615 5.51487 24.0266C4.15225 22.6918 3.45703 20.9121 3.45703 18.6874C3.45703 16.3237 4.29129 14.4049 5.98762 12.9588C7.68394 11.5128 9.93644 10.7897 12.8007 10.7897C13.7462 10.7897 14.7195 10.8732 15.7484 11.0122C16.7774 11.1513 17.8341 11.3737 18.9464 11.624V9.59397C18.9464 7.48052 18.5015 6.00666 17.6394 5.14459C16.7495 4.28253 15.2479 3.8654 13.1066 3.8654C12.1333 3.8654 11.1322 3.97663 10.1033 4.22691C9.07437 4.47719 8.07326 4.78308 7.09996 5.1724C6.65502 5.36706 6.32132 5.4783 6.12666 5.53391C5.932 5.58953 5.79295 5.61734 5.68172 5.61734C5.2924 5.61734 5.09774 5.33925 5.09774 4.75527V3.39265C5.09774 2.94771 5.15336 2.61401 5.2924 2.41935C5.43144 2.22469 5.68172 2.03003 6.07104 1.83537C7.04434 1.33481 8.2123 0.917684 9.57493 0.583981C10.9375 0.222469 12.3836 0.0556172 13.9131 0.0556172C17.2223 0.0556172 19.6416 0.80645 21.1989 2.30811C22.7284 3.80978 23.507 6.09009 23.507 9.14903V18.159H23.5627ZM12.2724 22.3859C13.19 22.3859 14.1355 22.2191 15.1366 21.8854C16.1378 21.5517 17.0276 20.9399 17.7785 20.1056C18.2234 19.5773 18.5571 18.9933 18.724 18.3259C18.8908 17.6585 19.002 16.852 19.002 15.9065V14.7386C18.1956 14.5439 17.3335 14.3771 16.4437 14.2658C15.5538 14.1546 14.6917 14.099 13.8296 14.099C11.9665 14.099 10.6038 14.4605 9.68616 15.2113C8.76848 15.9621 8.32354 17.0189 8.32354 18.4093C8.32354 19.7163 8.65724 20.6896 9.35246 21.357C10.0199 22.0522 10.9932 22.3859 12.2724 22.3859ZM34.6027 25.3893C34.1021 25.3893 33.7684 25.3058 33.546 25.1112C33.3235 24.9443 33.1288 24.555 32.962 24.0266L26.4269 2.53058C26.2601 1.97441 26.1767 1.6129 26.1767 1.41824C26.1767 0.973302 26.3991 0.723024 26.8441 0.723024H29.5693C30.0977 0.723024 30.4592 0.80645 30.6539 1.00111C30.8763 1.16796 31.0432 1.55728 31.21 2.08565L35.8819 20.495L40.22 2.08565C40.3591 1.52947 40.5259 1.16796 40.7484 1.00111C40.9708 0.834258 41.3602 0.723024 41.8607 0.723024H44.0854C44.6138 0.723024 44.9753 0.80645 45.1978 1.00111C45.4202 1.16796 45.6149 1.55728 45.7261 2.08565L50.1199 20.7174L54.9308 2.08565C55.0976 1.52947 55.2923 1.16796 55.4869 1.00111C55.7094 0.834258 56.0709 0.723024 56.5715 0.723024H59.1577C59.6026 0.723024 59.8529 0.945493 59.8529 1.41824C59.8529 1.55728 59.8251 1.69633 59.7973 1.86318C59.7695 2.03003 59.7139 2.2525 59.6026 2.55839L52.9007 24.0545C52.7339 24.6106 52.5392 24.9721 52.3168 25.139C52.0943 25.3058 51.7328 25.4171 51.26 25.4171H48.8685C48.3401 25.4171 47.9786 25.3336 47.7561 25.139C47.5337 24.9443 47.339 24.5828 47.2278 24.0266L42.9174 6.09009L38.6349 23.9988C38.4959 24.555 38.329 24.9165 38.1066 25.1112C37.8841 25.3058 37.4948 25.3893 36.9942 25.3893H34.6027ZM70.3367 26.1401C68.8907 26.1401 67.4446 25.9732 66.0542 25.6395C64.6638 25.3058 63.5793 24.9443 62.8562 24.5272C62.4113 24.2769 62.1054 23.9988 61.9942 23.7486C61.8829 23.4983 61.8273 23.2202 61.8273 22.9699V21.5517C61.8273 20.9677 62.0498 20.6896 62.4669 20.6896C62.6338 20.6896 62.8006 20.7174 62.9675 20.773C63.1343 20.8287 63.3846 20.9399 63.6627 21.0511C64.6082 21.4683 65.6371 21.802 66.7216 22.0244C67.834 22.2469 68.9185 22.3581 70.0308 22.3581C71.7828 22.3581 73.1454 22.0522 74.0909 21.4404C75.0364 20.8287 75.5369 19.9388 75.5369 18.7986C75.5369 18.02 75.2867 17.3804 74.7861 16.852C74.2856 16.3237 73.3401 15.8509 71.9774 15.406L67.9452 14.1546C65.9152 13.515 64.4135 12.5695 63.4958 11.3181C62.5781 10.0945 62.1054 8.7319 62.1054 7.28586C62.1054 6.1179 62.3557 5.08898 62.8562 4.1991C63.3568 3.30923 64.0242 2.53058 64.8584 1.91879C65.6927 1.2792 66.6382 0.80645 67.7505 0.472746C68.8629 0.139043 70.0308 0 71.2544 0C71.8662 0 72.5058 0.0278086 73.1176 0.111234C73.7572 0.19466 74.3412 0.305895 74.9252 0.417129C75.4813 0.556172 76.0097 0.695215 76.5103 0.862067C77.0108 1.02892 77.4001 1.19577 77.6782 1.36262C78.0675 1.58509 78.3456 1.80756 78.5125 2.05784C78.6793 2.28031 78.7627 2.5862 78.7627 2.97552V4.28253C78.7627 4.86651 78.5403 5.1724 78.1232 5.1724C77.9007 5.1724 77.5392 5.06117 77.0664 4.8387C75.4813 4.11567 73.7016 3.75416 71.7272 3.75416C70.1421 3.75416 68.8907 4.00444 68.0286 4.5328C67.1666 5.06117 66.7216 5.86762 66.7216 7.00777C66.7216 7.78641 66.9997 8.45382 67.5559 8.98218C68.1121 9.51055 69.141 10.0389 70.6148 10.5117L74.5637 11.763C76.5659 12.4026 78.0119 13.2925 78.874 14.4327C79.7361 15.5728 80.1532 16.8798 80.1532 18.3259C80.1532 19.5216 79.9029 20.6062 79.4302 21.5517C78.9296 22.4972 78.2622 23.3314 77.4001 23.9988C76.5381 24.6941 75.5091 25.1946 74.3134 25.5561C73.062 25.9454 71.755 26.1401 70.3367 26.1401Z" fill="white"/>
<path fillRule="evenodd" clip-rule="evenodd" d="M75.5927 39.6549C66.4437 46.4124 53.1512 49.9997 41.7218 49.9997C25.7041 49.9997 11.2714 44.0765 0.370415 34.2322C-0.491652 33.4536 0.28699 32.3969 1.31591 33.0086C13.1068 39.8496 27.6507 43.993 42.6951 43.993C52.8453 43.993 63.9965 41.8796 74.2579 37.5414C75.7874 36.8462 77.0944 38.5426 75.5927 39.6549Z" fill="white"/>
<path fillRule="evenodd" clip-rule="evenodd" d="M79.4003 35.3175C78.2324 33.8159 71.6695 34.5945 68.694 34.956C67.8041 35.0672 67.6651 34.2886 68.4715 33.7046C73.6996 30.0339 82.2924 31.0906 83.2935 32.3142C84.2946 33.5656 83.0154 42.1584 78.1211 46.2741C77.3703 46.9137 76.6473 46.58 76.981 45.7457C78.0933 42.9927 80.5683 36.7914 79.4003 35.3175Z" fill="white"/>
</svg>
