<svg width="139" height="52" viewBox="0 0 139 52" fill="none" xmlns="http://www.w3.org/2000/svg">
<path d="M19.3844 0V52L5.46229 41.9332V6.64168H0V0H19.3844Z" fill="white"/>
<path d="M26.7915 52.0001L40.4488 41.9333V12.4552L22.7476 12.4365V19.2868L26.7915 19.3055V52.0001Z" fill="white"/>
<path d="M130.821 36.7239V51.15H127.915V39.0063H126.197V36.7239H130.821Z" fill="white"/>
<path d="M139 36.7239V51.15H136.094V39.0063H134.376V36.7239H139Z" fill="white"/>
<path d="M54.4966 40.8091C54.5628 39.6757 54.629 38.1873 54.629 36.6647V17.6208H57.6138V27.8963H57.6769C58.7265 26.0498 60.791 24.7545 63.7759 24.7545C68.1886 24.7545 71.2491 28.1547 71.2491 32.7538C71.2491 38.3586 67.2178 41.2077 63.3157 41.2077C60.8257 41.2077 58.6603 40.3327 57.2829 38.0659H57.2198L57.0875 40.8185L54.4966 40.8091ZM57.6138 34.2702C57.6134 34.6284 57.6461 34.9859 57.7116 35.3382C58.0489 36.377 58.7154 37.2811 59.6127 37.9169C60.5101 38.5528 61.5906 38.8866 62.6947 38.8692C66.0705 38.8692 68.2012 36.537 68.2012 32.8472C68.2012 29.7054 66.2659 27.0494 62.824 27.0494C61.6875 27.0365 60.5787 27.3962 59.6713 28.0724C58.7639 28.7485 58.109 29.7028 57.8093 30.7859C57.6677 31.1858 57.6014 31.6079 57.6138 32.0314V34.2702Z" fill="white"/>
<path d="M84.9855 40.8091L84.7207 38.7353H84.623C83.7058 39.9808 81.7705 41.1983 79.2143 41.1983C75.64 41.1983 74.001 38.8007 74.001 36.6958C74.001 32.9406 77.5091 30.736 84.4591 30.8014V30.543C84.4591 29.5403 84.1628 26.8843 80.494 26.9154C78.855 26.9154 77.0836 27.37 75.8701 28.1796L75.183 26.2366C76.6896 25.3025 78.7888 24.7451 80.9195 24.7451C86.3282 24.7451 87.4408 28.4381 87.4408 31.4491V36.9885C87.4198 38.2671 87.5083 39.5452 87.7056 40.8091H84.9855ZM84.5253 32.844C80.7871 32.7444 77.052 33.4263 77.052 36.3066C77.052 38.1219 78.3633 39.028 80.0023 39.028C80.921 39.0571 81.8275 38.8133 82.6046 38.3282C83.3817 37.8431 83.9936 37.1388 84.3614 36.3066C84.4602 36.0258 84.5154 35.7318 84.5253 35.4347V32.844Z" fill="white"/>
<path d="M92.2915 37.798C93.5795 38.5691 95.0475 38.9981 96.5529 39.0435C98.8821 39.0435 99.8655 37.9755 99.8655 36.6802C99.8655 35.2541 98.92 34.5753 96.6191 33.8778C93.505 32.9436 92.0645 31.3525 92.0645 29.4406C92.0645 26.9154 94.1952 24.7451 97.9303 24.7451C99.4082 24.7157 100.868 25.0735 102.16 25.782L101.438 27.9211C100.343 27.2615 99.0841 26.9135 97.801 26.9154C95.9635 26.9154 94.9643 27.8869 94.9643 29.1199C94.9643 30.4775 96.0801 31.0629 98.3085 31.7729C101.356 32.707 102.768 34.0739 102.768 36.4684C102.768 39.0933 100.562 41.1983 96.4646 41.1983C94.7535 41.2132 93.0649 40.8122 91.5476 40.0306L92.2915 37.798Z" fill="white"/>
<path d="M108.65 33.5884C108.716 37.1163 111.37 38.8818 114.639 38.8818C117 38.8818 118.421 38.4957 119.622 38.01L120.145 40.1149C118.27 40.8564 116.264 41.2195 114.245 41.1829C109.035 41.1829 105.788 37.9446 105.788 33.249C105.788 28.6188 108.836 24.7297 113.952 24.7297C119.754 24.7297 121.129 29.5903 121.129 32.2775C121.15 32.7132 121.107 33.1497 120.999 33.5728L108.65 33.5884ZM118.254 31.4835C118.254 30.1228 117.624 26.8129 113.731 26.8129C110.355 26.8129 108.946 29.5343 108.688 31.4835H118.254Z" fill="white"/>
</svg>
