<svg width="189" height="35" viewBox="0 0 189 35" fill="none" xmlns="http://www.w3.org/2000/svg">
<path d="M49.6529 25.2771C49.6529 27.4432 48.7294 28.4691 46.8826 28.4691C45.0358 28.4691 44.1123 27.4431 44.1123 25.2771V2.93243H38.9181V25.163C38.9181 30.2931 41.9192 33.0292 46.8826 33.0292C51.846 33.0292 54.8471 30.179 54.8471 25.163V2.93243H49.6529V25.2771ZM14.7942 16.9548C17.3336 15.9288 18.3724 13.3067 18.3724 10.6847C18.3724 5.6685 15.9485 2.81856 10.408 2.81856H2.67432V32.4589H10.8698C16.7567 32.4589 18.9498 28.8107 18.9498 23.9086C18.9498 20.1466 17.3338 18.0944 14.7944 16.9544L14.7942 16.9548ZM7.86851 7.03653H9.8308C12.1394 7.03653 13.1782 8.40456 13.1782 11.2547C13.1782 13.7628 11.6777 15.0168 9.71527 15.0168H7.75298L7.86851 7.03653ZM9.94621 28.3553H7.86851V19.235H9.48451C12.6011 19.235 13.7554 20.717 13.7554 23.795C13.7554 26.759 12.7166 28.355 9.94637 28.355L9.94621 28.3553ZM64.6593 19.4629H71.3542V15.0168H64.6593V7.3786H73.3165V2.93243H59.4652V32.5728H73.8936V28.1266H64.6593V19.4629ZM28.3005 2.93243H23.2216V32.5728H36.4957V28.1266H28.4158V2.93126L28.3005 2.93243ZM159.774 32.5728H164.968V2.93243H159.774V32.5728ZM147.423 2.4751C141.997 2.4751 139.458 5.8953 139.458 10.1133V25.3898C139.458 29.608 141.998 33.028 147.423 33.028C147.423 33.028 150.308 32.914 152.502 31.2039L155.272 33.028V25.2757V17.6376H146.961V21.6276H150.655V25.2757V25.3897C150.655 28.6958 147.769 28.5817 147.769 28.5817H147.423C145.345 28.5817 144.652 27.5557 144.652 25.2756V10.2273C144.652 8.06121 145.345 6.92117 147.423 6.92117C149.5 6.92117 150.193 7.9472 150.193 10.2273V12.5073H155.387V10.1133C155.387 5.89513 152.848 2.47517 147.423 2.47517L147.423 2.4751ZM95.9414 2.4751C90.5162 2.4751 88.0923 5.8953 88.0923 10.1133V25.3898C88.0923 29.608 90.6317 33.028 96.0567 33.028C101.482 33.028 104.021 29.6078 104.021 25.3898V10.1133C103.906 5.89506 101.366 2.4751 95.9412 2.4751H95.9414ZM98.7117 25.2757C98.7117 27.4418 98.0191 28.5818 95.9414 28.5818C93.8637 28.5818 93.1712 27.5558 93.1712 25.2757V10.2274C93.1712 8.06131 93.8637 6.92126 95.9414 6.92126C98.0191 6.92126 98.7117 7.9473 98.7117 10.2274V25.2757ZM181.588 2.93103V20.4875L174.547 2.93103H169.93V32.5714H174.547V15.0149L181.588 32.5714H186.205V2.93103H181.588ZM129.531 32.5714H134.725V2.93103H129.531V32.5714ZM124.336 11.5947C124.336 5.21046 121.451 2.81646 115.564 2.81646H108.292V32.4568H113.486V20.3725C114.409 20.3725 115.448 20.3725 116.141 20.2585L119.834 32.5708H125.029L120.642 19.1184C122.489 18.3204 124.336 16.3823 124.336 11.5941L124.336 11.5947ZM115.448 16.1547H113.602V7.03443H115.448C118.219 7.03443 119.257 8.06047 119.257 11.5945C119.257 15.1285 118.219 16.1545 115.448 16.1545V16.1547Z" fill="white"/>
</svg>
