<svg width="215" height="50" viewBox="0 0 215 50" fill="none" xmlns="http://www.w3.org/2000/svg">
<path d="M33.75 30.2C35.4603 26.5276 35.7967 22.3636 34.698 18.4643C33.5993 14.565 31.1385 11.1892 27.7625 8.94995C30.475 6.16245 33.4125 3.39995 36.5125 0.762451C32.8958 2.91262 29.4632 5.35847 26.25 8.07495C22.762 6.25615 18.7494 5.70912 14.9018 6.52785C11.0543 7.34659 7.61207 9.47997 5.16681 12.5613C2.72155 15.6427 1.42597 19.4796 1.50274 23.4125C1.57951 27.3455 3.02384 31.1289 5.58749 34.1125C2.34999 41.125 1.83749 46.7499 4.63749 48.6499C7.69999 50.6874 14.35 46.9874 18.3875 40.9749C18.3875 40.9749 12.2125 46.5374 8.82499 45.2624C6.73749 44.4749 6.73749 41.275 8.44999 36.7C11.6946 39.0803 15.6812 40.2267 19.6947 39.9335C23.7081 39.6403 27.4858 37.9266 30.35 35.1L30.95 36.2249C38.325 35.6249 60.3375 35.0375 60.3375 35.0375C60.2875 34 45.7125 35 33.75 30.2ZM3.52499 23.0625C3.52765 20.571 4.15502 18.12 5.3497 15.9336C6.54438 13.7473 8.26824 11.8954 10.3636 10.5474C12.4589 9.19948 14.8588 8.39845 17.3437 8.21763C19.8285 8.03682 22.3191 8.482 24.5875 9.51245C17.2806 15.9036 11.1798 23.554 6.57499 32.1C4.59051 29.5057 3.51833 26.3287 3.52499 23.0625V23.0625ZM18.4125 37.95C15.0701 37.9563 11.8237 36.8331 9.19999 34.7624C12.15 28.1124 18.15 19.1875 26.3375 10.4625C29.413 12.399 31.6738 15.3938 32.6939 18.8821C33.7139 22.3705 33.4226 26.1115 31.875 29.4C29.2909 28.2402 26.9038 26.6839 24.8 24.7875L29.2875 33.2125C27.8981 34.7076 26.2152 35.9001 24.344 36.7152C22.4728 37.5304 20.4535 37.9507 18.4125 37.95V37.95Z" fill="white"/>
<path d="M134.7 21.5125L137.45 17.85H127.85L130.213 14.7125H139.825L142.588 11.05H123.413L110.225 28.55H129.4L132.15 24.8875H122.55L125.088 21.5125H134.7Z" fill="white"/>
<path d="M148.012 11.05L134.825 28.55H144.4L157.575 11.05H148.012Z" fill="white"/>
<path d="M179.888 11.05L173.2 19.925L171.15 11.05H163.675L150.488 28.55H156.813L163.438 19.7625L165.475 28.55H173.025L186.213 11.05H179.888Z" fill="white"/>
<path d="M211.163 11.0499H195.788C194.539 11.0485 193.307 11.3381 192.189 11.8957C191.072 12.4533 190.1 13.2637 189.35 14.2624L181.413 24.7999C181.103 25.2055 180.936 25.7021 180.938 26.2124C180.938 26.8335 181.183 27.4294 181.621 27.8697C182.059 28.3101 182.654 28.5591 183.275 28.5624H198.65C199.901 28.5649 201.135 28.2758 202.255 27.7182C203.374 27.1605 204.348 26.3497 205.1 25.3499L207.013 22.8499H209.238L212.013 19.0999H200.238L196.488 24.0374C196.293 24.2978 196.04 24.5092 195.749 24.6546C195.458 24.8 195.138 24.8754 194.813 24.8749H192.1C191.938 24.8749 191.782 24.8104 191.667 24.6955C191.552 24.5807 191.488 24.4249 191.488 24.2624C191.486 24.1309 191.531 24.0029 191.613 23.8999L197.863 15.5249C198.057 15.2638 198.309 15.052 198.6 14.9065C198.891 14.761 199.212 14.686 199.538 14.6874H202.25C202.33 14.6874 202.41 14.7033 202.484 14.7341C202.559 14.7648 202.626 14.81 202.683 14.8668C202.74 14.9237 202.785 14.9912 202.816 15.0655C202.847 15.1399 202.863 15.2195 202.863 15.2999C202.859 15.4307 202.815 15.5573 202.738 15.6624L201.713 17.0249H211.263L212.95 14.7749C213.214 14.4274 213.375 14.0129 213.415 13.5786C213.455 13.1442 213.373 12.7072 213.178 12.317C212.983 11.9269 212.683 11.5991 212.311 11.3707C211.939 11.1424 211.511 11.0226 211.075 11.0249L211.163 11.0499Z" fill="white"/>
<path d="M115.563 13.4C115.563 12.7801 115.316 12.1855 114.878 11.7472C114.44 11.3088 113.845 11.0625 113.225 11.0625H97.8501C96.5993 11.0601 95.3651 11.3492 94.2455 11.9068C93.1259 12.4644 92.1517 13.2753 91.4001 14.275L83.4626 24.8125C83.2038 25.1613 83.0468 25.575 83.0089 26.0077C82.9711 26.4404 83.0539 26.875 83.2481 27.2635C83.4423 27.652 83.7404 27.979 84.1092 28.2083C84.4781 28.4376 84.9033 28.5602 85.3376 28.5625H100.713C101.963 28.5649 103.197 28.2759 104.317 27.7182C105.437 27.1606 106.411 26.3498 107.163 25.35L115.1 14.8125C115.405 14.405 115.567 13.9088 115.563 13.4V13.4ZM104.875 15.6875L98.6251 24.05C98.4311 24.3111 98.1784 24.523 97.8874 24.6685C97.5965 24.814 97.2754 24.889 96.9501 24.8875H94.1876C94.0749 24.8864 93.9647 24.8542 93.8691 24.7944C93.7735 24.7347 93.6963 24.6498 93.6459 24.549C93.5955 24.4482 93.5739 24.3354 93.5835 24.2231C93.593 24.1108 93.6334 24.0034 93.7001 23.9125L99.9501 15.5375C100.146 15.2785 100.399 15.0683 100.69 14.923C100.98 14.7778 101.3 14.7015 101.625 14.7H104.338C104.5 14.7 104.656 14.7645 104.771 14.8794C104.886 14.9943 104.95 15.1501 104.95 15.3125C104.947 15.4433 104.903 15.5699 104.825 15.675L104.875 15.6875Z" fill="white"/>
<path d="M79.3999 20.2251C81.2579 19.8038 82.9059 18.7361 84.0499 17.2126L85.8749 14.8001C86.1385 14.4525 86.2996 14.0381 86.3399 13.6037C86.3802 13.1694 86.2982 12.7324 86.1031 12.3422C85.9081 11.952 85.6077 11.6242 85.236 11.3959C84.8643 11.1675 84.4361 11.0477 83.9999 11.0501H64.5999L51.4124 28.5501H71.4874C72.7381 28.5525 73.9723 28.2634 75.0919 27.7058C76.2115 27.1482 77.1857 26.3373 77.9374 25.3376L79.7999 22.8376C80.0458 22.5143 80.1776 22.1187 80.1749 21.7126C80.1744 21.4185 80.1052 21.1286 79.9728 20.866C79.8404 20.6034 79.6485 20.3754 79.4124 20.2001L79.3999 20.2251ZM70.5249 22.5001L69.3374 24.0751C69.1427 24.3355 68.8898 24.5468 68.599 24.6922C68.3082 24.8376 67.9875 24.9131 67.6624 24.9126H63.7499L66.2499 21.5376H69.9999C70.1623 21.5376 70.3181 21.6021 70.433 21.717C70.5478 21.8318 70.6124 21.9876 70.6124 22.1501C70.6124 22.2815 70.5684 22.4091 70.4874 22.5126L70.5249 22.5001ZM75.6499 15.7001L74.6374 17.0376C74.4407 17.295 74.1872 17.5034 73.8966 17.6465C73.606 17.7896 73.2863 17.8636 72.9624 17.8626H69.0499L71.4124 14.7251H75.1624C75.2428 14.7251 75.3224 14.7409 75.3967 14.7717C75.4711 14.8025 75.5386 14.8476 75.5955 14.9045C75.6523 14.9614 75.6975 15.0289 75.7282 15.1032C75.759 15.1775 75.7749 15.2571 75.7749 15.3376C75.7714 15.4684 75.7277 15.5949 75.6499 15.7001V15.7001Z" fill="white"/>
</svg>
