<svg width="421" height="50" viewBox="0 0 421 50" fill="none" xmlns="http://www.w3.org/2000/svg">
<g clip-path="url(#clip0)">
<path d="M24.4 12.5C23.4 12.3 22.4 12.2 21.4 12.2C21 12.2 20.5 12.2 20.1 12.3L20 6.49999V5.49999C20.5 5.29999 21 5.19999 21.6 5.29999C22.5 5.29999 23.5 5.39999 24.4 5.59999C25.3 5.69999 26.2 5.89999 27.1 5.89999L27.4 12.9C26.3 12.7 25.4 12.6 24.4 12.5ZM14.4 12.5C13.5 12.6 12.5 12.8 11.6 12.8L11.8 5.79999C12.7 5.69999 13.7 5.59999 14.5 5.49999C15.4 5.29999 16.3 5.19999 17.3 5.19999C17.8 5.19999 18.4 5.29999 18.9 5.39999V6.39999L18.6 12.2C18.2 12.1 17.7 12.1 17.3 12.1C16.3 12.2 15.3 12.3 14.4 12.5ZM29.3 8.29999V6.99999H28.5V4.69999H27.9C26.7 4.69999 25.6 4.59999 24.4 4.39999C23.4 4.19999 22.5 4.09999 21.5 4.09999C20.8 4.09999 20.1 4.19999 19.4 4.49999C18.8 4.19999 18 3.99999 17.3 4.09999C16.3 4.09999 15.3 4.19999 14.4 4.39999C13.2 4.59999 12.1 4.69999 10.9 4.69999H10.3V6.99999H9.5V8.29999H10.3V10.1H9.5V11.4H10.3V14H10.9C12.1 14 13.4 13.8 14.6 13.6C15.5 13.4 16.4 13.3 17.4 13.3C17.9 13.3 18.5 13.4 18.9 13.6H20C20.5 13.4 21 13.3 21.5 13.3C22.4 13.3 23.4 13.4 24.3 13.6C25.5 13.8 26.8 13.9 28 14H28.6V11.5H29.4V10.2H28.6V8.29999H29.3Z" fill="white"/>
<path d="M14.5 6.5H14.3C13.8 6.6 13.2 6.7 12.7 6.7V7.6C13.3 7.5 13.9 7.5 14.5 7.4V6.5V6.5Z" fill="white"/>
<path d="M15.2 6.39995V7.29995C16 7.19995 16.9 7.09995 17.8 7.09995V6.19995C16.9 6.19995 16 6.19995 15.2 6.39995Z" fill="white"/>
<path d="M14.5001 10.6001H14.3001C13.7001 10.7001 13.1001 10.8001 12.6001 10.8001V11.7001C13.2001 11.6001 13.9001 11.5001 14.5001 11.5001V10.6001V10.6001Z" fill="white"/>
<path d="M15.2 10.5V11.4C16 11.3 16.8 11.2 17.6 11.2V10.3C16.8 10.3 15.9 10.3 15.2 10.5Z" fill="white"/>
<path d="M14.3999 8.49997V9.39997H14.4999C15.5999 9.19997 16.5999 9.09997 17.6999 9.09997V8.29997C16.5999 8.19997 15.3999 8.29997 14.3999 8.49997Z" fill="white"/>
<path d="M13.7 8.6001L12.7 8.7001V9.6001L13.8 9.5001L13.7 8.6001Z" fill="white"/>
<path d="M23.2 6.29995C22.5 6.19995 21.7 6.19995 21 6.19995V7.09995C21.7 7.09995 22.4 7.09995 23.2 7.19995V6.29995Z" fill="white"/>
<path d="M26 6.7C25.5 6.6 25 6.6 24.4 6.5H23.8V7.4L24.2001 7.5C24.8001 7.6 25.4 7.7 26 7.7V6.7Z" fill="white"/>
<path d="M23.0001 8.3001C22.4001 8.2001 21.7001 8.2001 21.1001 8.3001V9.2001C21.7001 9.2001 22.4001 9.2001 23.0001 9.3001V8.3001Z" fill="white"/>
<path d="M26.1001 8.8C25.5001 8.7 25.0001 8.7 24.4001 8.6L23.6001 8.5V9.4L24.2001 9.5C24.8001 9.6 25.4001 9.7 26.1001 9.7V8.8Z" fill="white"/>
<path d="M24.3 11.5001C24.9 11.6001 25.5001 11.7001 26.2001 11.7001V10.8001C25.6001 10.7001 25 10.7001 24.5 10.6001H24.4L24.3 11.5001Z" fill="white"/>
<path d="M23.7 10.5C22.9 10.4 22 10.3 21.2 10.3V11.2C22 11.2 22.9 11.2 23.7 11.4V10.5Z" fill="white"/>
<path d="M19.4001 21.9L20.6001 24.8L23.7001 25L21.3001 27L22.1001 30L19.5001 28.3L16.9001 30L17.7001 27L15.3001 25L18.4001 24.8L19.4001 21.9ZM19.5001 17.3L17.9001 21.3L17.0001 23.2001L15.0001 23.3L10.6001 23.6L14.0001 26.4L15.5001 27.7001L15.0001 29.7001L14.0001 33.9001L17.7001 31.6L19.4001 30.5L21.1001 31.6L24.8001 34L23.7001 29.7001L23.2001 27.8L24.8001 26.5L28.2001 23.7001L23.8001 23.4L21.8001 23.3L21.1001 21.4L19.5001 17.3Z" fill="white"/>
<path d="M31.9 31.3C31.5 31.8 30.9 32.2 30.2 32.4C30.3 31.7 30.6 31.1 31 30.6C31.5 30.1 32 29.8 32.7 29.6C32.6 30.2 32.4 30.9 31.9 31.3ZM29.5 27.4C29.4 26.7 29.5 26.1 29.8 25.5C30.2 26 30.5 26.6 30.6 27.3C30.7 28 30.6 28.6 30.3 29.2C29.8 28.7 29.6 28 29.5 27.4ZM30.8 22.3C30.7 21.6 30.8 21 31 20.3C31.5 20.8 31.8 21.4 31.9 22C32 22.7 32 23.3 31.7 23.9C31.3 23.6 30.9 22.9 30.8 22.3ZM34 23.8C34 24.5 33.9 25.1 33.5 25.7C33.2 26.3 32.7 26.8 32.1 27C32 26.3 32.2 25.7 32.5 25.1C32.9 24.5 33.4 24.1 34 23.8ZM29.1 36.4C28.6 36.8 27.9 37 27.2 37C27.4 36.4 27.8 35.8 28.4 35.4C28.9 35 29.6 34.8 30.3 34.8C30 35.5 29.6 36 29.1 36.4ZM27.5 32.1C27.5 31.4 27.8 30.8 28.2 30.3C28.5 30.9 28.7 31.6 28.6 32.2C28.5 32.9 28.3 33.5 27.9 34C27.6 33.4 27.5 32.7 27.5 32.1ZM25.8 36.6C25.6 37.2 25.2 37.8 24.7 38.2C24.5 37.6 24.5 36.9 24.7 36.2C24.9 35.6 25.3 35 25.8 34.6C25.9 35.3 25.9 36 25.8 36.6ZM26.8 39.6C26.4 40.2 25.9 40.6 25.3 40.9C24.9 41.1 24.4 41.2 23.9 41.2C23.7 41.2 23.5 41.2 23.3 41.1C23.7 40.5 24.2 40.1 24.8 39.8C25.4 39.5 26.1 39.4 26.8 39.6ZM21 39.8C21.3 39.2 21.8 38.7 22.4 38.4C22.5 39.1 22.3 39.7 22 40.3C21.7 40.9 21.2 41.4 20.6 41.7C20.5 41.1 20.6 40.4 21 39.8ZM13.4 40.9C12.8 40.6 12.3 40.2 11.9 39.6C12.6 39.5 13.2 39.6 13.9 39.8C14.5 40.1 15 40.5 15.4 41.1C14.7 41.2 14 41.1 13.4 40.9ZM13 36.6C12.8 36 12.8 35.3 13 34.6C13.5 35 13.9 35.6 14.1 36.2C14.3 36.8 14.3 37.5 14.1 38.2C13.5 37.8 13.1 37.3 13 36.6ZM16.3 38.5C16.9 38.8 17.4 39.3 17.7 39.9C18 40.5 18.2 41.2 18.1 41.8C17.5 41.5 17 41 16.7 40.4C16.4 39.8 16.3 39.1 16.3 38.5ZM9.60001 36.4C9.10001 36 8.6 35.5 8.4 34.8C9.1 34.8 9.7 35 10.3 35.4C10.8 35.8 11.3 36.3 11.5 37C10.8 37.1 10.2 36.8 9.60001 36.4ZM10.5 30.3C10.9 30.8 11.2 31.5 11.2 32.1C11.2 32.8 11.1 33.4 10.8 34C10.4 33.5 10.1 32.8 10.1 32.2C10 31.5 10.1 30.9 10.5 30.3ZM6.8 31.3C6.3 30.8 6.1 30.2 6 29.5C6.7 29.6 7.2 30 7.7 30.5C8.2 31 8.5 31.7 8.5 32.3C7.9 32.2 7.3 31.8 6.8 31.3ZM6.6 27C6 26.7 5.5 26.2 5.1 25.7C4.8 25.1 4.6 24.4 4.7 23.8C5.3 24.1 5.8 24.6 6.2 25.1C6.5 25.7 6.6 26.4 6.6 27ZM6.8 22.1C6.9 21.4 7.2 20.8 7.7 20.4C8 21 8 21.7 7.9 22.4C7.8 23.1 7.5 23.5 7 24C6.7 23.4 6.6 22.7 6.8 22.1ZM8.10001 27.2C8.20001 26.5 8.5 25.9 8.9 25.4C9.2 26 9.3 26.7 9.2 27.3C9.1 28 8.8 28.6 8.4 29.1C8.1 28.6 8.00001 27.9 8.10001 27.2ZM31.9 28.1C32.9 27.8 33.8 27.1 34.4 26.2C34.9 25.3 35.1 24.2 34.9 23.2L34.8 22.7L34.3 22.8C33.8 23 33.3 23.2 32.9 23.5C33 23 33 22.4 32.9 21.9C32.7 20.8 32.1 19.9 31.2 19.3L30.7 19L30.5 19.4C29.9 20.3 29.7 21.4 29.9 22.5C30.1 23.6 30.7 24.5 31.6 25.1C31.4 25.5 31.3 25.8 31.3 26.2C31 25.5 30.6 24.8 30 24.4L29.6 24.1L29.3 24.5C28.7 25.4 28.4 26.5 28.5 27.5C28.6 28.6 29.2 29.5 30 30.2C29.8 30.5 29.6 30.9 29.4 31.3C29.3 30.5 29 29.8 28.5 29.2L28.2 28.8L28 29.2C27.2 29.9 26.7 30.9 26.6 32C26.5 33.1 26.8 34.1 27.5 35C27.2 35.3 26.9 35.6 26.7 35.9C26.7 35.1 26.6 34.4 26.3 33.7L26.1 33.3L25.7 33.5C24.8 34 24.1 34.9 23.8 36C23.5 37 23.6 38.1 24.1 39.1C23.7 39.3 23.4 39.6 23.1 39.9C23.3 39.2 23.3 38.4 23.1 37.7L23 37.2L22.5 37.4C21.5 37.7 20.7 38.4 20.1 39.4C19.6 40.3 19.4 41.4 19.7 42.4L19.3 42.7L18.9 42.4C19.1 41.4 19 40.3 18.5 39.4C18 38.5 17.1 37.8 16.1 37.4H15.8L15.7 37.9C15.5 38.6 15.5 39.4 15.7 40.1C15.4 39.8 15.1 39.6 14.8 39.3C15.3 38.3 15.4 37.2 15 36.2C14.7 35.2 14 34.3 13.1 33.7L12.7 33.5L12.5 33.9C12.2 34.6 12 35.3 12.1 36.1C11.9 35.8 11.6 35.4 11.3 35.2C12 34.4 12.3 33.3 12.2 32.2C12 31 11.5 30 10.7 29.3L10.4 29L10.1 29.4C9.60001 30 9.3 30.7 9.2 31.5C9 31 8.80001 30.6 8.60001 30.3C9.40001 29.6 10 28.6 10.1 27.6C10.2 26.5 10 25.5 9.3 24.6L9 24.2L8.60001 24.5C8.00001 25 7.6 25.6 7.3 26.3C7.2 25.9 7.1 25.5 7 25.2C7.9 24.6 8.5 23.6 8.7 22.6C8.9 21.5 8.8 20.4 8.2 19.5L8 19L7.6 19.3C6.7 19.9 6.1 20.9 5.9 21.9C5.8 22.4 5.8 23 5.9 23.5C5.5 23.2 5 22.9 4.5 22.8L4 22.6L3.9 23.1C3.7 24.1 3.8 25.3 4.4 26.2C4.9 27.1 5.8 27.8 6.9 28.1L7.3 28.2C7.3 28.5 7.4 28.9 7.5 29.2C6.9 28.8 6.3 28.6 5.6 28.5H5.1V29C5.1 30.1 5.5 31.1 6.2 31.9C6.9 32.7 7.9 33.2 9 33.3H9.4C9.5 33.6 9.7 33.9 9.9 34.2C9.4 34 8.9 33.9 8.4 33.9C8.2 33.9 8 33.9 7.9 33.9L7.3 34L7.4 34.5C7.6 35.6 8.20001 36.5 9.10001 37.1C9.80001 37.6 10.7 37.9 11.6 37.9H12.1L12.5 37.8C12.7 38.1 12.9 38.4 13.1 38.6C12.4 38.5 11.7 38.5 11 38.8L10.7 39L10.9 39.4C11.2 40.2 11.8 40.9 12.5 41.3C13.2 41.8 14 42 14.9 42C15.4 42 15.8 41.9 16.3 41.8L16.6 41.7C17.3 42.2 17.9 42.8 18.6 43.2C18.2 43.5 17.8 43.7 17.3 44.1L18.1 44.6C18.6 44.3 19 44 19.4 43.8L20.7 44.6L21.5 44.1C21 43.8 20.6 43.5 20.2 43.2C20.9 42.7 21.6 42.2 22.2 41.7L22.5 41.8C23 42 23.5 42 23.9 42C24.5 42 25.1 41.9 25.6 41.6C26.6 41.2 27.4 40.4 27.8 39.4L28 39L27.5 38.8C26.8 38.6 26.2 38.5 25.5 38.6C25.7 38.4 26 38.1 26.1 37.8L26.5 37.9C26.7 37.9 26.9 37.9 27 37.9C28 37.9 28.9 37.6 29.7 36.9C30.5 36.3 31 35.4 31.2 34.4L31.3 33.9L30.8 33.8C30.6 33.8 30.4 33.8 30.3 33.8C29.8 33.8 29.3 33.9 28.8 34.1C29 33.8 29.1 33.5 29.3 33.2H29.7C30.8 33.1 31.8 32.6 32.5 31.8C33.2 31 33.6 30 33.6 28.9V28.4H33.1C32.4 28.5 31.7 28.7 31.2 29C31.3 28.7 31.4 28.4 31.4 28L31.9 28.1Z" fill="white"/>
<path d="M32 37.5C31.1 38.9 30 40.1 28.8 41.3C26 43.8 22.8 45.8 19.4 47.3C15.9 45.8 12.8 43.8 10 41.3C8.8 40.2 7.7 38.9 6.8 37.5C2.4 31.1 1.8 23.6 1.8 17.9L19.4 16.9L37 17.9C37 23.6 36.4 31.1 32 37.5ZM2.7 2.9C6 2.5 13.3 1.9 19.4 1.9C25.5 1.9 32.8 2.6 36.1 3L37 15.8H1.9L2.7 2.9ZM38.8 1.4L38 1.3C31.9 0.6 25.7 0.1 19.4 0C13.2 0.1 7 0.6 0.8 1.3L0 1.4V15.8V17.8C0 23.8 0.6 31.7 5.3 38.5C6.3 39.9 7.4 41.3 8.7 42.5C11.9 45.4 15.5 47.9 19.4 49.9C23.3 47.9 26.9 45.4 30.1 42.5C31.4 41.3 32.5 40 33.5 38.5C38.2 31.7 38.8 23.8 38.8 17.8V17.5V1.4Z" fill="white"/>
<path d="M69.0999 37.5999L68.4 41.5999C66.3 42.5999 64 43.3 61.7 43.7C56.5 43.7 51.7 40.2 51.7 33.7C51.7 27.2 56 24.1 62.2 23.2C64.6 23.3 66.9 24 68.8 25.4V29.1H67.3L66.4 26.5C65.8 25.9 65.1 25.4 64.3 25.1C63.5 24.8 62.6999 24.6 61.7999 24.6C57.6999 24.6 54.9 27.5 54.9 32.9C54.9 37.4 57.7 42 62.5 42C63.9 42 65.1999 41.4 66.1999 40.5L67.6999 37.4H69.0999V37.5999Z" fill="white"/>
<path d="M84.1001 36.4001C84.1001 40.5001 81.6001 42.9 77.3001 43.6C73.6001 43.6 71.1001 40.7 71.1001 37C71.1001 32.8 73.6001 30.5 77.9001 29.8C81.6001 29.8 84.1001 32.6001 84.1001 36.4001ZM77.9001 42.3C80.1001 42.3 81.3001 40 81.3001 37C81.3001 33.5 79.6001 31.1 77.2001 31.1C75.0001 31.1 73.8001 33.4001 73.8001 36.4001C73.8001 39.6001 75.5001 42.3 77.9001 42.3Z" fill="white"/>
<path d="M93.8 31.7001C93.3 31.4001 92.8 31.2 92.2 31.3C90.3 31.3 88.9 33.4001 88.9 36.4001C88.9 39.4001 90.5 41.6 93.2 41.6C94.3 41.5 95.4 41.1001 96.3 40.4001L96.7 41.5C95.3 42.5 93.8 43.2001 92.2 43.7001C88.7 43.7001 86 41.4 86 37.1C86 32.8 89.2 30.6 92.6 29.8C94 29.8 95.3 30.3001 96.4 31.2001V34H94.4L93.8 31.7001Z" fill="white"/>
<path d="M109.5 43.1999L107.8 43.2999L102.7 36.8999L102.4 36.1999V41.9999L103.9 42.2999L103.8 43.1999L101.2 43.0999L98 43.1999L97.9 42.2999L99.8 41.9999V25.2999L97.9 25.3999L97.8 24.3999L101.1 23.4999L102.5 23.3999V35.6999L103.3 35.3999L107.8 31.4999L107 31.1999V30.2999L109.3 30.3999L111.4 30.2999L111.5 31.1999L110 31.4999L104.8 35.6999L105.4 36.0999L110.8 42.0999L112 42.3999L111.9 43.2999L109.5 43.1999Z" fill="white"/>
<path d="M117.4 33.7999L120.6 29.8999H122.8V32.6999H120.7C119.7 33.0999 118.8 33.7999 118.1 34.6999L117.5 35.3999V41.9999L120.4 42.2999L120.3 43.3999L116.3 43.2999L113.2 43.3999L113.1 42.4999L115 41.9999V31.8999L113.1 32.0999L113 31.0999L116.3 30.1999L117.4 30.0999V33.7999Z" fill="white"/>
<path d="M126.5 36.1C126.5 39.3 128.2 41.5 131.1 41.5C132.3 41.4 133.5 41 134.6 40.3L135 41.4001C133.5 42.4001 131.9 43.1 130.1 43.6C126.7 43.6 123.7 41.2001 123.7 36.9001C123.7 32.8001 126.2 30.6 130 29.8C133.7 29.8 134.9 32.1 134.9 35V36.2001H126.5V36.1ZM132.1 34.8C132.1 32.7 131.7 31.2001 129.5 31.2001C127.8 31.2001 126.7 32.8 126.5 35.1L132.1 34.8Z" fill="white"/>
<path d="M139.4 43.1999L136.2 43.2999L136.1 42.3999L138 41.9999V25.2999L136.1 25.3999L136 24.3999L139.3 23.4999L140.7 23.3999V41.9999L142.8 42.2999L142.7 43.1999H139.4Z" fill="white"/>
<path d="M146.9 43.1999L143.7 43.2999L143.6 42.3999L145.5 42.0999V25.2999L143.6 25.3999L143.5 24.3999L146.8 23.4999L148.2 23.3999V41.9999L150.3 42.2999L150.2 43.1999H146.9Z" fill="white"/>
<path d="M161.3 40.4001C161.8 41.0001 162.4 41.4001 163.1 41.7001C163.8 42.0001 164.5 42.2001 165.2 42.2001C167.6 42.2001 169 40.7001 169 38.7001C169 36.7001 167.8 35.7 166.1 35L162.7 33.5C160.7 32.6 159.1 31.4 159.1 28.9C159.1 25.9 161.9 24.1 165.7 23.3C167.5 23.3 169.3 23.9 170.8 25V28.7001H169.4L168.6 26.2001C168.2 25.7001 167.7 25.4001 167.1 25.2001C166.5 25.0001 165.9 24.9 165.3 24.9C163.1 24.9 161.8 26.1 161.8 27.9C161.8 29.4 162.9 30.4 164.4 31L167.6 32.4001C169.8 33.3001 171.7 34.7 171.7 37.6C171.7 40.2 169.9 42.7 164.7 43.8C162.6 43.9 160.6 43.2 159 42L158.4 38.3H160.3L161.3 40.4001Z" fill="white"/>
<path d="M181.3 31.7001C180.8 31.4001 180.3 31.2 179.7 31.3C177.8 31.3 176.4 33.4001 176.4 36.4001C176.4 39.4001 178 41.6 180.7 41.6C181.8 41.5 182.9 41.1001 183.8 40.4001L184.2 41.5C182.8 42.5 181.3 43.2001 179.7 43.7001C176.1 43.7001 173.5 41.4 173.5 37.1C173.5 32.8 176.7 30.6 180.1 29.8C181.5 29.8 182.8 30.3001 183.9 31.2001V34H182L181.3 31.7001Z" fill="white"/>
<path d="M190.1 42L191.6 42.3L191.5 43.2L188.9 43.1L185.7 43.2L185.6 42.3L187.5 42V25.3L185.6 25.4L185.5 24.5L188.8 23.6L190.2 23.5V32.5L194.3 29.9C197.9 29.9 198.4 31.2 198.4 34.8V42L200.5 42.3L200.4 43.2L197.2 43.1L194.6 43.2L194.5 42.3L195.9 42V34C195.9 32.6 195.2 31.9 194.1 31.9C193 32.1 192 32.5 191.2 33.2L190.4 33.7V42H190.1Z" fill="white"/>
<path d="M214 36.4001C214 40.5001 211.5 42.9 207.2 43.6C203.5 43.6 201 40.7 201 37C201 32.8 203.5 30.5 207.8 29.8C211.5 29.8 214 32.6001 214 36.4001ZM207.9 42.3C210.1 42.3 211.3 40 211.3 37C211.3 33.5 209.6 31.1 207.2 31.1C205 31.1 203.8 33.4001 203.8 36.4001C203.8 39.6001 205.4 42.3 207.9 42.3Z" fill="white"/>
<path d="M228.9 36.4001C228.9 40.5001 226.4 42.9 222.1 43.6C218.4 43.6 215.9 40.7 215.9 37C215.9 32.8 218.4 30.5 222.7 29.8C226.4 29.8 228.9 32.6001 228.9 36.4001ZM222.7 42.3C224.9 42.3 226.1 40 226.1 37C226.1 33.5 224.4 31.1 222 31.1C219.8 31.1 218.6 33.4001 218.6 36.4001C218.6 39.6001 220.3 42.3 222.7 42.3Z" fill="white"/>
<path d="M233.2 43.1999L230 43.2999L229.9 42.3999L231.8 42.0999V25.2999L229.9 25.3999L229.8 24.3999L233.1 23.4999L234.5 23.3999V41.9999L236.6 42.2999L236.5 43.1999H233.2Z" fill="white"/>
<path d="M257.6 36.4001C257.6 40.5001 255.1 42.9 250.8 43.6C247.1 43.6 244.6 40.7 244.6 37C244.6 32.8 247.1 30.5 251.4 29.8C255.1 29.8 257.6 32.6001 257.6 36.4001ZM251.4 42.3C253.6 42.3 254.8 40 254.8 37C254.8 33.5 253.1 31.1 250.7 31.1C248.5 31.1 247.3 33.4001 247.3 36.4001C247.3 39.6001 249 42.3 251.4 42.3Z" fill="white"/>
<path d="M263.8 30.5001H267.3V31.8001H263.8V42.0001L267 42.2001L266.9 43.3001L262.6 43.2001L259.4 43.3001L259.3 42.4001L261.2 42.1001V31.8001H258.8V31.3001L259.6 30.4001H261.2V30.1001C261.2 29.4001 261.3 28.7001 261.6 28.0001C261.9 27.3001 262.3 26.7001 262.8 26.2001L265.1 23.6001H268.6V25.8001H265L264.5 26.5001C264.1 27.0001 263.9 27.8001 263.9 29.6001V30.5001H263.8Z" fill="white"/>
<path d="M291.5 23.7999L291.8 28.7999H290.9L289.3 25.2L281.9 25.1V32.5L285.8 32.4L286.9 29.5H287.9L287.6 33L287.9 36.7H286.9L285.8 33.7999L281.9 33.7V42L289.5 41.9L291.4 38.2H292.5L291.5 43.2999L280.5 43.2L276.7 43.2999L276.6 42.4L279 42V25.1L276.5 24.7L276.6 23.7L280.4 23.7999H291.5Z" fill="white"/>
<path d="M297 43.2L293.8 43.2999L293.7 42.4L295.6 42.0999V31.9L293.7 32.0999L293.6 31.1L296.9 30.2L298.1 30.1L298.2 32.4L302.3 29.7C305.9 29.7 306.4 30.9 306.4 34.2V42L308.5 42.2999L308.4 43.2L305.2 43.0999L302.5 43.2L302.4 42.2999L303.8 42V34.0999C303.8 32.6999 303.2 32 301.9 32C300.8 32.1 299.9 32.5999 299 33.2999L298.2 33.9V42L299.7 42.2999L299.6 43.2H297Z" fill="white"/>
<path d="M319.2 31.4L320.7 29.7H322.4V32H320.7L319.8 32.4C320 32.8 320.1 33.3 320.1 33.7C320.1 36.1 318.5 37.7 314.7 38.7C314.3 38.7 314 38.7 313.6 38.6L312.1 40.3C312.1 40.4 312.1 40.6 312.2 40.7C312.3 40.8 312.3 40.9 312.4 41C312.5 41.1 312.6 41.2 312.8 41.2C312.9 41.2 313.1 41.2 313.2 41.2H318.3C320.8 41.2 321.9 42.4 321.9 44.1C321.9 46.4 319 48.6 314.8 49.8C310.8 49.8 308.7 48.6 308.7 46V45.5L311.7 43.2C309.8 42.5 309.6 41.6 309.6 40.3V40.1L312.4 38.2C311.6 38 310.9 37.5 310.3 36.8C309.8 36.1 309.5 35.3 309.5 34.5C309.5 32.1 311.1 30.5 314.9 29.5C315.7 29.5 316.5 29.6 317.2 29.9C318 30.4 318.7 30.8 319.2 31.4ZM312.7 43.6C311.3 45.2 311.2 45.7 311.2 46C311.2 47.3 312.7 48.3 315 48.3C317.3 48.3 319.2 46.8 319.2 45C319.2 44 318.4 43.6 316.6 43.6H312.7ZM314.5 31C313 31 312.1 32.2 312.1 33.9C312.1 35.2 312.7 37.4 315 37.4C316.5 37.4 317.4 36.4 317.4 34.8C317.5 33.4 316.9 31 314.5 31Z" fill="white"/>
<path d="M326.8 43.2L323.6 43.3L323.5 42.4L325.4 42.1V31.9L323.5 32.1L323.4 31.1L326.7 30.2L328.1 30.1V42L330.2 42.3L330.1 43.2H326.8ZM325.4 24.1L327.4 24L328.2 24.1L328.3 25.7L328 27L326 27.2L325.2 27L325 25.4L325.4 24.1Z" fill="white"/>
<path d="M334.6 43.2L331.4 43.2999L331.3 42.4L333.2 42.0999V31.9L331.3 32.0999L331.2 31.1L334.5 30.2L335.7 30.1L335.8 32.4L339.9 29.7C343.5 29.7 344 30.9 344 34.2V42L346.1 42.2999L346 43.2L342.8 43.0999L340.1 43.2L340 42.2999L341.4 42V34.0999C341.4 32.6999 340.8 32 339.5 32C338.4 32.1 337.4 32.5999 336.6 33.2999L335.8 33.9V42L337.3 42.2999L337.2 43.2H334.6Z" fill="white"/>
<path d="M349.2 36.1C349.2 39.3 350.9 41.5 353.8 41.5C355 41.4 356.2 41 357.3 40.3L357.7 41.4001C356.2 42.4001 354.6 43.1 352.8 43.6C349.4 43.6 346.4 41.2001 346.4 36.9001C346.4 32.8001 348.9 30.6 352.7 29.8C356.4 29.8 357.6 32.1 357.6 35V36.2001H349.2V36.1ZM354.8 34.8C354.8 32.7 354.4 31.2001 352.2 31.2001C350.5 31.2001 349.4 32.8 349.2 35.1L354.8 34.8Z" fill="white"/>
<path d="M362.3 36.1C362.3 39.3 364 41.5 366.9 41.5C368.1 41.4 369.3 41 370.4 40.3L370.8 41.4001C369.3 42.4001 367.7 43.1 365.9 43.6C362.5 43.6 359.5 41.2001 359.5 36.9001C359.5 32.8001 362 30.6 365.8 29.8C369.5 29.8 370.7 32.1 370.7 35V36.2001H362.3V36.1ZM367.8 34.8C367.8 32.7 367.4 31.2001 365.2 31.2001C363.5 31.2001 362.4 32.8 362.2 35.1L367.8 34.8Z" fill="white"/>
<path d="M376.7 33.7999L379.9 29.8999H382.1V32.6999H380C379 33.0999 378.1 33.7999 377.4 34.6999L376.8 35.3999V41.9999L379.7 42.2999L379.6 43.3999L375.6 43.2999L372.5 43.3999L372.4 42.4999L374.3 42.1999V31.8999L372.4 32.0999L372.3 31.0999L375.6 30.1999L376.7 30.0999V33.7999Z" fill="white"/>
<path d="M386.9 43.2L383.7 43.3L383.6 42.4L385.5 42.1V31.9L383.6 32.1L383.5 31.1L386.8 30.2L388.2 30.1V42L390.3 42.3L390.2 43.2H386.9ZM385.5 24.1L387.5 24L388.3 24.1L388.4 25.7L388.1 27L386.1 27.2L385.3 27L385.1 25.4L385.5 24.1Z" fill="white"/>
<path d="M394.7 43.2L391.5 43.2999L391.4 42.4L393.3 42.0999V31.9L391.4 32.0999L391.3 31.1L394.6 30.2L395.8 30.1L395.9 32.4L400 29.7C403.6 29.7 404.1 30.9 404.1 34.2V42L406.2 42.2999L406.1 43.2L402.9 43.0999L400.2 43.2L400.1 42.2999L401.5 42V34.0999C401.5 32.6999 400.9 32 399.6 32C398.5 32.1 397.5 32.5999 396.7 33.2999L395.9 33.9V42L397.4 42.2999L397.3 43.2H394.7Z" fill="white"/>
<path d="M417 31.4L418.5 29.7H420.2V32H418.5L417.6 32.4C417.8 32.8 417.9 33.3 417.9 33.7C417.9 36.1 416.3 37.7 412.5 38.7C412.1 38.7 411.8 38.7 411.4 38.6L409.9 40.3C409.9 40.4 409.9 40.6 410 40.7C410 40.8 410.1 41 410.2 41C410.3 41.1 410.4 41.2 410.6 41.2C410.7 41.2 410.9 41.3 411 41.2H416.1C418.6 41.2 419.7 42.4 419.7 44.1C419.7 46.4 416.8 48.6 412.6 49.8C408.6 49.8 406.5 48.6 406.5 46V45.5L409.5 43.2C407.6 42.5 407.4 41.6 407.4 40.3V40.1L410.2 38.2C409.4 38 408.7 37.5 408.1 36.8C407.6 36.1 407.3 35.3 407.3 34.5C407.3 32.1 408.9 30.5 412.7 29.5C413.5 29.5 414.3 29.6 415 29.9C415.8 30.4 416.5 30.8 417 31.4ZM410.6 43.6C409.2 45.2 409.1 45.7 409.1 46C409.1 47.3 410.6 48.3 412.9 48.3C415.2 48.3 417.1 46.8 417.1 45C417.1 44 416.4 43.6 414.5 43.6H410.6ZM412.4 31C410.9 31 410 32.2 410 33.9C410 35.2 410.6 37.4 412.9 37.4C414.4 37.4 415.3 36.4 415.3 34.8C415.3 33.4 414.7 31 412.4 31Z" fill="white"/>
<path d="M66.5999 15.8001L64.8999 15.9001L64.7999 15.3001L65.6999 15.1001V9.7001C65.6999 8.8001 65.2999 8.3001 64.4999 8.3001C63.7999 8.4001 63.0999 8.7001 62.4999 9.1001L61.9999 9.5001V15.0001L62.9999 15.2001L62.8999 15.8001L61.0999 15.7001L59.1999 15.8001L59.0999 15.2001L60.1999 15.0001V3.7001L59.4999 3.8001L55.6999 3.7001V14.9001L57.7999 15.1001L57.6999 15.7001L54.6999 15.6001L51.5999 15.7001L51.4999 15.1001L53.6999 14.9001V3.7001L50.9999 3.8001L50.0999 6.1001H49.3999V2.8001H54.6999H59.2999L61.2999 2.6001H61.8999V8.6001L64.5999 6.8001C66.9999 6.8001 67.3999 7.7001 67.3999 10.0001V15.0001L68.7999 15.2001L68.6999 15.8001H66.5999Z" fill="white"/>
<path d="M71.3999 11.0999C71.3999 13.1999 72.4999 14.6999 74.4999 14.6999C75.2999 14.5999 76.0999 14.3999 76.7999 13.8999L77.0999 14.5999C76.0999 15.2999 74.9999 15.6999 73.8999 16.0999C73.2999 16.0999 72.6999 15.9999 72.1999 15.7999C71.6999 15.5999 71.1999 15.1999 70.7999 14.7999C70.3999 14.3999 70.0999 13.8999 69.8999 13.2999C69.6999 12.7999 69.5999 12.1999 69.6999 11.5999C69.6999 8.7999 71.2999 7.3999 73.8999 6.8999C76.2999 6.8999 77.1999 8.3999 77.1999 10.3999V11.1999H71.3999V11.0999ZM75.0999 10.1999C75.0999 8.7999 74.7999 7.7999 73.3999 7.7999C72.2999 7.7999 71.4999 8.8999 71.3999 10.3999L75.0999 10.1999Z" fill="white"/>
<path d="M89.8 3.4999L89.9 2.8999L92.3 2.9999L94.5 2.8999L94.6 3.4999L93 3.6999V11.1999C93 13.5999 92 15.1999 88.4 16.0999C84.8 16.0999 83.5 14.0999 83.5 11.1999V3.6999L81.8 3.4999L81.9 2.8999L84.5 2.9999L87 2.8999V3.4999L85.4 3.6999V11.4999C85.4 13.7999 86.4 15.0999 88.5 15.0999C90.4 15.0999 91.5 13.7999 91.5 11.3999V3.6999L89.8 3.4999Z" fill="white"/>
<path d="M97.1 15.8L95 15.9L94.9 15.3L96.2 15.1V8.30005L94.9 8.40005L94.8 7.80005L97 7.10005L97.8 7.00005L97.9 8.60005L100.7 6.80005C103.1 6.80005 103.5 7.60005 103.5 9.80005V15L104.9 15.2L104.8 15.8L102.7 15.7L100.9 15.8L100.8 15.2L101.7 15V9.70005C101.7 8.80005 101.3 8.30005 100.5 8.30005C99.8 8.40005 99.1 8.70005 98.6 9.10005L98 9.50005V15L99 15.2L98.9 15.8H97.1Z" fill="white"/>
<path d="M107.7 15.8L105.6 15.9L105.5 15.3L106.8 15.1V8.3L105.5 8.4L105.4 7.8L107.6 7.2L108.5 7.1V15L109.9 15.2L109.8 15.8H107.7ZM106.7 3.1L108 3L108.5 3.1L108.6 4.1L108.5 5L107.2 5.1L106.7 5L106.6 4L106.7 3.1Z" fill="white"/>
<path d="M115.1 14.6001L117.3 7.9001L116.4 7.7001L116.5 7.1001L118.1 7.2001L119.6 7.1001L119.7 7.7001L118.5 7.9001L115.5 15.5001L114.1 16.1001L110.9 7.9001L109.8 7.7001L109.9 7.1001L112 7.2001L113.9 7.1001L114 7.7001L113 7.9001L115 13.3001L115.1 14.6001Z" fill="white"/>
<path d="M121.6 11.0999C121.6 13.1999 122.7 14.6999 124.7 14.6999C125.5 14.5999 126.3 14.3999 127 13.8999L127.3 14.5999C126.3 15.2999 125.2 15.6999 124.1 16.0999C123.5 16.0999 122.9 15.9999 122.4 15.7999C121.9 15.5999 121.4 15.1999 121 14.7999C120.6 14.3999 120.3 13.8999 120.1 13.2999C119.9 12.7999 119.8 12.1999 119.9 11.5999C119.9 8.7999 121.5 7.3999 124.1 6.8999C126.5 6.8999 127.4 8.3999 127.4 10.3999V11.1999H121.6V11.0999ZM125.3 10.1999C125.3 8.7999 125 7.7999 123.6 7.7999C122.5 7.7999 121.7 8.8999 121.6 10.3999L125.3 10.1999Z" fill="white"/>
<path d="M131.4 9.4999L133.5 6.8999H135V8.6999H133.6C132.9 8.9999 132.3 9.3999 131.8 9.9999L131.4 10.3999V14.7999L133.3 14.9999L133.2 15.6999L130.5 15.5999L128.4 15.6999L128.3 15.0999L129.6 14.8999V8.2999L128.3 8.3999L128.2 7.7999L130.4 7.1999L131.1 7.0999L131.4 9.4999Z" fill="white"/>
<path d="M140.9 8.1999C140.5 7.8999 140 7.7999 139.5 7.7999C138.8 7.7999 138.1 8.1999 138.1 8.8999C138.1 9.5999 138.6 9.7999 139.4 10.2999L140.8 10.9999C142 11.5999 142.5 12.2999 142.5 13.3999C142.5 15.0999 141.1 15.6999 139 16.1999C138 16.0999 137.1 15.8999 136.2 15.3999L135.8 13.2999H137L137.6 14.7999C138 15.0999 138.6 15.2999 139.1 15.2999C139.3 15.2999 139.5 15.2999 139.7 15.1999C139.9 15.0999 140 14.9999 140.2 14.8999C140.3 14.7999 140.5 14.5999 140.5 14.3999C140.6 14.1999 140.6 13.9999 140.6 13.7999C140.6 13.0999 140.2 12.7999 139.2 12.2999L137.7 11.4999C137.3 11.2999 136.9 10.9999 136.6 10.6999C136.3 10.2999 136.2 9.8999 136.1 9.3999C136.1 8.0999 137.3 7.3999 139.5 6.8999C140.4 6.8999 141.3 7.1999 142.1 7.6999V9.4999H141.1L140.9 8.1999Z" fill="white"/>
<path d="M146 15.8L143.9 15.9L143.8 15.3L145 15V8.3L143.7 8.4L143.6 7.8L145.8 7.2L146.7 7.1V15L148.1 15.2L148 15.8H146ZM145 3.1L146.3 3L146.8 3.1L146.9 4.1L146.8 5L145.5 5.1L145 5L144.9 4L145 3.1Z" fill="white"/>
<path d="M155.2 20.2V18.4H156.8L158.7 15.6L158 15.8L154.7 8.00005H152V13.6C152 14.1 152.2 14.7 153 14.7C153.6 14.6 154.1 14.5 154.6 14.2L154.9 14.8L152.6 16.1C150.5 16.1 150.2 15.4 150.2 13.7V8.20005H148.4V7.90005L149 7.30005H150.2V6.00005L151.4 4.80005H151.9V7.10005H157.7L157.8 7.70005L156.6 7.90005L158.7 13.3L158.8 14.6L161.1 7.90005L160.2 7.70005L160.3 7.10005L161.9 7.20005L163.4 7.10005L163.5 7.70005L162.3 7.90005L159.3 15.5L157.2 20.2H155.2Z" fill="white"/>
<path d="M175.8 11.2999C175.8 14.0999 174.1 15.5999 171.2 16.0999C170.6 16.0999 170.1 15.9999 169.5 15.7999C169 15.5999 168.5 15.1999 168.1 14.7999C167.7 14.3999 167.4 13.8999 167.2 13.3999C167 12.8999 166.9 12.2999 167 11.6999C167 8.8999 168.7 7.3999 171.6 6.8999C172.2 6.8999 172.7 6.9999 173.3 7.1999C173.8 7.3999 174.3 7.7999 174.7 8.1999C175.1 8.5999 175.4 9.0999 175.6 9.5999C175.8 10.0999 175.9 10.6999 175.8 11.2999ZM171.7 15.1999C173.2 15.1999 173.9 13.6999 173.9 11.6999C173.9 9.3999 172.8 7.7999 171.1 7.7999C169.5 7.7999 168.9 9.2999 168.9 11.2999C168.9 13.2999 170.1 15.1999 171.7 15.1999Z" fill="white"/>
<path d="M180 7.3001H182.3V8.2001H180V15.0001L182.1 15.1001L182 15.8001L179.1 15.7001L177 15.8001L176.9 15.2001L178.2 15.0001V8.2001H176.6V7.9001L177.2 7.3001H178.3V7.0001C178.3 6.5001 178.4 6.0001 178.5 5.6001C178.7 5.2001 178.9 4.8001 179.3 4.4001L180.9 2.6001H183.2V4.1001H180.8L180.4 4.6001C180 5.3001 179.9 6.0001 180 6.8001V7.3001Z" fill="white"/>
<path d="M196.5 15.7999L193.5 15.6999L190.4 15.7999L190.3 15.1999L192.5 14.9999V3.6999H189.7L188.8 6.0999H188.1V2.8999L193.4 2.9999L198.7 2.8999V6.1999H198L197.1 3.8999H194.3V15.0999L196.4 15.2999L196.5 15.7999Z" fill="white"/>
<path d="M199.7 11.0999C199.7 13.1999 200.8 14.6999 202.8 14.6999C203.6 14.5999 204.4 14.3999 205.1 13.8999L205.4 14.5999C204.4 15.2999 203.3 15.6999 202.2 16.0999C201.6 16.0999 201 15.9999 200.5 15.7999C200 15.5999 199.5 15.1999 199.1 14.7999C198.7 14.3999 198.4 13.8999 198.2 13.2999C198 12.7999 197.9 12.1999 198 11.5999C198 8.7999 199.6 7.3999 202.2 6.8999C204.6 6.8999 205.5 8.3999 205.5 10.3999V11.1999H199.7V11.0999ZM203.5 10.1999C203.5 8.7999 203.2 7.7999 201.8 7.7999C200.7 7.7999 199.9 8.8999 199.8 10.3999L203.5 10.1999Z" fill="white"/>
<path d="M209.6 15.2L209.5 15.8L208 15.7L206.1 15.8L206 15.2L207.3 15L210.1 11.6L207.4 7.9L206.3 7.7L206.4 7L208.5 7.1L210.3 7L210.4 7.7L209.7 7.9L211 10L211.1 10.5L212.8 8L212 7.8L212.1 7.1L213.5 7.2L215.4 7.1L215.5 7.8L214.2 8L211.8 11L214.7 15.1L215.8 15.3L215.7 15.9L213.6 15.8L211.8 15.9L211.7 15.3L212.5 15.1L210.9 12.7L210.8 12.3L208.8 15.1L209.6 15.2Z" fill="white"/>
<path d="M220.1 6.80005C222.4 6.80005 223 7.40005 223 9.70005V13.3C223 13.8 223.1 14.3 223.3 14.7H224.2L224.3 15.3L221.9 15.8L221.3 14.4L219.1 16C217.5 16 216.4 15.1 216.4 13.6C216.4 13 216.6 12.4 217 11.9L221.2 10.5V9.70005C221.2 8.60005 221.1 7.90005 220.1 7.90005C219.6 7.90005 219.1 8.00005 218.6 8.20005L218.3 9.70005H216.7V8.30005L220.1 6.80005ZM221.3 11.4L218.6 12.5C218.5 12.6 218.4 12.8 218.3 13C218.2 13.2 218.2 13.4 218.2 13.6C218.2 14.5 218.7 14.9 219.3 14.9C219.7 14.9 220.2 14.7 220.5 14.4L221.3 13.9V11.4Z" fill="white"/>
<path d="M230.1 8.1999C229.7 7.8999 229.2 7.7999 228.7 7.7999C228 7.7999 227.3 8.1999 227.3 8.8999C227.3 9.5999 227.8 9.7999 228.6 10.2999L230 10.9999C231.2 11.5999 231.7 12.2999 231.7 13.3999C231.7 15.0999 230.3 15.6999 228.2 16.1999C227.2 16.0999 226.3 15.8999 225.4 15.3999L225 13.2999H226.2L226.8 14.7999C227.3 15.0999 227.8 15.2999 228.3 15.2999C228.5 15.2999 228.7 15.2999 228.9 15.1999C229.1 15.0999 229.3 14.9999 229.4 14.8999C229.5 14.7999 229.7 14.5999 229.7 14.3999C229.8 14.1999 229.8 13.9999 229.8 13.7999C229.8 13.0999 229.4 12.7999 228.4 12.2999L226.9 11.4999C226.5 11.2999 226.1 10.9999 225.8 10.6999C225.5 10.2999 225.4 9.8999 225.3 9.3999C225.3 8.0999 226.5 7.3999 228.7 6.8999C229.6 6.8999 230.5 7.1999 231.3 7.6999V9.4999H230.2L230.1 8.1999Z" fill="white"/>
<path d="M241.1 6.80005C243.4 6.80005 244 7.40005 244 9.70005V13.3C244 13.8 244.1 14.3 244.3 14.7H245.2L245.3 15.3L242.9 15.8L242.3 14.4L240.1 16C238.5 16 237.4 15.1 237.4 13.6C237.4 13 237.6 12.4 238 11.9L242.2 10.5V9.70005C242.2 8.60005 242.1 7.90005 241.1 7.90005C240.6 7.90005 240.1 8.00005 239.6 8.20005L239.3 9.70005H237.7V8.30005L241.1 6.80005ZM242.2 11.4L239.5 12.5C239.4 12.6 239.3 12.8 239.2 13C239.1 13.2 239.1 13.4 239.1 13.6C239.1 14.5 239.6 14.9 240.2 14.9C240.6 14.9 241.1 14.7 241.4 14.4L242.2 13.9V11.4Z" fill="white"/>
<path d="M245.2 8.20005V7.90005L245.8 7.30005H247V6.00005L248.2 4.80005H248.7V7.40005H251.5V8.20005H248.7V13.6C248.7 14.1 248.9 14.7 249.7 14.7C250.2 14.7 250.7 14.5 251.2 14.3L251.5 14.9L249.3 16.1C247.2 16.1 246.9 15.4 246.9 13.7V8.20005H245.2Z" fill="white"/>
<path d="M259.4 11.5L258.2 15L259.8 15.2L259.7 15.8L257.5 15.7L255.5 15.8L255.4 15.2L256.8 15L261.4 2.99995L262.5 2.69995L267.3 15L268.7 15.2L268.6 15.8L266 15.7L263.6 15.8L263.5 15.2L265.1 15L263.8 11.5H259.4ZM261.8 5.69995L261.7 4.69995L259.7 10.6H263.7L261.8 5.69995Z" fill="white"/>
<path d="M276.7 13.4C276.7 13.9 276.7 14.3 276.9 14.8H277.8L277.9 15.4L275.5 15.9L275 14.4L272.3 16.1C269.9 16.1 269.4 15.2 269.4 13.1V8.3L268.1 8.4L268 7.6L270.2 7.1L271.1 7V13.2C271.1 14.1 271.5 14.6 272.4 14.6C273.1 14.5 273.8 14.1 274.4 13.7L274.8 13.5V8.3L273.7 8.4L273.6 7.7L275.6 7.2L276.5 7.1V13.4H276.7Z" fill="white"/>
<path d="M283.7 8.1999C283.3 7.8999 282.8 7.7999 282.3 7.7999C281.6 7.7999 280.9 8.1999 280.9 8.8999C280.9 9.5999 281.4 9.7999 282.2 10.2999L283.6 10.9999C284.8 11.5999 285.3 12.2999 285.3 13.3999C285.3 15.0999 283.9 15.6999 281.8 16.1999C280.8 16.0999 279.9 15.8999 279 15.3999L278.6 13.2999H279.8L280.4 14.7999C280.9 15.0999 281.4 15.2999 281.9 15.2999C282.1 15.2999 282.3 15.2999 282.5 15.1999C282.7 15.0999 282.9 14.9999 283 14.8999C283.1 14.7999 283.3 14.5999 283.3 14.3999C283.4 14.1999 283.4 13.9999 283.4 13.7999C283.4 13.0999 283 12.7999 282 12.2999L280.5 11.4999C280.1 11.2999 279.7 10.9999 279.4 10.6999C279.1 10.2999 279 9.8999 278.9 9.3999C278.9 8.0999 280.1 7.3999 282.3 6.8999C283.2 6.8999 284.1 7.1999 284.9 7.6999V9.4999H283.9L283.7 8.1999Z" fill="white"/>
<path d="M286 8.20005V7.90005L286.6 7.30005H287.8V6.00005L289 4.80005H289.5V7.40005H292.3V8.20005H289.5V13.6C289.5 14.1 289.7 14.7 290.5 14.7C291 14.7 291.5 14.5 292 14.3L292.3 14.9L290.1 16.1C288 16.1 287.7 15.4 287.7 13.7V8.20005H286Z" fill="white"/>
<path d="M295.6 15.8L293.5 15.9L293.4 15.3L294.7 15.1V8.3L293.4 8.4L293.3 7.8L295.5 7.2L296.4 7.1V15L297.8 15.2L297.7 15.8H295.6ZM294.6 3.1L296 3L296.5 3.1L296.6 4.1L296.4 5L295.1 5.1L294.6 5L294.5 4L294.6 3.1Z" fill="white"/>
<path d="M300.8 15.7999L298.7 15.8999L298.6 15.2999L299.9 15.0999V8.2999L298.6 8.3999L298.5 7.7999L300.7 7.1999L301.5 7.0999L301.6 8.6999L304.4 6.8999C306.8 6.8999 307.2 7.6999 307.2 9.8999V14.9999L308.6 15.1999L308.5 15.7999L306.4 15.6999L304.6 15.7999L304.5 15.1999L305.4 14.9999V9.6999C305.4 8.7999 305 8.2999 304.2 8.2999C303.5 8.3999 302.8 8.6999 302.3 9.0999L301.7 9.4999V14.9999L302.7 15.1999L302.6 15.7999H300.8Z" fill="white"/>
</g>
<defs>
<clipPath id="clip0">
<rect width="420.2" height="50" fill="white"/>
</clipPath>
</defs>
</svg>
