<svg width="149" height="63" viewBox="0 0 149 63" fill="none" xmlns="http://www.w3.org/2000/svg">
<g clip-path="url(#clip0)">
<path d="M68.1357 52.3234V47.5243H69.6443C71.7614 47.5243 74.0833 47.5988 74.0833 49.7717C74.0833 52.075 71.8421 52.3234 69.1973 52.3234H68.1357V52.3234ZM68.1357 54.9495H70.0913L75.9644 62.0208H82.1169L74.94 54.3473C76.4487 53.8754 79.5901 52.9504 79.5901 49.7221C79.5901 45.0224 73.2327 44.8982 70.0913 44.8982H63.4919C62.7965 44.8982 62.6289 44.9727 62.6289 45.4259V62.0332H68.1357V54.9495V54.9495Z" fill="white"/>
<path d="M110.639 59.8234C107.578 59.8234 106.293 57.3401 106.293 53.4723C106.293 49.6045 107.597 47.0963 110.639 47.0963C113.681 47.0963 114.985 49.5797 114.985 53.4723C114.985 57.3649 113.681 59.8234 110.639 59.8234ZM120.789 53.4723C120.789 47.4192 116.915 44.4702 110.639 44.4702C104.362 44.4702 100.482 47.3943 100.482 53.4723C100.482 59.5503 104.312 62.4495 110.639 62.4495C116.965 62.4495 120.789 59.5254 120.789 53.4723" fill="white"/>
<path d="M50.2065 54.4218H57.9172V51.7211H50.2065V47.5988H58.8112L59.9784 44.8982H45.4882C44.9232 44.8982 44.737 44.9665 44.6997 45.2893V62.0518H59.786V59.3202H50.2065V54.4218Z" fill="white"/>
<path d="M141.511 44.8985H137.674C137.674 44.8985 137.78 55.2416 137.78 56.0735L128.585 45.2214C128.343 44.9482 128.263 44.8985 127.648 44.8985H124.209C123.681 44.8985 123.488 44.973 123.451 45.2648V62.0273H128.138V52.4975C128.138 51.349 128.101 50.5854 128.101 50.2625C128.101 50.2625 137.501 61.2575 137.886 61.6735C138.004 61.7986 138.15 61.8954 138.311 61.9566C138.472 62.0179 138.645 62.0421 138.817 62.0273H141.511H142.362V44.8923H141.511" fill="white"/>
<path d="M5.50679 54.4218H13.2113V51.7212H5.50679V47.5988H14.1053L15.2787 44.8982H0.794667C0.173833 44.8982 0.0124167 44.9851 0 45.3762V62.0208H15.0862V59.3264H5.50679V54.4218Z" fill="white"/>
<path d="M29.6569 55.5519L23.1072 45.3516C22.865 45.0785 22.7843 45.0288 22.1697 45.0288H18.0039V62.1576H22.6602V52.634C22.6602 51.4793 22.6602 51.0323 22.6602 50.7032C22.6602 50.7032 29.1168 61.0463 29.7563 61.7727H29.7935C30.4144 61.0463 36.5606 50.7032 36.5606 50.7032C36.5606 51.0323 36.5234 51.4793 36.5234 52.634V62.1638H41.2107V45.035H36.9828C36.3619 45.035 36.2874 45.0847 36.0453 45.3578L29.837 55.5581H29.6632" fill="white"/>
<path d="M95.9377 52.7707C92.5417 51.1441 87.9227 50.9951 87.9227 49.0954C87.9227 47.5992 89.4252 47.146 91.2007 47.146C93.0454 47.2288 94.8657 47.5996 96.5958 48.2448C96.6804 48.2382 96.7624 48.2124 96.8355 48.1694C96.9087 48.1264 96.9711 48.0672 97.018 47.9965L97.2787 47.6551L98.6632 45.9416H98.6259C98.539 45.8981 98.2969 45.7863 97.9616 45.656C97.6264 45.5256 97.5208 45.4946 97.4401 45.4635C95.3659 44.8372 93.2122 44.5131 91.0455 44.5012C86.5693 44.5012 82.565 46.0036 82.565 49.6045C82.565 51.6781 83.5086 52.988 85.5574 53.7951C89.4872 55.341 93.4357 55.2541 93.4357 57.4766C93.4357 59.0287 92.4734 59.7799 90.3316 59.7799C88.1577 59.7087 86.004 59.3389 83.9308 58.6811C83.8451 58.683 83.7613 58.7069 83.6874 58.7503C83.6135 58.7938 83.552 58.8554 83.5086 58.9294L83.0864 59.7178L82.3477 61.0837L82.9685 61.3134C85.4054 62.0897 87.9479 62.4834 90.5054 62.4806C95.3603 62.4806 98.9239 60.8912 98.8308 57.2035C98.8394 56.2775 98.5725 55.37 98.0639 54.5961C97.5554 53.8223 96.8283 53.2171 95.9749 52.8576" fill="white"/>
<path d="M145.51 60.0659V62.0401H145.187V60.0659H144.442V59.8796H146.261V60.0659H145.51Z" fill="white"/>
<path d="M148.709 62.0395V60.059L147.939 62.0395H147.648L146.865 60.0777V62.0395H146.611V59.8728H147.076L147.828 61.7291L148.548 59.8728H149.001V62.0395H148.709Z" fill="white"/>
<path d="M71.3958 0.800631C71.646 1.21646 71.9327 1.60914 72.2526 1.97401L84.4954 16.9671C84.6864 17.1792 84.8491 17.415 84.9797 17.6687C84.9176 17.7618 84.7934 17.9605 84.5265 18.4385L80.1806 16.7933L78.939 15.3219C75.3506 10.9264 69.9431 4.25246 69.6265 3.76821L71.3958 0.800631ZM71.4766 -0.000244141L69.3223 3.62542C69.2962 3.70403 69.2962 3.78894 69.3223 3.86755C69.4526 4.19659 78.6844 15.5144 78.6844 15.5144L79.9634 17.054L84.6506 18.8234C84.6506 18.8234 85.197 17.8611 85.2715 17.8177V17.7742C85.3646 17.6066 85.1038 17.2403 84.7313 16.7747L72.4637 1.78155C71.3213 0.409506 71.3958 0.136339 71.4766 -0.000244141Z" fill="white"/>
<path d="M64.2122 13.5029L68.558 15.2164L69.5327 16.4581L71.9788 19.4505L77.4794 26.1927L78.3548 27.3164C78.5441 27.5284 78.7048 27.7643 78.8328 28.018C78.7293 28.1689 78.636 28.3265 78.5534 28.4898L73.4378 26.4411L72.8169 25.665L70.3708 22.6726L64.8703 15.9304L63.9452 14.8067C63.7491 14.5993 63.5933 14.3572 63.4858 14.0927C63.5231 14.0368 63.5976 13.9127 63.7341 13.6581L63.8956 13.5774C64.0021 13.5681 64.1068 13.543 64.206 13.5029H64.2122ZM64.206 13.1552C64.105 13.2378 63.9759 13.2778 63.8459 13.267L63.5355 13.4284C63.5355 13.4284 63.2747 13.9064 63.2313 13.9561C63.1319 14.1237 63.3678 14.5149 63.7403 14.9805L64.6343 16.0732L70.1349 22.8154L72.581 25.8078L73.2577 26.6956L78.6962 28.8747C78.6962 28.8747 79.0191 28.2539 79.1184 28.1608V28.1297C79.2115 27.9559 78.957 27.5896 78.5845 27.124L77.6905 26.0313L72.2023 19.2456L69.7562 16.2532L68.7318 14.9432L64.1873 13.1428L64.206 13.1552Z" fill="white"/>
<path d="M59.254 23.8713L62.5196 25.6717L63.4074 26.7768L72.2419 37.6041C72.4244 37.8087 72.5828 38.0337 72.7137 38.2746C72.7158 38.287 72.7158 38.2996 72.7137 38.3119V38.3119L70.9505 41.2671C70.6849 40.863 70.3924 40.4772 70.0752 40.1123L57.8448 25.1254C57.6483 24.917 57.4907 24.6752 57.3791 24.4114C57.4164 24.3556 57.4723 24.2562 57.5778 24.0762C58.0062 24.0389 58.9002 23.921 59.254 23.8713ZM59.3161 23.5547C59.3161 23.5547 57.6461 23.7782 57.3915 23.7782C57.3915 23.7782 57.1432 24.2252 57.0935 24.2749C56.9942 24.4425 57.2301 24.8398 57.6088 25.2992L69.8455 40.3172C70.9381 41.6271 70.9505 41.8879 70.8574 42.0555L72.9869 38.4919C73.0062 38.4479 73.0162 38.4003 73.0162 38.3523C73.0162 38.3042 73.0062 38.2566 72.9869 38.2126C72.8419 37.9289 72.6626 37.664 72.453 37.4241L63.6495 26.5844L62.7059 25.4544L59.2975 23.5919L59.3161 23.5547Z" fill="white"/>
<path d="M68.2909 5.95957C68.5469 6.3711 68.8355 6.76141 69.1539 7.12673L75.0146 14.2787L80.5214 21.021L81.4092 22.1136C81.5993 22.3286 81.762 22.5663 81.8934 22.8214L81.7009 23.138C81.6637 23.2125 81.5644 23.3739 81.4837 23.5167L76.7094 21.5239L75.8465 20.4871L73.4066 17.4946L67.8998 10.7586L67.012 9.65973C66.8209 9.45413 66.6637 9.21942 66.5464 8.9644V8.9644L68.2909 5.95957ZM68.4089 5.15869L66.2546 8.78436C66.2276 8.86068 66.2276 8.94395 66.2546 9.02027C66.3835 9.32285 66.5619 9.60189 66.7823 9.84598L67.6701 10.9449L73.1769 17.6809L75.6168 20.6733L76.5294 21.797L81.6264 23.9141C81.6264 23.9141 81.912 23.4422 81.9865 23.2932L82.2038 22.9269C82.2969 22.7531 82.0362 22.3868 81.6637 21.9212L80.7759 20.8285L75.2691 14.0863L69.4084 6.93427C68.2909 5.58707 68.3592 5.29527 68.4213 5.15869H68.4089Z" fill="white"/>
<path d="M60.6056 18.9601C60.9347 19.0036 64.6535 20.2515 65.6778 20.6736L66.4353 21.6111L68.9124 24.6097L74.413 31.3519C75.0338 32.1032 75.6546 32.9537 75.7788 33.1275V33.1648L74.0218 36.1199C73.7541 35.7174 73.4617 35.3317 73.1465 34.9652L67.2982 27.8008L61.7914 21.0585L60.8974 19.9659C60.6999 19.7547 60.5403 19.5111 60.4256 19.2457L60.587 18.9787L60.6056 18.9601ZM60.7546 18.4076C60.6491 18.5193 60.3697 18.7552 60.3449 18.7801L60.1338 19.134C60.0345 19.3078 60.2828 19.6989 60.6553 20.1645L61.5493 21.2572L67.0499 27.9994L72.8981 35.1639C73.9908 36.4738 74.0032 36.7346 73.9101 36.9022L76.052 33.3014C76.0818 33.2149 76.0818 33.1209 76.052 33.0344C75.9775 32.8419 74.6303 31.1719 74.6303 31.1719L69.1297 24.4297L66.6836 21.4372L65.8827 20.4377C65.0322 20.0714 60.9161 18.6683 60.6367 18.6683C60.556 18.6683 60.7608 18.4014 60.7546 18.4014V18.4076Z" fill="white"/>
<path d="M65.3929 10.3062L65.3246 10.3745L63.189 13.9753C63.3007 13.8574 63.6173 13.7146 65.0515 14.3478L81.9505 21.3384C82.2051 21.4253 82.7887 21.6116 83.0308 21.475C83.0723 21.4418 83.108 21.402 83.1363 21.3571L85.2348 17.8059C85.1354 17.9176 84.8374 18.0915 83.335 17.4458L66.4732 10.4304C66.2066 10.3274 65.9263 10.2646 65.6413 10.2441C65.5547 10.2444 65.4694 10.2657 65.3929 10.3062Z" fill="white"/>
<path d="M59.2762 20.6242L59.2328 20.6676L57.1157 24.2747C57.2275 24.1629 57.5379 24.0077 58.9782 24.641L75.8338 31.6626C76.0884 31.7557 76.672 31.942 76.9141 31.8054C76.9557 31.7699 76.9914 31.728 77.0196 31.6812L79.1181 28.1363C79.0187 28.2542 78.7207 28.428 77.2183 27.7762L61.5423 21.2574L60.3441 20.7608C60.0775 20.6578 59.7971 20.595 59.5121 20.5745C59.4305 20.5698 59.349 20.5869 59.2762 20.6242V20.6242Z" fill="white"/>
<path d="M62.3325 15.4647C62.3088 15.4846 62.2879 15.5076 62.2704 15.533L60.1348 19.1339C60.2403 19.0221 60.5507 18.8669 61.9973 19.5001L78.8529 26.5094C79.1074 26.6025 79.691 26.7887 79.9331 26.6521C79.9731 26.615 80.0085 26.5734 80.0387 26.528L82.1806 22.9706C82.0812 23.0886 81.7832 23.2562 80.2808 22.6105L75.6184 20.6735L64.6172 16.098L63.4128 15.6013C63.1484 15.4983 62.8701 15.4355 62.5871 15.4151C62.4993 15.4082 62.4113 15.4253 62.3325 15.4647Z" fill="white"/>
</g>
<defs>
<clipPath id="clip0">
<rect width="149" height="62.4496" fill="white"/>
</clipPath>
</defs>
</svg>
