<svg width="111" height="40" viewBox="0 0 111 40" fill="none" xmlns="http://www.w3.org/2000/svg">
<path d="M52.9771 29.3907C53.7613 29.5955 54.5777 29.7152 55.4237 29.7152C55.743 29.7152 56.0598 29.696 56.3714 29.6676L65.1006 19.2631C65.0131 18.0913 64.7169 16.9788 64.2482 15.9589L52.9771 29.3908V29.3907ZM60.5323 11.7531L48.1872 26.4662C48.8066 27.159 49.5213 27.759 50.3119 28.2496L62.6596 13.5365C62.0402 12.8437 61.3255 12.2437 60.5323 11.7531ZM57.8718 10.6074C57.0876 10.4026 56.2712 10.2829 55.4252 10.2829C55.1059 10.2829 54.7891 10.3022 54.4775 10.3305L45.7508 20.7324C45.8384 21.9042 46.1345 23.0194 46.6007 24.0366L57.8718 10.6073V10.6074ZM69.3024 5.61948L62.6592 13.5375C63.3017 14.2586 63.8413 15.0711 64.2482 15.9583L71.1811 7.69524C70.6055 6.95868 69.9745 6.26719 69.3024 5.61948ZM43.6709 36.1649C44.4268 36.7121 45.2149 37.2182 46.0403 37.6586L52.9771 29.3903C52.0267 29.1431 51.1331 28.7504 50.3193 28.2456L43.6709 36.1649ZM39.6765 32.2892C40.256 33.0283 40.8702 33.7353 41.5411 34.383L48.1869 26.4637C47.5417 25.7439 47.0099 24.9249 46.6004 24.0364L39.6765 32.2892ZM57.8718 10.6073C58.8221 10.8546 59.7197 11.2409 60.5348 11.7508L67.1818 3.82894C66.4272 3.27781 65.6314 2.7872 64.8009 2.34424L57.8718 10.6073Z" fill="white"/>
<path d="M41.8499 25.3816L45.7464 20.7382C45.7271 20.4936 45.7104 20.2489 45.7104 20.0004C45.7104 14.9565 49.558 10.8127 54.4757 10.3363L62.158 1.17952C60.0527 0.424937 57.7889 0 55.4247 0C48.757 0 42.8569 3.26558 39.223 8.28242C41.3091 11.6961 42.5118 15.7072 42.5118 20.0004C42.5118 21.8559 42.2735 23.6548 41.8499 25.3816ZM110.32 15.4282H82.2828C83.9156 12.3699 87.1387 10.2852 90.8498 10.2852C93.4175 10.2852 95.7443 11.2883 97.4814 12.9146H109.552C106.692 5.36747 99.3988 0.00295653 90.8498 0.00295653C84.1834 0.00295653 78.2858 3.26596 74.6507 8.2828C76.7355 11.6952 77.9381 15.7063 77.9381 20.0008C77.9381 21.5666 77.7733 23.0951 77.4707 24.5721H99.422C97.784 27.6303 94.5609 29.7151 90.8498 29.7151C88.2847 29.7151 85.9579 28.712 84.2208 27.0856H76.7869C76.2436 28.7197 75.5315 30.274 74.6507 31.7174C78.2858 36.7343 84.1834 39.9999 90.8498 39.9999C101.894 39.9999 110.85 31.0466 110.85 20.0008C110.85 18.4272 110.662 16.8974 110.32 15.4282ZM19.9978 10.2858C23.7102 10.2858 26.9333 12.3693 28.5674 15.4288H11.4282C13.0636 12.3693 16.2867 10.2858 19.9978 10.2858ZM39.4664 24.5714C39.8089 23.1022 39.9969 21.5737 39.9969 20.0001C39.9969 8.95433 31.0436 0.00231784 19.9978 0.00231784C8.95201 0.00231784 0 8.95433 0 20.0001C0 31.0459 8.95201 39.9992 19.9978 39.9992C28.5468 39.9992 35.8402 34.6309 38.7015 27.085H26.6294C24.8923 28.7126 22.5642 29.7145 19.9978 29.7145C16.2867 29.7145 13.0636 27.6297 11.4282 24.5714H39.4664ZM65.1017 19.2631C65.1211 19.509 65.1377 19.7511 65.1377 20.0009C65.1377 25.0435 61.2927 29.1886 56.3725 29.6676L48.6862 38.8256C50.7942 39.5802 53.0592 40 55.4247 40C66.4692 40 75.4225 31.0467 75.4225 20.0009C75.4225 16.3954 74.4645 13.0152 72.7956 10.0947L65.1017 19.2631Z" fill="white"/>
</svg>
