<svg id="svg" xmlns="http://www.w3.org/2000/svg" xmlns:xlink="http://www.w3.org/1999/xlink" width="400" height="49.41619585687383" viewBox="0, 0, 400,49.41619585687383" version="1.1"><g id="svgg"><path id="path0" d="M122.500 0.846 C 120.056 1.263,118.308 1.761,116.905 2.438 C 116.074 2.839,115.338 3.167,115.270 3.167 C 115.068 3.167,112.626 5.086,112.059 5.691 C 108.691 9.281,108.252 16.073,111.111 20.375 C 111.522 20.994,111.909 21.502,111.971 21.505 C 112.033 21.507,112.421 21.812,112.833 22.181 C 113.246 22.550,113.921 23.024,114.333 23.235 C 114.746 23.446,115.383 23.789,115.750 23.997 C 116.429 24.383,116.749 24.506,119.833 25.559 C 121.421 26.101,125.334 27.268,127.667 27.895 C 136.427 30.249,139.392 33.141,138.260 38.230 C 136.487 46.198,118.474 46.714,111.092 39.009 C 110.243 38.123,110.226 38.136,108.462 41.142 C 108.212 41.568,108.006 42.020,108.004 42.147 C 108.000 42.397,110.302 44.667,110.560 44.667 C 110.647 44.667,110.970 44.858,111.276 45.092 C 111.583 45.326,112.819 45.970,114.022 46.523 C 125.520 51.804,140.406 48.690,142.803 40.500 C 145.024 32.910,141.749 26.757,134.385 24.688 C 133.761 24.513,132.350 24.102,131.250 23.775 C 129.447 23.239,124.883 22.024,122.762 21.516 C 113.640 19.328,111.446 10.866,119.009 7.037 C 123.203 4.914,130.028 4.867,134.750 6.930 C 135.966 7.461,138.126 8.527,138.583 8.821 C 139.748 9.572,139.919 9.507,140.592 8.058 C 140.926 7.339,141.357 6.436,141.549 6.053 L 141.898 5.355 141.490 5.017 C 141.267 4.830,141.021 4.675,140.945 4.672 C 140.869 4.669,140.403 4.399,139.909 4.071 C 139.416 3.744,138.653 3.341,138.214 3.176 C 137.776 3.011,136.769 2.611,135.977 2.287 C 132.842 1.005,125.907 0.263,122.500 0.846 M262.107 0.849 C 259.387 1.136,256.581 1.823,254.769 2.646 C 254.137 2.932,253.550 3.167,253.464 3.167 C 253.378 3.167,252.770 3.485,252.112 3.874 C 251.455 4.263,250.719 4.681,250.477 4.802 C 250.236 4.924,249.882 5.169,249.691 5.346 C 249.501 5.524,249.061 5.859,248.714 6.091 C 248.036 6.544,244.667 9.824,244.667 10.030 C 244.667 10.099,244.451 10.401,244.187 10.703 C 242.041 13.154,239.692 19.008,239.670 21.963 L 239.667 22.342 242.121 22.296 L 244.574 22.250 244.693 21.556 C 244.997 19.768,246.393 16.271,247.304 15.014 C 247.595 14.612,247.833 14.227,247.833 14.158 C 247.833 13.644,251.483 10.097,253.175 8.966 C 256.892 6.482,261.959 5.193,266.167 5.661 C 269.840 6.070,272.684 6.969,275.000 8.455 C 276.850 9.642,277.124 9.857,278.616 11.290 C 280.987 13.567,283.541 17.759,283.927 20.009 C 283.982 20.325,284.101 20.979,284.192 21.463 L 284.359 22.342 286.971 22.296 L 289.583 22.250 289.531 21.667 C 289.315 19.254,287.448 14.221,286.061 12.311 C 285.752 11.886,285.500 11.485,285.500 11.419 C 285.500 10.662,279.181 4.667,278.383 4.667 C 278.289 4.667,278.033 4.529,277.814 4.361 C 274.649 1.926,267.355 0.295,262.107 0.849 M1.000 3.333 L 1.000 5.833 16.833 5.833 L 32.667 5.833 32.667 3.333 L 32.667 0.833 16.833 0.833 L 1.000 0.833 1.000 3.333 M54.000 3.325 L 54.000 5.833 63.375 5.839 C 75.476 5.845,76.746 5.972,80.076 7.496 C 84.787 9.654,87.245 15.295,85.744 20.500 C 85.492 21.371,85.337 21.768,84.741 23.062 C 83.775 25.159,80.792 27.306,77.667 28.154 C 74.690 28.961,74.048 29.000,63.728 29.000 L 54.000 29.000 54.000 38.833 L 54.000 48.667 56.667 48.667 L 59.333 48.667 59.333 41.261 L 59.333 33.856 67.625 33.790 C 76.514 33.720,77.648 33.611,80.070 32.600 C 80.420 32.453,80.801 32.333,80.916 32.333 C 81.486 32.333,84.284 30.825,85.590 29.814 C 87.051 28.682,89.333 26.043,89.333 25.485 C 89.333 25.377,89.486 25.043,89.672 24.741 C 91.226 22.227,91.662 15.433,90.488 12.023 C 89.113 8.026,86.108 4.632,82.696 3.219 C 82.359 3.080,81.766 2.822,81.378 2.647 C 77.977 1.109,76.277 0.932,64.292 0.870 L 54.000 0.817 54.000 3.325 M164.833 24.833 L 164.833 48.833 167.333 48.833 L 169.833 48.833 169.833 24.833 L 169.833 0.833 167.333 0.833 L 164.833 0.833 164.833 24.833 M310.167 24.754 L 310.167 48.675 312.708 48.629 L 315.250 48.583 315.333 29.680 L 315.417 10.776 315.872 11.374 C 316.123 11.702,316.423 12.071,316.539 12.194 C 316.655 12.316,316.966 12.735,317.231 13.125 C 317.496 13.515,317.758 13.834,317.814 13.834 C 317.871 13.835,318.102 14.116,318.329 14.459 C 318.556 14.803,318.988 15.344,319.288 15.662 C 319.588 15.980,319.833 16.292,319.833 16.355 C 319.833 16.469,321.231 18.220,322.499 19.693 C 322.866 20.120,323.167 20.524,323.167 20.591 C 323.167 20.658,323.448 21.027,323.792 21.412 C 324.135 21.796,325.242 23.186,326.250 24.500 C 327.258 25.814,328.350 27.195,328.676 27.569 C 329.002 27.944,329.415 28.448,329.593 28.691 C 330.499 29.926,333.429 33.616,333.677 33.833 C 333.833 33.971,334.051 34.259,334.161 34.473 C 334.271 34.687,334.621 35.151,334.939 35.503 C 335.257 35.855,335.682 36.369,335.883 36.645 C 336.085 36.921,336.737 37.756,337.333 38.500 C 337.929 39.244,338.590 40.092,338.802 40.385 C 339.013 40.677,339.395 41.142,339.650 41.417 C 339.905 41.692,340.291 42.179,340.507 42.500 C 340.724 42.821,340.951 43.121,341.013 43.167 C 341.075 43.212,341.829 44.154,342.688 45.259 C 343.547 46.364,344.520 47.583,344.849 47.967 L 345.449 48.667 347.641 48.667 L 349.833 48.667 349.833 24.750 L 349.833 0.833 347.167 0.833 L 344.500 0.833 344.500 19.750 C 344.500 30.154,344.455 38.667,344.399 38.667 C 344.291 38.667,343.691 37.943,343.417 37.482 C 343.325 37.328,342.650 36.469,341.917 35.574 C 341.183 34.679,340.370 33.640,340.110 33.265 C 339.849 32.890,339.547 32.508,339.437 32.417 C 339.327 32.325,339.057 31.988,338.836 31.667 C 338.616 31.346,338.187 30.823,337.884 30.505 C 337.581 30.187,337.333 29.873,337.333 29.808 C 337.333 29.744,337.237 29.591,337.120 29.470 C 336.918 29.262,335.173 27.078,334.083 25.669 C 333.808 25.314,332.683 23.884,331.583 22.493 C 330.483 21.102,329.350 19.653,329.066 19.274 C 328.781 18.894,328.387 18.440,328.191 18.266 C 327.994 18.091,327.833 17.875,327.833 17.784 C 327.833 17.694,327.552 17.308,327.208 16.926 C 326.865 16.544,325.914 15.354,325.096 14.282 C 324.278 13.210,323.559 12.333,323.498 12.333 C 323.437 12.333,323.303 12.150,323.201 11.926 C 323.099 11.701,322.746 11.219,322.416 10.854 C 322.086 10.489,321.652 9.965,321.450 9.688 C 321.248 9.412,320.596 8.577,320.000 7.833 C 319.404 7.089,318.744 6.241,318.534 5.949 C 318.324 5.656,317.945 5.192,317.693 4.917 C 317.441 4.642,317.053 4.154,316.831 3.833 C 316.609 3.512,316.333 3.152,316.216 3.032 C 316.100 2.913,315.662 2.369,315.243 1.824 L 314.481 0.833 312.324 0.833 L 310.167 0.833 310.167 24.754 M196.667 25.083 L 196.667 48.833 212.500 48.833 L 228.333 48.833 228.333 46.500 L 228.333 44.167 215.000 44.167 L 201.667 44.167 201.667 22.750 L 201.667 1.333 199.167 1.333 L 196.667 1.333 196.667 25.083 M384.740 20.708 L 384.250 21.250 384.792 20.760 C 385.297 20.304,385.410 20.167,385.281 20.167 C 385.252 20.167,385.009 20.410,384.740 20.708 M1.000 24.667 L 1.000 27.167 16.833 27.167 L 32.667 27.167 32.667 24.667 L 32.667 22.167 16.833 22.167 L 1.000 22.167 1.000 24.667 M239.573 27.787 C 239.911 30.184,240.434 32.311,240.997 33.576 C 242.030 35.898,242.361 36.558,242.741 37.056 C 242.975 37.364,243.167 37.694,243.167 37.791 C 243.167 37.998,245.084 40.433,246.066 41.474 C 247.712 43.218,250.468 45.215,252.951 46.463 C 258.409 49.205,265.289 49.958,270.833 48.420 C 271.337 48.281,272.200 48.047,272.750 47.901 C 273.300 47.755,274.430 47.305,275.261 46.901 C 276.093 46.497,276.821 46.167,276.881 46.167 C 277.700 46.167,282.208 42.460,284.386 39.995 C 286.825 37.235,289.074 32.005,289.598 27.875 L 289.710 27.000 287.052 27.000 L 284.393 27.000 284.175 28.375 C 283.909 30.049,283.637 30.905,282.899 32.384 C 282.588 33.008,282.333 33.588,282.333 33.672 C 282.333 34.079,280.133 36.981,278.859 38.255 C 269.913 47.201,254.627 45.730,247.635 35.250 C 246.197 33.095,244.883 29.869,244.682 28.001 L 244.583 27.083 242.022 27.037 L 239.461 26.991 239.573 27.787 M1.000 46.333 L 1.000 48.833 16.833 48.833 L 32.667 48.833 32.667 46.333 L 32.667 43.833 16.833 43.833 L 1.000 43.833 1.000 46.333 " stroke="none" fill="#ffffff" fill-rule="evenodd"></path><path id="path1" d="M369.333 3.333 L 369.333 6.000 380.650 6.000 L 391.966 6.000 383.984 13.958 C 379.594 18.335,376.001 22.010,376.001 22.125 C 376.000 22.285,376.821 22.333,379.553 22.333 L 383.106 22.333 384.678 20.817 C 385.543 19.982,389.269 16.293,392.958 12.619 L 399.667 5.937 399.667 3.302 L 399.667 0.667 384.500 0.667 L 369.333 0.667 369.333 3.333 M375.500 27.178 C 375.500 27.276,376.958 28.794,378.741 30.553 C 383.833 35.576,390.165 41.773,391.129 42.676 L 392.008 43.500 380.671 43.500 L 369.333 43.500 369.333 46.167 L 369.333 48.833 384.500 48.833 L 399.667 48.833 399.667 46.236 L 399.667 43.639 395.560 39.611 C 393.302 37.396,390.133 34.271,388.519 32.667 C 386.905 31.063,384.917 29.131,384.102 28.375 L 382.620 27.000 379.060 27.000 C 376.649 27.000,375.500 27.057,375.500 27.178 " stroke="none" fill="#ffffff" fill-rule="evenodd"></path></g></svg>