<svg width="311" height="50" viewBox="0 0 311 50" fill="none" xmlns="http://www.w3.org/2000/svg">
<path d="M79.2688 45.1752H77.8609L76.8267 43.3857H73.307L73.9701 42.2212H76.0806L74.6728 39.8502L74.632 39.7252L74.5491 39.8502L71.403 45.1752H69.9951L73.7622 38.7686C73.8043 38.6028 73.928 38.4778 74.0938 38.3107C74.2175 38.187 74.3833 38.1028 74.6728 38.1028C74.9214 38.1028 75.1293 38.187 75.253 38.3107C75.4188 38.4357 75.5017 38.6028 75.5846 38.7686L79.2688 45.1752ZM249.387 45.1752H247.979L246.953 43.3857H243.427L244.098 42.2212H246.203L244.795 39.8502L244.756 39.7252L244.677 39.8502L241.519 45.1752H240.124L243.887 38.7686C243.927 38.6028 244.045 38.4778 244.216 38.3107C244.335 38.187 244.506 38.1028 244.795 38.1028C245.045 38.1028 245.256 38.187 245.374 38.3107C245.545 38.4357 245.624 38.6028 245.703 38.7686L249.387 45.1752ZM105.229 43.9686H100.427V39.3515H105.229V38.1028H99.2254V45.1752H105.229V43.9686ZM104.898 40.9738H100.923V42.2212H104.898V40.9738ZM132.431 43.0528C133.01 42.887 133.47 42.5962 133.799 42.2212C134.168 41.8054 134.339 41.2646 134.339 40.6817C134.339 39.8094 134.01 39.1436 133.378 38.6857C132.839 38.3107 132.102 38.1028 131.231 38.1028H126.262V45.1752H127.462V39.3515H131.437C132.549 39.3515 133.089 39.8094 133.089 40.6817C133.089 41.0988 132.931 41.4725 132.549 41.6804C132.26 41.8883 131.891 41.9712 131.437 41.9712H128.166V43.1778H130.775L132.72 45.1752H134.496L132.431 43.0528ZM162.247 39.0607C161.575 38.4357 160.747 38.1028 159.72 38.1028H157.773C156.733 38.1028 155.904 38.4357 155.247 39.0607C154.575 39.6844 154.247 40.5159 154.247 41.5554C154.247 42.5962 154.575 43.4699 155.247 44.1344C155.904 44.8002 156.733 45.1752 157.773 45.1752H159.72C160.747 45.1752 161.575 44.8423 162.247 44.1344C162.904 43.4699 163.233 42.5962 163.233 41.5554C163.233 40.558 162.904 39.6844 162.247 39.0607ZM161.378 43.3449C160.957 43.7607 160.378 43.9686 159.72 43.9686H157.773C157.102 43.9686 156.575 43.7607 156.115 43.3449C155.707 42.9291 155.457 42.3883 155.457 41.6804C155.457 41.0146 155.654 40.433 156.115 40.0173C156.523 39.6002 157.102 39.3515 157.773 39.3515H159.72C160.378 39.3515 160.957 39.5594 161.378 40.0173C161.786 40.433 162.036 41.0146 162.036 41.6804C162.036 42.3462 161.825 42.887 161.378 43.3449ZM189.733 41.3896C189.273 41.0146 188.733 40.8067 188.036 40.8067H184.76C184.523 40.8067 184.352 40.7238 184.181 40.6409C184.023 40.5159 183.944 40.3502 183.944 40.1002C183.944 39.8923 184.023 39.6844 184.181 39.5594C184.352 39.4344 184.562 39.3515 184.76 39.3515H190.023V38.1028H184.76C184.141 38.1028 183.654 38.2699 183.233 38.6028C182.812 38.9765 182.575 39.4344 182.575 40.058C182.575 40.6409 182.773 41.1396 183.233 41.5146C183.654 41.8475 184.141 42.0133 184.76 42.0133H188.036C188.365 42.0133 188.654 42.0962 188.904 42.2212C189.194 42.3883 189.325 42.637 189.325 42.9699C189.325 43.3028 189.194 43.5528 188.904 43.7186C188.654 43.8857 188.365 43.9265 188.036 43.9265H182.733V45.1752H188.036C188.694 45.1752 189.273 44.9673 189.733 44.5923C190.194 44.1765 190.444 43.6357 190.444 42.9699C190.444 42.3462 190.194 41.8054 189.733 41.3896ZM219.01 38.7686C218.51 38.3107 217.852 38.1028 217.062 38.1028H212.089V45.1752H213.286V39.3515H217.273C217.681 39.3515 218.01 39.4765 218.26 39.6844C218.549 39.933 218.681 40.2252 218.681 40.6409C218.681 41.0567 218.549 41.3475 218.26 41.5975C217.97 41.8475 217.641 41.9712 217.273 41.9712H213.997V43.1778H217.062C217.852 43.1778 218.47 42.9699 219.01 42.5133C219.549 42.0554 219.839 41.4317 219.839 40.6409C219.839 39.8923 219.549 39.2686 219.01 38.7686ZM277.049 43.9686H273.115C272.457 43.9686 271.918 43.7607 271.47 43.3449C271.049 42.9291 270.799 42.3883 270.799 41.6804C270.799 41.0146 271.01 40.433 271.47 40.0173C271.878 39.6002 272.457 39.3515 273.115 39.3515H277.049V38.1028H273.115C272.089 38.1028 271.26 38.4357 270.602 39.0607C269.931 39.6844 269.602 40.5159 269.602 41.5554C269.602 42.5962 269.931 43.4699 270.602 44.1344C271.26 44.8002 272.089 45.1752 273.115 45.1752H277.049V43.9686ZM304.589 43.9686H299.786V39.3515H304.589V38.1028H298.589V45.1752H304.589V43.9686ZM304.299 40.9738H300.326V42.2212H304.299V40.9738Z" fill="white"/>
<path d="M88.1293 16.3066V12.812H70.5332L74.0108 16.3066H88.1293Z" fill="white"/>
<path d="M271.8 29.7844V26.2897H258.419V12.812H254.945V29.7844H271.8Z" fill="white"/>
<path d="M233.997 16.3065V12.8535H216.445L219.879 16.3065H233.997Z" fill="white"/>
<path d="M233.129 19.5513L216.024 19.5921V29.7842H219.497V23.0026H233.129V19.5513Z" fill="white"/>
<path d="M153.471 29.7841L148.787 24.542L148.326 24.0433H150.563C151.313 24.0433 151.971 23.8762 152.55 23.6275C153.129 23.3367 153.629 22.9196 154.05 22.3381C154.419 21.7973 154.748 21.2144 154.919 20.5907C155.116 19.967 155.208 19.2591 155.208 18.5104C155.208 17.7209 155.116 17.0131 154.919 16.3894C154.708 15.7236 154.419 15.142 154.05 14.642C153.629 14.0604 153.129 13.6025 152.55 13.3525C151.971 13.0615 151.313 12.895 150.563 12.895H133.958V29.8253H137.445V16.3069H150.366C150.853 16.3069 151.182 16.5148 151.432 16.8884C151.682 17.2213 151.761 17.7213 151.761 18.4279C151.761 19.0937 151.682 19.5924 151.432 19.9253C151.182 20.3411 150.813 20.5082 150.366 20.5082H140.55L148.708 29.7424H153.471V29.7845V29.7841Z" fill="white"/>
<path d="M112.932 12.812H109.495V29.7423H112.932V12.812Z" fill="white"/>
<path d="M87.2201 19.5513H70.1201V29.7842H73.5978V23.0447H87.2201V19.5513Z" fill="white"/>
<path d="M194.536 16.3065V12.8535H176.984L180.089 16.3065H194.536ZM180.049 26.2894V23.0026H193.628V19.5513H176.562V29.7842H194.576V26.2894H180.049Z" fill="white"/>
<path d="M302.352 22.754L294.076 12.812H289.76L298.708 23.5448V29.7843H302.352V22.754Z" fill="white"/>
<path d="M304.458 20.3L310.55 12.812H306.326L302.313 17.7211L304.458 20.3Z" fill="#AAAAAA"/>
<path d="M22.0918 8.81869H31.2418C30.3721 4.99171 29.0892 1.4975 26.6879 0C24.2444 1.4975 22.9615 4.99171 22.0918 8.81869Z" fill="white"/>
<path d="M1.39086 10.2329H51.9856C52.9383 10.2329 53.9317 10.5242 52.8975 11.5641C51.8199 12.604 47.4317 16.9303 47.3488 16.9711C47.2659 17.0553 46.6448 17.804 44.7817 17.3882C42.9185 16.9711 31.7396 14.3921 31.7396 14.3921L31.6988 15.6408C31.6988 15.6408 41.6764 19.8421 42.3396 20.0921C42.712 20.2579 43.7883 20.7158 42.0909 21.6303C40.3935 22.5461 37.1225 24.2092 36.5843 24.3342C36.0869 24.4592 35.383 24.4592 34.7212 23.7527C34.1001 23.0448 27.1856 15.5987 26.6883 15.0579H26.6475C26.1501 15.5987 19.2356 23.0869 18.6146 23.7527C17.9527 24.4592 17.2488 24.5013 16.7514 24.3342C16.2554 24.2092 12.9839 22.5461 11.245 21.6303C9.54732 20.7566 10.5825 20.2579 10.9965 20.0921C11.6589 19.8 21.6369 15.6408 21.6369 15.6408L21.5961 14.3921C21.5961 14.3921 10.4168 16.9711 8.55363 17.3882C6.69047 17.804 6.06942 17.0553 5.98666 16.9711C5.90389 16.8882 1.51507 12.604 0.438625 11.5641C-0.596521 10.5242 0.397165 10.2329 1.39086 10.2329Z" fill="white"/>
<path d="M27.4323 21.6301C28.7981 25.9986 27.0178 30.7815 26.7284 31.2815H26.6876C26.3968 30.7815 24.6165 25.9986 25.9836 21.6301C24.3678 21.8801 20.3521 24.1262 20.3521 31.4472C20.3521 40.3078 25.4034 48.0025 26.7284 49.9999H26.7705C28.0534 47.9617 33.1455 40.2657 33.1455 31.4472C33.0626 24.1262 29.0468 21.8801 27.4323 21.6301ZM26.6876 43.8025C26.231 43.0946 22.2573 36.4815 22.2573 31.5301C22.2573 27.7038 23.1678 26.4143 23.8718 25.6236C23.8718 27.9117 24.3271 33.6104 26.6047 37.4788H26.6455C28.9231 33.6104 29.4192 27.9117 29.3784 25.6236C30.0823 26.4143 30.9929 27.7038 30.9929 31.5301C31.0757 36.4815 27.1007 43.1367 26.6876 43.8025Z" fill="white"/>
</svg>
