<svg width="208" height="44" viewBox="0 0 208 44" fill="none" xmlns="http://www.w3.org/2000/svg">
<path d="M104.966 15.0488C103.725 15.0165 102.491 15.2367 101.338 15.6961C100.185 16.1555 99.1369 16.8444 98.2582 17.7211C97.3874 18.5689 96.6994 19.5861 96.2367 20.71C95.774 21.8339 95.5463 23.0406 95.5678 24.2559C95.5461 25.4716 95.7735 26.679 96.2362 27.8035C96.6989 28.928 97.3871 29.9459 98.2582 30.7942C100.068 32.5142 102.469 33.4733 104.966 33.4733C107.463 33.4733 109.864 32.5142 111.674 30.7942C112.545 29.9459 113.233 28.928 113.696 27.8035C114.159 26.679 114.386 25.4716 114.364 24.2559C114.386 23.0406 114.158 21.8339 113.696 20.71C113.233 19.5861 112.545 18.5689 111.674 17.7211C110.795 16.8448 109.747 16.156 108.594 15.6967C107.441 15.2373 106.207 15.0169 104.966 15.0488ZM108.432 27.8911C107.498 28.7822 106.257 29.2794 104.966 29.2794C103.675 29.2794 102.434 28.7822 101.5 27.8911C101.038 27.4093 100.679 26.8386 100.444 26.2137C100.209 25.5889 100.103 24.9228 100.134 24.2559C100.104 23.5895 100.209 22.9241 100.444 22.2998C100.679 21.6755 101.039 21.1055 101.5 20.6242C102.434 19.7331 103.675 19.2359 104.966 19.2359C106.257 19.2359 107.498 19.7331 108.432 20.6242C108.894 21.1055 109.253 21.6755 109.488 22.2998C109.723 22.9241 109.829 23.5895 109.799 24.2559C109.829 24.9228 109.723 25.5889 109.488 26.2137C109.253 26.8386 108.894 27.4093 108.432 27.8911V27.8911Z" fill="white"/>
<path d="M171.132 7.95508C170.401 7.96167 169.702 8.25483 169.186 8.77148C168.669 9.28812 168.376 9.98695 168.369 10.7176C168.363 11.175 168.471 11.6268 168.682 12.0323C168.894 12.4378 169.203 12.7845 169.582 13.0411C169.961 13.2977 170.397 13.4562 170.852 13.5024C171.307 13.5486 171.767 13.4811 172.189 13.3059C172.612 13.1307 172.984 12.8533 173.273 12.4986C173.562 12.1439 173.759 11.723 173.845 11.2737C173.931 10.8244 173.904 10.3608 173.766 9.92442C173.629 9.48808 173.385 9.09268 173.057 8.77373C172.808 8.5144 172.509 8.30818 172.178 8.16749C171.847 8.0268 171.491 7.95454 171.132 7.95508V7.95508Z" fill="white"/>
<path d="M132.494 29.8601C132.493 29.7968 132.481 29.7342 132.456 29.676C132.431 29.6177 132.395 29.5651 132.349 29.5211V29.5211L130.243 27.2419C130.199 27.1894 130.143 27.1471 130.081 27.1179C130.019 27.0886 129.951 27.0731 129.882 27.0724C129.815 27.0709 129.748 27.0839 129.685 27.1107C129.623 27.1374 129.567 27.1773 129.522 27.2274C128.231 28.5546 126.853 29.229 125.429 29.229C124.759 29.2377 124.094 29.1123 123.473 28.8601C122.852 28.6079 122.288 28.234 121.814 27.7605C121.339 27.287 120.965 26.7234 120.712 26.103C120.459 25.4825 120.332 24.8176 120.34 24.1476C120.316 23.5019 120.435 22.8588 120.688 22.2645C120.942 21.6703 121.324 21.1396 121.808 20.7107C122.764 19.8227 124.027 19.3393 125.331 19.3619C126.68 19.3619 128.054 19.9606 129.414 21.1435H129.435C129.483 21.1846 129.539 21.2156 129.6 21.2344C129.66 21.2533 129.724 21.2598 129.787 21.2534C129.85 21.247 129.911 21.2279 129.967 21.1972C130.022 21.1665 130.071 21.1249 130.11 21.0749V21.0749L132.212 18.4892C132.292 18.3993 132.334 18.2822 132.33 18.1621C132.326 18.0419 132.276 17.9279 132.191 17.8436V17.8436C131.305 16.9412 130.245 16.2289 129.075 15.7502C127.905 15.2715 126.649 15.0365 125.385 15.0595C122.872 15.0042 120.435 15.923 118.584 17.6236C116.712 19.3367 115.767 21.5907 115.767 24.2991C115.767 27.0075 116.676 29.2506 118.465 30.942C120.188 32.5952 122.493 33.5023 124.88 33.4665C127.697 33.4665 130.211 32.3846 132.353 30.2207C132.401 30.1741 132.438 30.1178 132.462 30.0556C132.486 29.9934 132.497 29.9268 132.494 29.8601V29.8601Z" fill="white"/>
<path d="M94.9221 15.5283C94.9221 15.403 94.8724 15.2829 94.7838 15.1943C94.6952 15.1057 94.575 15.0559 94.4497 15.0559H94.4064C93.1906 15.0907 92.0123 15.4848 91.02 16.1883C90.6236 16.4597 90.2486 16.7611 89.8984 17.0899C89.8718 17.1189 89.8415 17.1444 89.8083 17.1656C89.7766 17.1845 89.7405 17.1944 89.7037 17.1945C89.6441 17.1945 89.5868 17.1711 89.5443 17.1292C89.5018 17.0874 89.4774 17.0305 89.4765 16.9709V15.5283C89.4765 15.4665 89.4642 15.4052 89.4405 15.3481C89.4167 15.291 89.3818 15.2391 89.3379 15.1956C89.294 15.152 89.2419 15.1175 89.1846 15.0942C89.1273 15.0708 89.0659 15.059 89.004 15.0595H85.3616C85.2369 15.0595 85.1173 15.1088 85.0288 15.1966C84.9403 15.2844 84.8901 15.4037 84.8892 15.5283V32.9869C84.8892 33.1122 84.9389 33.2323 85.0275 33.3209C85.1161 33.4095 85.2363 33.4593 85.3616 33.4593H88.9932C89.0548 33.4588 89.1157 33.4462 89.1724 33.4222C89.2291 33.3982 89.2805 33.3633 89.3237 33.3194C89.3669 33.2756 89.401 33.2236 89.4241 33.1666C89.4473 33.1095 89.4589 33.0484 89.4585 32.9869V25.4639C89.4585 23.6607 89.8696 22.2182 90.6846 21.1687C91.4997 20.1193 92.6501 19.6468 94.2586 19.6468H94.4569C94.5813 19.644 94.6996 19.5926 94.7866 19.5036C94.8735 19.4147 94.9222 19.2952 94.9221 19.1708V15.5283Z" fill="white"/>
<path d="M165.25 15.5284C165.25 15.4031 165.2 15.2829 165.112 15.1943C165.023 15.1057 164.903 15.0559 164.778 15.0559H164.734C163.517 15.0901 162.337 15.4841 161.344 16.1883C160.948 16.4597 160.573 16.7611 160.223 17.0899C160.196 17.1189 160.166 17.1444 160.132 17.1657C160.101 17.1845 160.065 17.1944 160.028 17.1945C159.968 17.1945 159.911 17.1711 159.869 17.1292C159.826 17.0874 159.802 17.0305 159.801 16.9709V15.5284C159.801 15.4031 159.751 15.2829 159.662 15.1943C159.574 15.1057 159.454 15.0559 159.328 15.0559H155.689C155.627 15.0554 155.565 15.0673 155.508 15.0908C155.45 15.1144 155.397 15.1491 155.353 15.193C155.309 15.2369 155.274 15.2892 155.25 15.3467C155.226 15.4043 155.213 15.466 155.213 15.5284V32.9869C155.214 33.1116 155.265 33.2308 155.353 33.3186C155.442 33.4064 155.561 33.4557 155.686 33.4557H159.317C159.379 33.4557 159.44 33.4436 159.496 33.42C159.553 33.3963 159.604 33.3618 159.648 33.3182C159.691 33.2746 159.725 33.2229 159.748 33.166C159.771 33.1092 159.783 33.0483 159.783 32.9869V25.464C159.783 23.6608 160.197 22.2182 161.009 21.1687C161.82 20.1193 162.974 19.6469 164.583 19.6469H164.781C164.905 19.644 165.024 19.5926 165.111 19.5037C165.198 19.4147 165.246 19.2952 165.246 19.1708L165.25 15.5284Z" fill="white"/>
<path d="M73.983 8.01998C73.9217 8.00195 65.8578 8.01998 65.8578 8.01998C65.4931 8.02093 65.1436 8.1665 64.886 8.42475C64.6284 8.68301 64.4838 9.03287 64.4838 9.39762V20.7974C64.4838 20.8304 64.4772 20.863 64.4645 20.8935C64.4518 20.9239 64.4331 20.9515 64.4096 20.9747C64.3862 20.9978 64.3583 21.0161 64.3277 21.0284C64.2971 21.0406 64.2643 21.0467 64.2313 21.0462H62.1865C62.0651 21.0462 61.9486 21.0945 61.8627 21.1804C61.7768 21.2663 61.7285 21.3828 61.7285 21.5043V25.3162C61.7285 25.4377 61.7768 25.5542 61.8627 25.6401C61.9486 25.726 62.0651 25.7742 62.1865 25.7742H64.235C64.2681 25.7747 64.3008 25.7817 64.3313 25.7948C64.3617 25.8079 64.3893 25.8269 64.4124 25.8507C64.4355 25.8745 64.4537 25.9026 64.466 25.9334C64.4782 25.9642 64.4843 25.9971 64.4838 26.0303V32.9798C64.4838 33.1051 64.5336 33.2253 64.6222 33.3138C64.7108 33.4024 64.8309 33.4522 64.9562 33.4522C64.9945 33.4574 65.0333 33.4574 65.0716 33.4522L68.8692 32.2838C68.9716 32.2595 69.0628 32.2015 69.1282 32.119C69.1936 32.0366 69.2294 31.9346 69.2298 31.8293V31.8293V13.6676C69.2317 13.4252 69.3288 13.1933 69.5002 13.0219C69.6716 12.8506 69.9035 12.7534 70.1458 12.7516C70.1458 12.7516 73.8243 12.7516 73.8784 12.7516C74.9282 12.8751 75.8916 13.3934 76.5732 14.2013C77.2547 15.0092 77.6034 16.0461 77.5483 17.1017C77.4932 18.1572 77.0386 19.1523 76.2766 19.8848C75.5147 20.6174 74.5026 21.0327 73.4457 21.0462H72.8614C72.74 21.0462 72.6235 21.0945 72.5376 21.1804C72.4517 21.2663 72.4034 21.3828 72.4034 21.5043V25.3162C72.4033 25.4394 72.451 25.5578 72.5364 25.6466C72.6218 25.7354 72.7383 25.7876 72.8614 25.7923H73.3808C75.6861 25.7904 77.9006 24.8939 79.558 23.2915C81.2153 21.6891 82.1859 19.506 82.2654 17.202C82.3449 14.8981 81.527 12.6533 79.984 10.9405C78.4411 9.22768 76.2935 8.18065 73.9938 8.01998H73.983Z" fill="white"/>
<path d="M151.466 32.9546V15.5574V15.5285C151.466 15.4032 151.416 15.2831 151.328 15.1945C151.239 15.1059 151.119 15.0561 150.994 15.0561H147.358C147.233 15.0561 147.113 15.1059 147.024 15.1945C146.936 15.2831 146.886 15.4032 146.886 15.5285C146.886 15.5502 146.886 15.5718 146.886 15.5898V24.8294C146.886 26.272 146.496 27.307 145.689 28.0283C144.903 28.7483 143.869 29.1361 142.803 29.1102C141.361 29.1102 139.431 28.6774 139.431 24.9448V15.5574C139.433 15.5394 139.433 15.5213 139.431 15.5033C139.427 15.3821 139.375 15.2674 139.288 15.1834C139.201 15.0993 139.084 15.0524 138.963 15.0525H135.356C135.294 15.0525 135.232 15.0648 135.175 15.0888C135.117 15.1128 135.065 15.1479 135.021 15.1921C134.977 15.2364 134.942 15.2889 134.919 15.3466C134.895 15.4044 134.883 15.4662 134.884 15.5285V26.0375C134.884 28.3709 135.526 30.3111 136.795 31.5697C138.065 32.8284 139.738 33.4631 141.772 33.4631C143.023 33.4631 144.206 33.4126 145.285 32.7743C145.671 32.5471 146.46 31.9448 146.536 31.8907C146.572 31.866 146.615 31.8533 146.659 31.8546C146.688 31.8542 146.718 31.8596 146.746 31.8706C146.774 31.8815 146.799 31.8979 146.82 31.9186C146.842 31.9394 146.859 31.9642 146.871 31.9916C146.883 32.019 146.889 32.0484 146.889 32.0782C146.889 32.0782 146.889 32.0782 146.889 32.0782V32.9798C146.889 33.1051 146.939 33.2253 147.028 33.3139C147.116 33.4025 147.237 33.4523 147.362 33.4523H150.994C151.119 33.4523 151.239 33.4025 151.328 33.3139C151.416 33.2253 151.466 33.1051 151.466 32.9798C151.466 32.9798 151.466 32.9582 151.466 32.9474V32.9546Z" fill="white"/>
<path d="M172.914 15.0486H169.279C169.154 15.0514 169.035 15.1033 168.948 15.1931C168.861 15.2828 168.812 15.4032 168.813 15.5282C168.812 15.5378 168.812 15.5475 168.813 15.5571V15.5571V32.9904C168.813 33.1144 168.862 33.2335 168.949 33.3219C169.036 33.4103 169.155 33.4609 169.279 33.4628H172.939C173.059 33.4546 173.171 33.4012 173.252 33.3135C173.334 33.2257 173.379 33.1102 173.379 32.9904V15.5282C173.38 15.4032 173.332 15.2828 173.245 15.1931C173.158 15.1033 173.039 15.0514 172.914 15.0486Z" fill="white"/>
<path d="M189.798 9.98188C188.597 8.83154 187 8.18609 185.337 8.17869C184.553 8.16649 183.775 8.31219 183.049 8.60712C182.323 8.90204 181.664 9.34015 181.11 9.89533C179.946 11.0349 179.354 12.5857 179.354 14.4971V14.8072C179.353 14.8678 179.328 14.9256 179.285 14.9681C179.242 15.0106 179.184 15.0344 179.123 15.0344H177.681C177.617 15.0348 177.554 15.0481 177.496 15.0734C177.438 15.0987 177.385 15.1355 177.341 15.1817C177.297 15.2278 177.263 15.2823 177.241 15.3419C177.219 15.4015 177.209 15.465 177.212 15.5285V15.5285V19.1349C177.212 19.2596 177.261 19.3792 177.349 19.4677C177.437 19.5562 177.556 19.6064 177.681 19.6073H179.123C179.184 19.6073 179.242 19.6311 179.285 19.6737C179.328 19.7162 179.353 19.7739 179.354 19.8345V19.8345V32.9906C179.354 33.1159 179.404 33.2361 179.492 33.3247C179.581 33.4133 179.701 33.4631 179.827 33.4631H183.455C183.58 33.4631 183.7 33.4133 183.789 33.3247C183.877 33.2361 183.927 33.1159 183.927 32.9906V19.849C183.927 19.7887 183.951 19.7309 183.994 19.6883C184.036 19.6457 184.094 19.6218 184.154 19.6218H187.908C187.973 19.6233 188.036 19.6117 188.096 19.5877C188.156 19.5637 188.21 19.5278 188.255 19.4823C188.3 19.4367 188.335 19.3824 188.359 19.3227C188.383 19.263 188.394 19.1991 188.392 19.1349V15.5285C188.392 15.4032 188.342 15.283 188.253 15.1944C188.165 15.1058 188.045 15.0561 187.919 15.0561H184.169C184.108 15.0561 184.05 15.0323 184.007 14.9897C183.964 14.9472 183.939 14.8895 183.938 14.8289V14.4105C183.896 13.8393 184.069 13.273 184.425 12.8237C184.604 12.635 184.824 12.4886 185.067 12.3951C185.31 12.3015 185.571 12.2632 185.831 12.2828C186.451 12.2828 187.025 12.5857 187.634 13.224C187.684 13.285 187.748 13.3329 187.82 13.3632C187.893 13.3936 187.971 13.4056 188.05 13.3981C188.128 13.3906 188.203 13.3639 188.268 13.3203C188.334 13.2767 188.387 13.2176 188.424 13.1483L189.892 10.6491C189.93 10.5993 189.958 10.5426 189.974 10.4822C189.99 10.4217 189.993 10.3588 189.985 10.2968C189.977 10.2348 189.956 10.1751 189.925 10.1211C189.893 10.0671 189.852 10.0198 189.802 9.98188H189.798Z" fill="white"/>
<path d="M207.527 15.0486H203.899C203.837 15.0486 203.774 15.061 203.716 15.0852C203.658 15.1093 203.606 15.1447 203.561 15.1893C203.517 15.2339 203.482 15.2868 203.458 15.345C203.435 15.4031 203.423 15.4654 203.423 15.5282V24.656C203.423 26.0986 203.03 27.1336 202.226 27.8549C201.44 28.5739 200.406 28.9615 199.341 28.9368C197.898 28.9368 195.969 28.504 195.969 24.7714V15.5282C195.969 15.4026 195.919 15.2821 195.831 15.1929C195.742 15.1037 195.622 15.0531 195.496 15.0522H191.886C191.761 15.0531 191.641 15.1037 191.552 15.1929C191.464 15.2821 191.414 15.4026 191.414 15.5282V25.8641C191.414 28.1939 192.056 30.3216 193.325 31.5803C194.595 32.8389 196.265 33.4736 198.302 33.4736C199.538 33.4765 200.752 33.145 201.815 32.5143C202.24 32.289 202.638 32.0155 203.001 31.6993V31.6993C203.021 31.6685 203.048 31.6431 203.081 31.6254C203.113 31.6078 203.149 31.5985 203.185 31.5983C203.246 31.5983 203.304 31.6221 203.347 31.6646C203.39 31.7071 203.415 31.7649 203.416 31.8255V35.3057C203.416 36.7807 201.396 38.7858 199.449 38.7858C197.401 38.7858 196.077 37.3433 195.363 35.3129C195.338 35.2102 195.279 35.1189 195.196 35.0535C195.113 34.9881 195.011 34.9525 194.905 34.9522C194.832 34.9531 194.76 34.9716 194.696 35.0063V35.0063C194.584 35.0496 191.987 36.2866 191.591 36.4741C191.533 36.4954 191.481 36.5278 191.436 36.5694C191.391 36.611 191.355 36.661 191.33 36.7166C191.304 36.7722 191.29 36.8323 191.288 36.8934C191.285 36.9545 191.295 37.0155 191.317 37.0728V37.0728C191.818 38.8415 192.885 40.397 194.356 41.5006C195.826 42.6041 197.618 43.1948 199.456 43.182C203.82 43.182 208 39.4422 208 35.2985C208 31.1547 208 15.4958 208 15.4958C207.993 15.3749 207.941 15.2611 207.853 15.1779C207.765 15.0947 207.648 15.0484 207.527 15.0486V15.0486Z" fill="white"/>
<path d="M3.85708 20.5413C3.40604 20.5422 2.96916 20.6988 2.62025 20.9847C2.27134 21.2705 2.0318 21.668 1.94209 22.11C1.94209 22.11 0.286756 28.4681 0.290362 28.4717C0.286676 28.5426 0.286676 28.6136 0.290362 28.6845C0.289928 29.156 0.469187 29.6099 0.79165 29.9539C0.983352 30.1342 1.21091 30.272 1.45948 30.3584C1.70804 30.4448 1.97203 30.4778 2.23421 30.4552H10.1683V20.5413H3.85708Z" fill="white"/>
<path d="M40.8622 0.742188H27.9478C24.0044 0.750785 20.2256 2.32354 17.4406 5.11527C14.6557 7.90701 13.0921 11.6896 13.093 15.633V41.296C13.0743 41.829 13.2675 42.3477 13.6304 42.7386C13.9789 43.072 14.4427 43.2581 14.9251 43.2579C15.0804 43.2496 15.2341 43.223 15.3831 43.1786L21.6582 41.5521C21.9164 41.4841 22.1571 41.3617 22.3643 41.1931C22.5714 41.0246 22.7401 40.8138 22.8591 40.5747C22.9957 40.269 23.0587 39.9355 23.0431 39.601V32.3882C23.053 31.896 23.2476 31.4255 23.5883 31.07C23.929 30.7146 24.3909 30.5003 24.8823 30.4696V30.4696H27.9441C29.8949 30.472 31.827 30.0901 33.6302 29.3458C35.4333 28.6015 37.0722 27.5093 38.4533 26.1316C39.8344 24.7538 40.9305 23.1176 41.6792 21.3162C42.428 19.5149 42.8145 17.5837 42.8169 15.633V2.70046C42.8169 2.18172 42.6111 1.68417 42.2446 1.31702C41.8781 0.949882 41.381 0.743143 40.8622 0.742188V0.742188ZM27.9478 20.5773C26.9662 20.578 26.0066 20.2874 25.1903 19.7424C24.3741 19.1973 23.7379 18.4222 23.3625 17.5153C22.9871 16.6085 22.8892 15.6106 23.0813 14.648C23.2734 13.6855 23.7468 12.8016 24.4416 12.1083C25.1364 11.415 26.0213 10.9435 26.9843 10.7535C27.9472 10.5635 28.9449 10.6636 29.851 11.041C30.757 11.4185 31.5307 12.0563 32.074 12.8737C32.6173 13.6912 32.9058 14.6514 32.9029 15.633C32.8982 16.9447 32.3742 18.2012 31.4457 19.1277C30.5171 20.0542 29.2595 20.5754 27.9478 20.5773V20.5773Z" fill="white"/>
<path d="M5.22707 33.3655C3.91633 33.3674 2.65982 33.8889 1.73299 34.8158C0.806157 35.7426 0.284623 36.9991 0.282715 38.3098V42.6808C0.282715 42.8338 0.343508 42.9806 0.451721 43.0888C0.559933 43.197 0.706701 43.2578 0.859737 43.2578H5.22707C6.51575 43.223 7.73997 42.6866 8.63915 41.7628C9.53833 40.839 10.0415 39.6008 10.0415 38.3116C10.0415 37.0225 9.53833 35.7842 8.63915 34.8604C7.73997 33.9367 6.51575 33.4003 5.22707 33.3655ZM6.71651 40.3078C6.51309 40.1167 6.26477 39.9801 5.99453 39.9105C5.72429 39.841 5.44086 39.8407 5.17048 39.9097C4.90009 39.9787 4.6515 40.1149 4.44769 40.3055C4.24388 40.4961 4.09145 40.735 4.00451 41.0002H2.54031V38.5334C2.53964 38.1255 2.64012 37.7238 2.83278 37.3643C3.02543 37.0048 3.30423 36.6986 3.64422 36.4732C3.98421 36.2479 4.37478 36.1104 4.78097 36.073C5.18715 36.0356 5.59626 36.0995 5.97168 36.259C6.3471 36.4185 6.67711 36.6686 6.93216 36.9869C7.18721 37.3053 7.35934 37.6819 7.43314 38.083C7.50694 38.4842 7.4801 38.8974 7.35504 39.2857C7.22998 39.6739 7.01059 40.0251 6.71651 40.3078V40.3078Z" fill="white"/>
</svg>
